M48
; DRILL file {KiCad 5.1.5+dfsg1-2build2} date jue 12 may 2022 13:29:24
; FORMAT={-:-/ absolute / inch / decimal}
; #@! TF.CreationDate,2022-05-12T13:29:24+02:00
; #@! TF.GenerationSoftware,Kicad,Pcbnew,5.1.5+dfsg1-2build2
FMAT,2
INCH
T1C0.0157
T2C0.0299
T3C0.0315
T4C0.0354
T5C0.0394
T6C0.1280
%
G90
G05
T1
X4.095Y-4.2
X4.555Y-2.84
X4.91Y-4.385
X5.115Y-4.475
T2
X3.645Y-4.36
X3.695Y-4.46
X3.745Y-4.36
X3.795Y-4.46
X3.845Y-4.36
X3.895Y-4.46
X4.32Y-4.37
X4.37Y-4.47
X4.42Y-4.37
X4.47Y-4.47
X4.52Y-4.37
X4.57Y-4.47
T3
X3.59Y-3.96
X3.6687Y-3.96
T4
X5.42Y-1.64
X5.52Y-1.64
X3.85Y-1.66
X3.95Y-1.66
X4.18Y-1.64
X4.28Y-1.64
X4.57Y-1.64
X4.67Y-1.64
T5
X4.9336Y-1.9685
X4.9336Y-2.0685
X4.9336Y-2.1685
X4.9336Y-2.2685
X4.9336Y-2.3685
X4.9336Y-2.4685
X4.9336Y-2.5685
X4.9336Y-2.6685
X4.9336Y-2.7685
X4.9336Y-2.8685
X4.9336Y-2.9685
X4.9336Y-3.0685
X4.9336Y-3.1685
X4.9336Y-3.2685
X4.9336Y-3.3685
X4.9336Y-3.4685
X4.9336Y-3.5685
X4.9336Y-3.6685
X4.9336Y-3.7685
X4.9336Y-3.8685
X5.3937Y-1.9685
X5.3937Y-2.0685
X5.3937Y-2.1685
X5.3937Y-2.2685
X5.3937Y-2.3685
X5.3937Y-2.4685
X5.3937Y-2.5685
X5.3937Y-2.6685
X5.3937Y-2.7685
X5.3937Y-2.8685
X5.3937Y-2.9685
X5.3937Y-3.0685
X5.3937Y-3.1685
X5.3937Y-3.2685
X5.3937Y-3.3685
X5.3937Y-3.4685
X5.3937Y-3.5685
X5.3937Y-3.6685
X5.3937Y-3.7685
X5.3937Y-3.8685
X3.8705Y-1.9685
X3.8705Y-2.0685
X3.8705Y-2.1685
X3.8705Y-2.2685
X3.8705Y-2.3685
X3.8705Y-2.4685
X3.8705Y-2.5685
X3.8705Y-2.6685
X3.8705Y-2.7685
X3.8705Y-2.8685
X3.8705Y-2.9685
X3.8705Y-3.0685
X3.8705Y-3.1685
X3.8705Y-3.2685
X3.8705Y-3.3685
X3.8705Y-3.4685
X3.8705Y-3.5685
X3.8705Y-3.6685
X3.8705Y-3.7685
X3.8705Y-3.8685
X4.3307Y-1.9685
X4.3307Y-2.0685
X4.3307Y-2.1685
X4.3307Y-2.2685
X4.3307Y-2.3685
X4.3307Y-2.4685
X4.3307Y-2.5685
X4.3307Y-2.6685
X4.3307Y-2.7685
X4.3307Y-2.8685
X4.3307Y-2.9685
X4.3307Y-3.0685
X4.3307Y-3.1685
X4.3307Y-3.2685
X4.3307Y-3.3685
X4.3307Y-3.4685
X4.3307Y-3.5685
X4.3307Y-3.6685
X4.3307Y-3.7685
X4.3307Y-3.8685
T6
X3.5698Y-4.71
X3.9698Y-4.71
X4.2448Y-4.72
X4.6448Y-4.72
T0
M30
