<?xml version="1.0" standalone="no"?>
 <!DOCTYPE svg PUBLIC "-//W3C//DTD SVG 1.1//EN" 
 "http://www.w3.org/Graphics/SVG/1.1/DTD/svg11.dtd"> 
<svg xmlns="http://www.w3.org/2000/svg" version="1.1" 
    width="29.7002cm" height="21.0007cm" viewBox="0 0 116930 82680 ">
<title>SVG Picture created as Can_prototypage-F_Cu.svg date 2022/01/27 19:44:19 </title>
  <desc>Picture generated by PCBNEW </desc>
<g style="fill:#000000; fill-opacity:1;stroke:#000000; stroke-opacity:1;
stroke-linecap:round; stroke-linejoin:round; "
 transform="translate(0 0) scale(1 1)">
</g>
<g style="fill:#000000; fill-opacity:0.0; 
stroke:#000000; stroke-width:-0.000393701; stroke-opacity:1; 
stroke-linecap:round; stroke-linejoin:round;">
</g>
<g style="fill:#000000; fill-opacity:0.0; 
stroke:#000000; stroke-width:39.3701; stroke-opacity:1; 
stroke-linecap:round; stroke-linejoin:round;">
</g>
<g style="fill:#000000; fill-opacity:0.0; 
stroke:#000000; stroke-width:59.0551; stroke-opacity:1; 
stroke-linecap:round; stroke-linejoin:round;">
<rect x="69685.9" y="65357.2" width="42519.7" height="12598.4" rx="0" />
</g>
<g style="fill:#000000; fill-opacity:0.0; 
stroke:#000000; stroke-width:39.3701; stroke-opacity:1; 
stroke-linecap:round; stroke-linejoin:round;">
</g>
<g style="fill:#000000; fill-opacity:0.0; 
stroke:#000000; stroke-width:59.0551; stroke-opacity:1; 
stroke-linecap:round; stroke-linejoin:round;">
<rect x="3937.01" y="3937.01" width="109056" height="74806" rx="0" />
</g>
<g style="fill:#000000; fill-opacity:0.0; 
stroke:#000000; stroke-width:39.3701; stroke-opacity:1; 
stroke-linecap:round; stroke-linejoin:round;">
</g>
<g style="fill:#000000; fill-opacity:0.0; 
stroke:#000000; stroke-width:59.0551; stroke-opacity:1; 
stroke-linecap:round; stroke-linejoin:round;">
<rect x="4724.41" y="4724.41" width="107481" height="73231.2" rx="0" />
</g>
<g style="fill:#000000; fill-opacity:0.0; 
stroke:#000000; stroke-width:39.3701; stroke-opacity:1; 
stroke-linecap:round; stroke-linejoin:round;">
</g>
<g style="fill:#000000; fill-opacity:0.0; 
stroke:#000000; stroke-width:59.0551; stroke-opacity:1; 
stroke-linecap:round; stroke-linejoin:round;">
<path d="M23622 4724
L23622 3937
" />
</g>
<g style="fill:#000000; fill-opacity:0.0; 
stroke:#000000; stroke-width:39.3701; stroke-opacity:1; 
stroke-linecap:round; stroke-linejoin:round;">
</g>
<g style="fill:#000000; fill-opacity:0.0; 
stroke:#000000; stroke-width:59.0551; stroke-opacity:1; 
stroke-linecap:round; stroke-linejoin:round;">
<path d="M43307 4724
L43307 3937
" />
</g>
<g style="fill:#000000; fill-opacity:0.0; 
stroke:#000000; stroke-width:39.3701; stroke-opacity:1; 
stroke-linecap:round; stroke-linejoin:round;">
</g>
<g style="fill:#000000; fill-opacity:0.0; 
stroke:#000000; stroke-width:59.0551; stroke-opacity:1; 
stroke-linecap:round; stroke-linejoin:round;">
<path d="M62992 4724
L62992 3937
" />
</g>
<g style="fill:#000000; fill-opacity:0.0; 
stroke:#000000; stroke-width:39.3701; stroke-opacity:1; 
stroke-linecap:round; stroke-linejoin:round;">
</g>
<g style="fill:#000000; fill-opacity:0.0; 
stroke:#000000; stroke-width:59.0551; stroke-opacity:1; 
stroke-linecap:round; stroke-linejoin:round;">
<path d="M82677 4724
L82677 3937
" />
</g>
<g style="fill:#000000; fill-opacity:0.0; 
stroke:#000000; stroke-width:39.3701; stroke-opacity:1; 
stroke-linecap:round; stroke-linejoin:round;">
</g>
<g style="fill:#000000; fill-opacity:0.0; 
stroke:#000000; stroke-width:59.0551; stroke-opacity:1; 
stroke-linecap:round; stroke-linejoin:round;">
<path d="M102362 4724
L102362 3937
" />
</g>
<g style="fill:#000000; fill-opacity:0.0; 
stroke:#000000; stroke-width:39.3701; stroke-opacity:1; 
stroke-linecap:round; stroke-linejoin:round;">
</g>
<g style="fill:#000000; fill-opacity:0.0; 
stroke:#000000; stroke-width:59.0551; stroke-opacity:1; 
stroke-linecap:round; stroke-linejoin:round;">
<text x="13779.5" y="4586.61"
textLength="743.344" font-size="682.415" lengthAdjust="spacingAndGlyphs"
text-anchor="start" opacity="0">1</text>
<path d="M14199 4562
L13906 4562
" />
<path d="M14052 4562
L14052 4050
L14004 4123
L13955 4172
L13906 4196
" />
</g>
<g style="fill:#000000; fill-opacity:0.0; 
stroke:#000000; stroke-width:39.3701; stroke-opacity:1; 
stroke-linecap:round; stroke-linejoin:round;">
</g>
<g style="fill:#000000; fill-opacity:0.0; 
stroke:#000000; stroke-width:59.0551; stroke-opacity:1; 
stroke-linecap:round; stroke-linejoin:round;">
<text x="33464.6" y="4586.61"
textLength="546.494" font-size="682.415" lengthAdjust="spacingAndGlyphs"
text-anchor="start" opacity="0">2</text>
<path d="M33591 4099
L33615 4074
L33664 4050
L33786 4050
L33835 4074
L33859 4099
L33884 4147
L33884 4196
L33859 4269
L33567 4562
L33884 4562
" />
</g>
<g style="fill:#000000; fill-opacity:0.0; 
stroke:#000000; stroke-width:39.3701; stroke-opacity:1; 
stroke-linecap:round; stroke-linejoin:round;">
</g>
<g style="fill:#000000; fill-opacity:0.0; 
stroke:#000000; stroke-width:59.0551; stroke-opacity:1; 
stroke-linecap:round; stroke-linejoin:round;">
<text x="53149.6" y="4586.61"
textLength="546.494" font-size="682.415" lengthAdjust="spacingAndGlyphs"
text-anchor="start" opacity="0">3</text>
<path d="M53252 4050
L53569 4050
L53398 4245
L53471 4245
L53520 4269
L53544 4294
L53569 4342
L53569 4464
L53544 4513
L53520 4537
L53471 4562
L53325 4562
L53276 4537
L53252 4513
" />
</g>
<g style="fill:#000000; fill-opacity:0.0; 
stroke:#000000; stroke-width:39.3701; stroke-opacity:1; 
stroke-linecap:round; stroke-linejoin:round;">
</g>
<g style="fill:#000000; fill-opacity:0.0; 
stroke:#000000; stroke-width:59.0551; stroke-opacity:1; 
stroke-linecap:round; stroke-linejoin:round;">
<text x="72834.6" y="4586.61"
textLength="546.494" font-size="682.415" lengthAdjust="spacingAndGlyphs"
text-anchor="start" opacity="0">4</text>
<path d="M73205 4221
L73205 4562
" />
<path d="M73083 4026
L72961 4391
L73278 4391
" />
</g>
<g style="fill:#000000; fill-opacity:0.0; 
stroke:#000000; stroke-width:39.3701; stroke-opacity:1; 
stroke-linecap:round; stroke-linejoin:round;">
</g>
<g style="fill:#000000; fill-opacity:0.0; 
stroke:#000000; stroke-width:59.0551; stroke-opacity:1; 
stroke-linecap:round; stroke-linejoin:round;">
<text x="92519.7" y="4586.61"
textLength="546.494" font-size="682.415" lengthAdjust="spacingAndGlyphs"
text-anchor="start" opacity="0">5</text>
<path d="M92914 4050
L92671 4050
L92646 4294
L92671 4269
L92719 4245
L92841 4245
L92890 4269
L92914 4294
L92939 4342
L92939 4464
L92914 4513
L92890 4537
L92841 4562
L92719 4562
L92671 4537
L92646 4513
" />
</g>
<g style="fill:#000000; fill-opacity:0.0; 
stroke:#000000; stroke-width:39.3701; stroke-opacity:1; 
stroke-linecap:round; stroke-linejoin:round;">
</g>
<g style="fill:#000000; fill-opacity:0.0; 
stroke:#000000; stroke-width:59.0551; stroke-opacity:1; 
stroke-linecap:round; stroke-linejoin:round;">
<text x="112205" y="4586.61"
textLength="546.494" font-size="682.415" lengthAdjust="spacingAndGlyphs"
text-anchor="start" opacity="0">6</text>
<path d="M112575 4050
L112477 4050
L112429 4074
L112404 4099
L112356 4172
L112331 4269
L112331 4464
L112356 4513
L112380 4537
L112429 4562
L112526 4562
L112575 4537
L112599 4513
L112624 4464
L112624 4342
L112599 4294
L112575 4269
L112526 4245
L112429 4245
L112380 4269
L112356 4294
L112331 4342
" />
</g>
<g style="fill:#000000; fill-opacity:0.0; 
stroke:#000000; stroke-width:39.3701; stroke-opacity:1; 
stroke-linecap:round; stroke-linejoin:round;">
</g>
<g style="fill:#000000; fill-opacity:0.0; 
stroke:#000000; stroke-width:59.0551; stroke-opacity:1; 
stroke-linecap:round; stroke-linejoin:round;">
<path d="M23622 77955
L23622 78742
" />
</g>
<g style="fill:#000000; fill-opacity:0.0; 
stroke:#000000; stroke-width:39.3701; stroke-opacity:1; 
stroke-linecap:round; stroke-linejoin:round;">
</g>
<g style="fill:#000000; fill-opacity:0.0; 
stroke:#000000; stroke-width:59.0551; stroke-opacity:1; 
stroke-linecap:round; stroke-linejoin:round;">
<path d="M43307 77955
L43307 78742
" />
</g>
<g style="fill:#000000; fill-opacity:0.0; 
stroke:#000000; stroke-width:39.3701; stroke-opacity:1; 
stroke-linecap:round; stroke-linejoin:round;">
</g>
<g style="fill:#000000; fill-opacity:0.0; 
stroke:#000000; stroke-width:59.0551; stroke-opacity:1; 
stroke-linecap:round; stroke-linejoin:round;">
<path d="M62992 77955
L62992 78742
" />
</g>
<g style="fill:#000000; fill-opacity:0.0; 
stroke:#000000; stroke-width:39.3701; stroke-opacity:1; 
stroke-linecap:round; stroke-linejoin:round;">
</g>
<g style="fill:#000000; fill-opacity:0.0; 
stroke:#000000; stroke-width:59.0551; stroke-opacity:1; 
stroke-linecap:round; stroke-linejoin:round;">
<path d="M82677 77955
L82677 78742
" />
</g>
<g style="fill:#000000; fill-opacity:0.0; 
stroke:#000000; stroke-width:39.3701; stroke-opacity:1; 
stroke-linecap:round; stroke-linejoin:round;">
</g>
<g style="fill:#000000; fill-opacity:0.0; 
stroke:#000000; stroke-width:59.0551; stroke-opacity:1; 
stroke-linecap:round; stroke-linejoin:round;">
<path d="M102362 77955
L102362 78742
" />
</g>
<g style="fill:#000000; fill-opacity:0.0; 
stroke:#000000; stroke-width:39.3701; stroke-opacity:1; 
stroke-linecap:round; stroke-linejoin:round;">
</g>
<g style="fill:#000000; fill-opacity:0.0; 
stroke:#000000; stroke-width:59.0551; stroke-opacity:1; 
stroke-linecap:round; stroke-linejoin:round;">
<text x="13779.5" y="78605.2"
textLength="546.494" font-size="682.415" lengthAdjust="spacingAndGlyphs"
text-anchor="start" opacity="0">1</text>
<path d="M14199 78580
L13906 78580
" />
<path d="M14052 78580
L14052 78069
L14004 78142
L13955 78190
L13906 78215
" />
</g>
<g style="fill:#000000; fill-opacity:0.0; 
stroke:#000000; stroke-width:39.3701; stroke-opacity:1; 
stroke-linecap:round; stroke-linejoin:round;">
</g>
<g style="fill:#000000; fill-opacity:0.0; 
stroke:#000000; stroke-width:59.0551; stroke-opacity:1; 
stroke-linecap:round; stroke-linejoin:round;">
<text x="33464.6" y="78605.2"
textLength="546.494" font-size="682.415" lengthAdjust="spacingAndGlyphs"
text-anchor="start" opacity="0">2</text>
<path d="M33591 78117
L33615 78093
L33664 78069
L33786 78069
L33835 78093
L33859 78117
L33884 78166
L33884 78215
L33859 78288
L33567 78580
L33884 78580
" />
</g>
<g style="fill:#000000; fill-opacity:0.0; 
stroke:#000000; stroke-width:39.3701; stroke-opacity:1; 
stroke-linecap:round; stroke-linejoin:round;">
</g>
<g style="fill:#000000; fill-opacity:0.0; 
stroke:#000000; stroke-width:59.0551; stroke-opacity:1; 
stroke-linecap:round; stroke-linejoin:round;">
<text x="53149.6" y="78605.2"
textLength="546.494" font-size="682.415" lengthAdjust="spacingAndGlyphs"
text-anchor="start" opacity="0">3</text>
<path d="M53252 78069
L53569 78069
L53398 78263
L53471 78263
L53520 78288
L53544 78312
L53569 78361
L53569 78483
L53544 78532
L53520 78556
L53471 78580
L53325 78580
L53276 78556
L53252 78532
" />
</g>
<g style="fill:#000000; fill-opacity:0.0; 
stroke:#000000; stroke-width:39.3701; stroke-opacity:1; 
stroke-linecap:round; stroke-linejoin:round;">
</g>
<g style="fill:#000000; fill-opacity:0.0; 
stroke:#000000; stroke-width:59.0551; stroke-opacity:1; 
stroke-linecap:round; stroke-linejoin:round;">
<text x="72834.6" y="78605.2"
textLength="546.494" font-size="682.415" lengthAdjust="spacingAndGlyphs"
text-anchor="start" opacity="0">4</text>
<path d="M73205 78239
L73205 78580
" />
<path d="M73083 78044
L72961 78410
L73278 78410
" />
</g>
<g style="fill:#000000; fill-opacity:0.0; 
stroke:#000000; stroke-width:39.3701; stroke-opacity:1; 
stroke-linecap:round; stroke-linejoin:round;">
</g>
<g style="fill:#000000; fill-opacity:0.0; 
stroke:#000000; stroke-width:59.0551; stroke-opacity:1; 
stroke-linecap:round; stroke-linejoin:round;">
<text x="92519.7" y="78605.2"
textLength="546.494" font-size="682.415" lengthAdjust="spacingAndGlyphs"
text-anchor="start" opacity="0">5</text>
<path d="M92914 78069
L92671 78069
L92646 78312
L92671 78288
L92719 78263
L92841 78263
L92890 78288
L92914 78312
L92939 78361
L92939 78483
L92914 78532
L92890 78556
L92841 78580
L92719 78580
L92671 78556
L92646 78532
" />
</g>
<g style="fill:#000000; fill-opacity:0.0; 
stroke:#000000; stroke-width:39.3701; stroke-opacity:1; 
stroke-linecap:round; stroke-linejoin:round;">
</g>
<g style="fill:#000000; fill-opacity:0.0; 
stroke:#000000; stroke-width:59.0551; stroke-opacity:1; 
stroke-linecap:round; stroke-linejoin:round;">
<text x="112205" y="78605.2"
textLength="546.494" font-size="682.415" lengthAdjust="spacingAndGlyphs"
text-anchor="start" opacity="0">6</text>
<path d="M112575 78069
L112477 78069
L112429 78093
L112404 78117
L112356 78190
L112331 78288
L112331 78483
L112356 78532
L112380 78556
L112429 78580
L112526 78580
L112575 78556
L112599 78532
L112624 78483
L112624 78361
L112599 78312
L112575 78288
L112526 78263
L112429 78263
L112380 78288
L112356 78312
L112331 78361
" />
</g>
<g style="fill:#000000; fill-opacity:0.0; 
stroke:#000000; stroke-width:39.3701; stroke-opacity:1; 
stroke-linecap:round; stroke-linejoin:round;">
</g>
<g style="fill:#000000; fill-opacity:0.0; 
stroke:#000000; stroke-width:59.0551; stroke-opacity:1; 
stroke-linecap:round; stroke-linejoin:round;">
<path d="M3937 23622
L4724 23622
" />
</g>
<g style="fill:#000000; fill-opacity:0.0; 
stroke:#000000; stroke-width:39.3701; stroke-opacity:1; 
stroke-linecap:round; stroke-linejoin:round;">
</g>
<g style="fill:#000000; fill-opacity:0.0; 
stroke:#000000; stroke-width:59.0551; stroke-opacity:1; 
stroke-linecap:round; stroke-linejoin:round;">
<path d="M3937 43307
L4724 43307
" />
</g>
<g style="fill:#000000; fill-opacity:0.0; 
stroke:#000000; stroke-width:39.3701; stroke-opacity:1; 
stroke-linecap:round; stroke-linejoin:round;">
</g>
<g style="fill:#000000; fill-opacity:0.0; 
stroke:#000000; stroke-width:59.0551; stroke-opacity:1; 
stroke-linecap:round; stroke-linejoin:round;">
<path d="M3937 62992
L4724 62992
" />
</g>
<g style="fill:#000000; fill-opacity:0.0; 
stroke:#000000; stroke-width:39.3701; stroke-opacity:1; 
stroke-linecap:round; stroke-linejoin:round;">
</g>
<g style="fill:#000000; fill-opacity:0.0; 
stroke:#000000; stroke-width:59.0551; stroke-opacity:1; 
stroke-linecap:round; stroke-linejoin:round;">
<text x="4330.71" y="14035.4"
textLength="497.75" font-size="682.415" lengthAdjust="spacingAndGlyphs"
text-anchor="middle" opacity="0">A</text>
<path d="M4208 13864
L4452 13864
" />
<path d="M4160 14011
L4330 13499
L4501 14011
" />
</g>
<g style="fill:#000000; fill-opacity:0.0; 
stroke:#000000; stroke-width:39.3701; stroke-opacity:1; 
stroke-linecap:round; stroke-linejoin:round;">
</g>
<g style="fill:#000000; fill-opacity:0.0; 
stroke:#000000; stroke-width:59.0551; stroke-opacity:1; 
stroke-linecap:round; stroke-linejoin:round;">
<text x="4330.71" y="33720.5"
textLength="570.866" font-size="682.415" lengthAdjust="spacingAndGlyphs"
text-anchor="middle" opacity="0">B</text>
<path d="M4367 33428
L4440 33452
L4464 33476
L4489 33525
L4489 33598
L4464 33647
L4440 33671
L4391 33696
L4196 33696
L4196 33184
L4367 33184
L4416 33208
L4440 33233
L4464 33281
L4464 33330
L4440 33379
L4416 33403
L4367 33428
L4196 33428
" />
</g>
<g style="fill:#000000; fill-opacity:0.0; 
stroke:#000000; stroke-width:39.3701; stroke-opacity:1; 
stroke-linecap:round; stroke-linejoin:round;">
</g>
<g style="fill:#000000; fill-opacity:0.0; 
stroke:#000000; stroke-width:59.0551; stroke-opacity:1; 
stroke-linecap:round; stroke-linejoin:round;">
<text x="4330.71" y="53405.5"
textLength="570.866" font-size="682.415" lengthAdjust="spacingAndGlyphs"
text-anchor="middle" opacity="0">C</text>
<path d="M4489 53332
L4464 53356
L4391 53381
L4342 53381
L4269 53356
L4221 53308
L4196 53259
L4172 53161
L4172 53088
L4196 52991
L4221 52942
L4269 52893
L4342 52869
L4391 52869
L4464 52893
L4489 52918
" />
</g>
<g style="fill:#000000; fill-opacity:0.0; 
stroke:#000000; stroke-width:39.3701; stroke-opacity:1; 
stroke-linecap:round; stroke-linejoin:round;">
</g>
<g style="fill:#000000; fill-opacity:0.0; 
stroke:#000000; stroke-width:59.0551; stroke-opacity:1; 
stroke-linecap:round; stroke-linejoin:round;">
<text x="4330.71" y="73090.6"
textLength="570.866" font-size="682.415" lengthAdjust="spacingAndGlyphs"
text-anchor="middle" opacity="0">D</text>
<path d="M4196 73066
L4196 72554
L4318 72554
L4391 72578
L4440 72627
L4464 72676
L4489 72773
L4489 72846
L4464 72944
L4440 72993
L4391 73041
L4318 73066
L4196 73066
" />
</g>
<g style="fill:#000000; fill-opacity:0.0; 
stroke:#000000; stroke-width:39.3701; stroke-opacity:1; 
stroke-linecap:round; stroke-linejoin:round;">
</g>
<g style="fill:#000000; fill-opacity:0.0; 
stroke:#000000; stroke-width:59.0551; stroke-opacity:1; 
stroke-linecap:round; stroke-linejoin:round;">
<path d="M112992 23622
L112205 23622
" />
</g>
<g style="fill:#000000; fill-opacity:0.0; 
stroke:#000000; stroke-width:39.3701; stroke-opacity:1; 
stroke-linecap:round; stroke-linejoin:round;">
</g>
<g style="fill:#000000; fill-opacity:0.0; 
stroke:#000000; stroke-width:59.0551; stroke-opacity:1; 
stroke-linecap:round; stroke-linejoin:round;">
<path d="M112992 43307
L112205 43307
" />
</g>
<g style="fill:#000000; fill-opacity:0.0; 
stroke:#000000; stroke-width:39.3701; stroke-opacity:1; 
stroke-linecap:round; stroke-linejoin:round;">
</g>
<g style="fill:#000000; fill-opacity:0.0; 
stroke:#000000; stroke-width:59.0551; stroke-opacity:1; 
stroke-linecap:round; stroke-linejoin:round;">
<path d="M112992 62992
L112205 62992
" />
</g>
<g style="fill:#000000; fill-opacity:0.0; 
stroke:#000000; stroke-width:39.3701; stroke-opacity:1; 
stroke-linecap:round; stroke-linejoin:round;">
</g>
<g style="fill:#000000; fill-opacity:0.0; 
stroke:#000000; stroke-width:59.0551; stroke-opacity:1; 
stroke-linecap:round; stroke-linejoin:round;">
<text x="112599" y="14035.4"
textLength="497.75" font-size="682.415" lengthAdjust="spacingAndGlyphs"
text-anchor="middle" opacity="0">A</text>
<path d="M112477 13864
L112721 13864
" />
<path d="M112428 14011
L112599 13499
L112769 14011
" />
</g>
<g style="fill:#000000; fill-opacity:0.0; 
stroke:#000000; stroke-width:39.3701; stroke-opacity:1; 
stroke-linecap:round; stroke-linejoin:round;">
</g>
<g style="fill:#000000; fill-opacity:0.0; 
stroke:#000000; stroke-width:59.0551; stroke-opacity:1; 
stroke-linecap:round; stroke-linejoin:round;">
<text x="112599" y="33720.5"
textLength="570.866" font-size="682.415" lengthAdjust="spacingAndGlyphs"
text-anchor="middle" opacity="0">B</text>
<path d="M112635 33428
L112708 33452
L112733 33476
L112757 33525
L112757 33598
L112733 33647
L112708 33671
L112660 33696
L112465 33696
L112465 33184
L112635 33184
L112684 33208
L112708 33233
L112733 33281
L112733 33330
L112708 33379
L112684 33403
L112635 33428
L112465 33428
" />
</g>
<g style="fill:#000000; fill-opacity:0.0; 
stroke:#000000; stroke-width:39.3701; stroke-opacity:1; 
stroke-linecap:round; stroke-linejoin:round;">
</g>
<g style="fill:#000000; fill-opacity:0.0; 
stroke:#000000; stroke-width:59.0551; stroke-opacity:1; 
stroke-linecap:round; stroke-linejoin:round;">
<text x="112599" y="53405.5"
textLength="570.866" font-size="682.415" lengthAdjust="spacingAndGlyphs"
text-anchor="middle" opacity="0">C</text>
<path d="M112757 53332
L112733 53356
L112660 53381
L112611 53381
L112538 53356
L112489 53308
L112465 53259
L112440 53161
L112440 53088
L112465 52991
L112489 52942
L112538 52893
L112611 52869
L112660 52869
L112733 52893
L112757 52918
" />
</g>
<g style="fill:#000000; fill-opacity:0.0; 
stroke:#000000; stroke-width:39.3701; stroke-opacity:1; 
stroke-linecap:round; stroke-linejoin:round;">
</g>
<g style="fill:#000000; fill-opacity:0.0; 
stroke:#000000; stroke-width:59.0551; stroke-opacity:1; 
stroke-linecap:round; stroke-linejoin:round;">
<text x="112599" y="73090.6"
textLength="570.866" font-size="682.415" lengthAdjust="spacingAndGlyphs"
text-anchor="middle" opacity="0">D</text>
<path d="M112465 73066
L112465 72554
L112587 72554
L112660 72578
L112708 72627
L112733 72676
L112757 72773
L112757 72846
L112733 72944
L112708 72993
L112660 73041
L112587 73066
L112465 73066
" />
</g>
<g style="fill:#000000; fill-opacity:0.0; 
stroke:#000000; stroke-width:39.3701; stroke-opacity:1; 
stroke-linecap:round; stroke-linejoin:round;">
</g>
<g style="fill:#000000; fill-opacity:0.0; 
stroke:#000000; stroke-width:59.0551; stroke-opacity:1; 
stroke-linecap:round; stroke-linejoin:round;">
<text x="78741" y="76321.7"
textLength="2758.72" font-size="787.402" lengthAdjust="spacingAndGlyphs"
text-anchor="start" opacity="0">Date: </text>
<path d="M78911 76293
L78911 75703
L79051 75703
L79136 75731
L79192 75787
L79220 75843
L79248 75956
L79248 76040
L79220 76153
L79192 76209
L79136 76265
L79051 76293
L78911 76293
" />
<path d="M79754 76293
L79754 75984
L79726 75928
L79670 75899
L79557 75899
L79501 75928
" />
<path d="M79754 76265
L79698 76293
L79557 76293
L79501 76265
L79473 76209
L79473 76153
L79501 76096
L79557 76068
L79698 76068
L79754 76040
" />
<path d="M79951 75899
L80176 75899
" />
<path d="M80036 75703
L80036 76209
L80064 76265
L80120 76293
L80176 76293
" />
<path d="M80598 76265
L80542 76293
L80429 76293
L80373 76265
L80345 76209
L80345 75984
L80373 75928
L80429 75899
L80542 75899
L80598 75928
L80626 75984
L80626 76040
L80345 76096
" />
<path d="M80879 76237
L80907 76265
L80879 76293
L80851 76265
L80879 76237
L80879 76293
" />
<path d="M80879 75928
L80907 75956
L80879 75984
L80851 75956
L80879 75928
L80879 75984
" />
</g>
<g style="fill:#000000; fill-opacity:0.0; 
stroke:#000000; stroke-width:39.3701; stroke-opacity:1; 
stroke-linecap:round; stroke-linejoin:round;">
</g>
<g style="fill:#000000; fill-opacity:0.0; 
stroke:#000000; stroke-width:59.0551; stroke-opacity:1; 
stroke-linecap:round; stroke-linejoin:round;">
<path d="M69685 76577
L112205 76577
" />
</g>
<g style="fill:#000000; fill-opacity:0.0; 
stroke:#000000; stroke-width:39.3701; stroke-opacity:1; 
stroke-linecap:round; stroke-linejoin:round;">
</g>
<g style="fill:#000000; fill-opacity:0.0; 
stroke:#000000; stroke-width:59.0551; stroke-opacity:1; 
stroke-linecap:round; stroke-linejoin:round;">
<text x="70079.6" y="77424.1"
textLength="18675.5" font-size="787.402" lengthAdjust="spacingAndGlyphs"
text-anchor="start" opacity="0">KiCad E.D.A.  kicad 5.1.5+dfsg1-2build2</text>
<path d="M70249 77395
L70249 76805
" />
<path d="M70587 77395
L70334 77058
" />
<path d="M70587 76805
L70249 77142
" />
<path d="M70840 77395
L70840 77002
" />
<path d="M70840 76805
L70812 76833
L70840 76861
L70868 76833
L70840 76805
L70840 76861
" />
<path d="M71458 77339
L71430 77367
L71346 77395
L71290 77395
L71205 77367
L71149 77311
L71121 77255
L71093 77142
L71093 77058
L71121 76946
L71149 76889
L71205 76833
L71290 76805
L71346 76805
L71430 76833
L71458 76861
" />
<path d="M71965 77395
L71965 77086
L71937 77030
L71880 77002
L71768 77002
L71712 77030
" />
<path d="M71965 77367
L71908 77395
L71768 77395
L71712 77367
L71683 77311
L71683 77255
L71712 77199
L71768 77171
L71908 77171
L71965 77142
" />
<path d="M72499 77395
L72499 76805
" />
<path d="M72499 77367
L72443 77395
L72330 77395
L72274 77367
L72246 77339
L72218 77283
L72218 77114
L72246 77058
L72274 77030
L72330 77002
L72443 77002
L72499 77030
" />
<path d="M73230 77086
L73427 77086
" />
<path d="M73511 77395
L73230 77395
L73230 76805
L73511 76805
" />
<path d="M73764 77339
L73793 77367
L73764 77395
L73736 77367
L73764 77339
L73764 77395
" />
<path d="M74046 77395
L74046 76805
L74186 76805
L74271 76833
L74327 76889
L74355 76946
L74383 77058
L74383 77142
L74355 77255
L74327 77311
L74271 77367
L74186 77395
L74046 77395
" />
<path d="M74636 77339
L74664 77367
L74636 77395
L74608 77367
L74636 77339
L74636 77395
" />
<path d="M74889 77227
L75171 77227
" />
<path d="M74833 77395
L75030 76805
L75227 77395
" />
<path d="M75424 77339
L75452 77367
L75424 77395
L75395 77367
L75424 77339
L75424 77395
" />
<path d="M76605 77395
L76605 76805
" />
<path d="M76661 77171
L76830 77395
" />
<path d="M76830 77002
L76605 77227
" />
<path d="M77083 77395
L77083 77002
" />
<path d="M77083 76805
L77055 76833
L77083 76861
L77111 76833
L77083 76805
L77083 76861
" />
<path d="M77617 77367
L77561 77395
L77448 77395
L77392 77367
L77364 77339
L77336 77283
L77336 77114
L77364 77058
L77392 77030
L77448 77002
L77561 77002
L77617 77030
" />
<path d="M78123 77395
L78123 77086
L78095 77030
L78039 77002
L77926 77002
L77870 77030
" />
<path d="M78123 77367
L78067 77395
L77926 77395
L77870 77367
L77842 77311
L77842 77255
L77870 77199
L77926 77171
L78067 77171
L78123 77142
" />
<path d="M78658 77395
L78658 76805
" />
<path d="M78658 77367
L78601 77395
L78489 77395
L78433 77367
L78404 77339
L78376 77283
L78376 77114
L78404 77058
L78433 77030
L78489 77002
L78601 77002
L78658 77030
" />
<path d="M79670 76805
L79389 76805
L79361 77086
L79389 77058
L79445 77030
L79586 77030
L79642 77058
L79670 77086
L79698 77142
L79698 77283
L79670 77339
L79642 77367
L79586 77395
L79445 77395
L79389 77367
L79361 77339
" />
<path d="M79951 77339
L79979 77367
L79951 77395
L79923 77367
L79951 77339
L79951 77395
" />
<path d="M80542 77395
L80204 77395
" />
<path d="M80373 77395
L80373 76805
L80317 76889
L80260 76946
L80204 76974
" />
<path d="M80795 77339
L80823 77367
L80795 77395
L80767 77367
L80795 77339
L80795 77395
" />
<path d="M81357 76805
L81076 76805
L81048 77086
L81076 77058
L81132 77030
L81273 77030
L81329 77058
L81357 77086
L81385 77142
L81385 77283
L81357 77339
L81329 77367
L81273 77395
L81132 77395
L81076 77367
L81048 77339
" />
<path d="M81638 77171
L82088 77171
" />
<path d="M81863 77395
L81863 76946
" />
<path d="M82623 77395
L82623 76805
" />
<path d="M82623 77367
L82566 77395
L82454 77395
L82398 77367
L82370 77339
L82341 77283
L82341 77114
L82370 77058
L82398 77030
L82454 77002
L82566 77002
L82623 77030
" />
<path d="M82820 77002
L83045 77002
" />
<path d="M82904 77395
L82904 76889
L82932 76833
L82988 76805
L83045 76805
" />
<path d="M83213 77367
L83269 77395
L83382 77395
L83438 77367
L83466 77311
L83466 77283
L83438 77227
L83382 77199
L83298 77199
L83241 77171
L83213 77114
L83213 77086
L83241 77030
L83298 77002
L83382 77002
L83438 77030
" />
<path d="M83973 77002
L83973 77480
L83944 77536
L83916 77564
L83860 77592
L83776 77592
L83719 77564
" />
<path d="M83973 77367
L83916 77395
L83804 77395
L83748 77367
L83719 77339
L83691 77283
L83691 77114
L83719 77058
L83748 77030
L83804 77002
L83916 77002
L83973 77030
" />
<path d="M84563 77395
L84226 77395
" />
<path d="M84394 77395
L84394 76805
L84338 76889
L84282 76946
L84226 76974
" />
<path d="M84816 77171
L85266 77171
" />
<path d="M85519 76861
L85547 76833
L85604 76805
L85744 76805
L85800 76833
L85829 76861
L85857 76917
L85857 76974
L85829 77058
L85491 77395
L85857 77395
" />
<path d="M86110 77395
L86110 76805
" />
<path d="M86110 77030
L86166 77002
L86278 77002
L86335 77030
L86363 77058
L86391 77114
L86391 77283
L86363 77339
L86335 77367
L86278 77395
L86166 77395
L86110 77367
" />
<path d="M86897 77002
L86897 77395
" />
<path d="M86644 77002
L86644 77311
L86672 77367
L86728 77395
L86813 77395
L86869 77367
L86897 77339
" />
<path d="M87178 77395
L87178 77002
" />
<path d="M87178 76805
L87150 76833
L87178 76861
L87206 76833
L87178 76805
L87178 76861
" />
<path d="M87544 77395
L87488 77367
L87460 77311
L87460 76805
" />
<path d="M88022 77395
L88022 76805
" />
<path d="M88022 77367
L87966 77395
L87853 77395
L87797 77367
L87769 77339
L87741 77283
L87741 77114
L87769 77058
L87797 77030
L87853 77002
L87966 77002
L88022 77030
" />
<path d="M88275 76861
L88303 76833
L88359 76805
L88500 76805
L88556 76833
L88584 76861
L88613 76917
L88613 76974
L88584 77058
L88247 77395
L88613 77395
" />
</g>
<g style="fill:#000000; fill-opacity:0.0; 
stroke:#000000; stroke-width:39.3701; stroke-opacity:1; 
stroke-linecap:round; stroke-linejoin:round;">
</g>
<g style="fill:#000000; fill-opacity:0.0; 
stroke:#000000; stroke-width:59.0551; stroke-opacity:1; 
stroke-linecap:round; stroke-linejoin:round;">
<path d="M69685 75396
L112205 75396
" />
</g>
<g style="fill:#000000; fill-opacity:0.0; 
stroke:#000000; stroke-width:39.3701; stroke-opacity:1; 
stroke-linecap:round; stroke-linejoin:round;">
</g>
<g style="fill:#000000; fill-opacity:0.0; 
stroke:#000000; stroke-width:118.11; stroke-opacity:1; 
stroke-linecap:round; stroke-linejoin:round;">
<text x="103544" y="76321.7"
textLength="2336.9" font-size="787.402" lengthAdjust="spacingAndGlyphs"
text-anchor="start" opacity="0">Rev: </text>
<path d="M104099 76293
L103902 76012
" />
<path d="M103761 76293
L103761 75703
L103986 75703
L104042 75731
L104070 75759
L104099 75815
L104099 75899
L104070 75956
L104042 75984
L103986 76012
L103761 76012
" />
<path d="M104577 76265
L104520 76293
L104408 76293
L104352 76265
L104323 76209
L104323 75984
L104352 75928
L104408 75899
L104520 75899
L104577 75928
L104605 75984
L104605 76040
L104323 76096
" />
<path d="M104802 75899
L104942 76293
L105083 75899
" />
<path d="M105308 76237
L105336 76265
L105308 76293
L105280 76265
L105308 76237
L105308 76293
" />
<path d="M105308 75928
L105336 75956
L105308 75984
L105280 75956
L105308 75928
L105308 75984
" />
</g>
<g style="fill:#000000; fill-opacity:0.0; 
stroke:#000000; stroke-width:39.3701; stroke-opacity:1; 
stroke-linecap:round; stroke-linejoin:round;">
</g>
<g style="fill:#000000; fill-opacity:0.0; 
stroke:#000000; stroke-width:59.0551; stroke-opacity:1; 
stroke-linecap:round; stroke-linejoin:round;">
<text x="70079.6" y="76321.7"
textLength="3781.21" font-size="787.402" lengthAdjust="spacingAndGlyphs"
text-anchor="start" opacity="0">Size: A4</text>
<path d="M70221 76265
L70305 76293
L70446 76293
L70502 76265
L70530 76237
L70559 76181
L70559 76124
L70530 76068
L70502 76040
L70446 76012
L70334 75984
L70277 75956
L70249 75928
L70221 75871
L70221 75815
L70249 75759
L70277 75731
L70334 75703
L70474 75703
L70559 75731
" />
<path d="M70812 76293
L70812 75899
" />
<path d="M70812 75703
L70784 75731
L70812 75759
L70840 75731
L70812 75703
L70812 75759
" />
<path d="M71037 75899
L71346 75899
L71037 76293
L71346 76293
" />
<path d="M71796 76265
L71740 76293
L71627 76293
L71571 76265
L71543 76209
L71543 75984
L71571 75928
L71627 75899
L71740 75899
L71796 75928
L71824 75984
L71824 76040
L71543 76096
" />
<path d="M72077 76237
L72105 76265
L72077 76293
L72049 76265
L72077 76237
L72077 76293
" />
<path d="M72077 75928
L72105 75956
L72077 75984
L72049 75956
L72077 75928
L72077 75984
" />
<path d="M72780 76124
L73061 76124
" />
<path d="M72724 76293
L72921 75703
L73118 76293
" />
<path d="M73568 75899
L73568 76293
" />
<path d="M73427 75674
L73286 76096
L73652 76096
" />
</g>
<g style="fill:#000000; fill-opacity:0.0; 
stroke:#000000; stroke-width:39.3701; stroke-opacity:1; 
stroke-linecap:round; stroke-linejoin:round;">
</g>
<g style="fill:#000000; fill-opacity:0.0; 
stroke:#000000; stroke-width:59.0551; stroke-opacity:1; 
stroke-linecap:round; stroke-linejoin:round;">
<text x="103544" y="77424.1"
textLength="3349.27" font-size="787.402" lengthAdjust="spacingAndGlyphs"
text-anchor="start" opacity="0">Id: 1/1</text>
<path d="M103714 77395
L103714 76805
" />
<path d="M104248 77395
L104248 76805
" />
<path d="M104248 77367
L104192 77395
L104079 77395
L104023 77367
L103995 77339
L103967 77283
L103967 77114
L103995 77058
L104023 77030
L104079 77002
L104192 77002
L104248 77030
" />
<path d="M104529 77339
L104557 77367
L104529 77395
L104501 77367
L104529 77339
L104529 77395
" />
<path d="M104529 77030
L104557 77058
L104529 77086
L104501 77058
L104529 77030
L104529 77086
" />
<path d="M105570 77395
L105232 77395
" />
<path d="M105401 77395
L105401 76805
L105345 76889
L105289 76946
L105232 76974
" />
<path d="M106245 76777
L105739 77536
" />
<path d="M106751 77395
L106413 77395
" />
<path d="M106582 77395
L106582 76805
L106526 76889
L106470 76946
L106413 76974
" />
</g>
<g style="fill:#000000; fill-opacity:0.0; 
stroke:#000000; stroke-width:39.3701; stroke-opacity:1; 
stroke-linecap:round; stroke-linejoin:round;">
</g>
<g style="fill:#000000; fill-opacity:0.0; 
stroke:#000000; stroke-width:59.0551; stroke-opacity:1; 
stroke-linecap:round; stroke-linejoin:round;">
<path d="M69685 73821
L112205 73821
" />
</g>
<g style="fill:#000000; fill-opacity:0.0; 
stroke:#000000; stroke-width:39.3701; stroke-opacity:1; 
stroke-linecap:round; stroke-linejoin:round;">
</g>
<g style="fill:#000000; fill-opacity:0.0; 
stroke:#000000; stroke-width:157.48; stroke-opacity:1; 
stroke-linecap:round; stroke-linejoin:round;">
<text x="70079.6" y="74924.1"
textLength="3701.14" font-size="1049.87" lengthAdjust="spacingAndGlyphs"
text-anchor="start" opacity="0">Title: </text>
<path d="M70360 74099
L70810 74099
" />
<path d="M70486 74886
L70585 74099
" />
<path d="M70974 74886
L71039 74361
" />
<path d="M71072 74099
L71030 74136
L71063 74174
L71105 74136
L71072 74099
L71063 74174
" />
<path d="M71302 74361
L71602 74361
" />
<path d="M71447 74099
L71363 74774
L71391 74849
L71461 74886
L71536 74886
" />
<path d="M71911 74886
L71841 74849
L71813 74774
L71897 74099
" />
<path d="M72516 74849
L72436 74886
L72286 74886
L72216 74849
L72187 74774
L72225 74474
L72272 74399
L72352 74361
L72501 74361
L72572 74399
L72600 74474
L72591 74549
L72206 74624
" />
<path d="M72895 74811
L72928 74849
L72886 74886
L72853 74849
L72895 74811
L72886 74886
" />
<path d="M72947 74399
L72980 74436
L72937 74474
L72905 74436
L72947 74399
L72937 74474
" />
</g>
<g style="fill:#000000; fill-opacity:0.0; 
stroke:#000000; stroke-width:39.3701; stroke-opacity:1; 
stroke-linecap:round; stroke-linejoin:round;">
</g>
<g style="fill:#000000; fill-opacity:0.0; 
stroke:#000000; stroke-width:59.0551; stroke-opacity:1; 
stroke-linecap:round; stroke-linejoin:round;">
<text x="70079.6" y="73408.3"
textLength="14490.4" font-size="787.402" lengthAdjust="spacingAndGlyphs"
text-anchor="start" opacity="0">File: Can_prototypage.kicad_pcb</text>
<path d="M70446 73070
L70249 73070
" />
<path d="M70249 73380
L70249 72789
L70530 72789
" />
<path d="M70755 73380
L70755 72986
" />
<path d="M70755 72789
L70727 72817
L70755 72845
L70784 72817
L70755 72789
L70755 72845
" />
<path d="M71121 73380
L71065 73352
L71037 73295
L71037 72789
" />
<path d="M71571 73352
L71515 73380
L71402 73380
L71346 73352
L71318 73295
L71318 73070
L71346 73014
L71402 72986
L71515 72986
L71571 73014
L71599 73070
L71599 73127
L71318 73183
" />
<path d="M71852 73323
L71880 73352
L71852 73380
L71824 73352
L71852 73323
L71852 73380
" />
<path d="M71852 73014
L71880 73042
L71852 73070
L71824 73042
L71852 73014
L71852 73070
" />
<path d="M72921 73323
L72893 73352
L72808 73380
L72752 73380
L72668 73352
L72611 73295
L72583 73239
L72555 73127
L72555 73042
L72583 72930
L72611 72874
L72668 72817
L72752 72789
L72808 72789
L72893 72817
L72921 72845
" />
<path d="M73427 73380
L73427 73070
L73399 73014
L73343 72986
L73230 72986
L73174 73014
" />
<path d="M73427 73352
L73371 73380
L73230 73380
L73174 73352
L73146 73295
L73146 73239
L73174 73183
L73230 73155
L73371 73155
L73427 73127
" />
<path d="M73708 72986
L73708 73380
" />
<path d="M73708 73042
L73736 73014
L73793 72986
L73877 72986
L73933 73014
L73961 73070
L73961 73380
" />
<path d="M74102 73436
L74552 73436
" />
<path d="M74692 72986
L74692 73577
" />
<path d="M74692 73014
L74749 72986
L74861 72986
L74917 73014
L74946 73042
L74974 73099
L74974 73267
L74946 73323
L74917 73352
L74861 73380
L74749 73380
L74692 73352
" />
<path d="M75227 73380
L75227 72986
" />
<path d="M75227 73099
L75255 73042
L75283 73014
L75339 72986
L75395 72986
" />
<path d="M75677 73380
L75620 73352
L75592 73323
L75564 73267
L75564 73099
L75592 73042
L75620 73014
L75677 72986
L75761 72986
L75817 73014
L75845 73042
L75874 73099
L75874 73267
L75845 73323
L75817 73352
L75761 73380
L75677 73380
" />
<path d="M76042 72986
L76267 72986
" />
<path d="M76127 72789
L76127 73295
L76155 73352
L76211 73380
L76267 73380
" />
<path d="M76548 73380
L76492 73352
L76464 73323
L76436 73267
L76436 73099
L76464 73042
L76492 73014
L76548 72986
L76633 72986
L76689 73014
L76717 73042
L76745 73099
L76745 73267
L76717 73323
L76689 73352
L76633 73380
L76548 73380
" />
<path d="M76914 72986
L77139 72986
" />
<path d="M76998 72789
L76998 73295
L77027 73352
L77083 73380
L77139 73380
" />
<path d="M77280 72986
L77420 73380
" />
<path d="M77561 72986
L77420 73380
L77364 73520
L77336 73548
L77280 73577
" />
<path d="M77786 72986
L77786 73577
" />
<path d="M77786 73014
L77842 72986
L77955 72986
L78011 73014
L78039 73042
L78067 73099
L78067 73267
L78039 73323
L78011 73352
L77955 73380
L77842 73380
L77786 73352
" />
<path d="M78573 73380
L78573 73070
L78545 73014
L78489 72986
L78376 72986
L78320 73014
" />
<path d="M78573 73352
L78517 73380
L78376 73380
L78320 73352
L78292 73295
L78292 73239
L78320 73183
L78376 73155
L78517 73155
L78573 73127
" />
<path d="M79108 72986
L79108 73464
L79079 73520
L79051 73548
L78995 73577
L78911 73577
L78854 73548
" />
<path d="M79108 73352
L79051 73380
L78939 73380
L78883 73352
L78854 73323
L78826 73267
L78826 73099
L78854 73042
L78883 73014
L78939 72986
L79051 72986
L79108 73014
" />
<path d="M79614 73352
L79557 73380
L79445 73380
L79389 73352
L79361 73295
L79361 73070
L79389 73014
L79445 72986
L79557 72986
L79614 73014
L79642 73070
L79642 73127
L79361 73183
" />
<path d="M79895 73323
L79923 73352
L79895 73380
L79867 73352
L79895 73323
L79895 73380
" />
<path d="M80176 73380
L80176 72789
" />
<path d="M80232 73155
L80401 73380
" />
<path d="M80401 72986
L80176 73211
" />
<path d="M80654 73380
L80654 72986
" />
<path d="M80654 72789
L80626 72817
L80654 72845
L80682 72817
L80654 72789
L80654 72845
" />
<path d="M81188 73352
L81132 73380
L81020 73380
L80964 73352
L80935 73323
L80907 73267
L80907 73099
L80935 73042
L80964 73014
L81020 72986
L81132 72986
L81188 73014
" />
<path d="M81695 73380
L81695 73070
L81667 73014
L81610 72986
L81498 72986
L81442 73014
" />
<path d="M81695 73352
L81638 73380
L81498 73380
L81442 73352
L81413 73295
L81413 73239
L81442 73183
L81498 73155
L81638 73155
L81695 73127
" />
<path d="M82229 73380
L82229 72789
" />
<path d="M82229 73352
L82173 73380
L82060 73380
L82004 73352
L81976 73323
L81948 73267
L81948 73099
L81976 73042
L82004 73014
L82060 72986
L82173 72986
L82229 73014
" />
<path d="M82370 73436
L82820 73436
" />
<path d="M82960 72986
L82960 73577
" />
<path d="M82960 73014
L83016 72986
L83129 72986
L83185 73014
L83213 73042
L83241 73099
L83241 73267
L83213 73323
L83185 73352
L83129 73380
L83016 73380
L82960 73352
" />
<path d="M83748 73352
L83691 73380
L83579 73380
L83523 73352
L83494 73323
L83466 73267
L83466 73099
L83494 73042
L83523 73014
L83579 72986
L83691 72986
L83748 73014
" />
<path d="M84001 73380
L84001 72789
" />
<path d="M84001 73014
L84057 72986
L84169 72986
L84226 73014
L84254 73042
L84282 73099
L84282 73267
L84254 73323
L84226 73352
L84169 73380
L84057 73380
L84001 73352
" />
</g>
<g style="fill:#000000; fill-opacity:0.0; 
stroke:#000000; stroke-width:39.3701; stroke-opacity:1; 
stroke-linecap:round; stroke-linejoin:round;">
</g>
<g style="fill:#000000; fill-opacity:0.0; 
stroke:#000000; stroke-width:59.0551; stroke-opacity:1; 
stroke-linecap:round; stroke-linejoin:round;">
<path d="M69685 71459
L112205 71459
" />
</g>
<g style="fill:#000000; fill-opacity:0.0; 
stroke:#000000; stroke-width:39.3701; stroke-opacity:1; 
stroke-linecap:round; stroke-linejoin:round;">
</g>
<g style="fill:#000000; fill-opacity:0.0; 
stroke:#000000; stroke-width:59.0551; stroke-opacity:1; 
stroke-linecap:round; stroke-linejoin:round;">
<text x="70079.6" y="72345.4"
textLength="3236.78" font-size="787.402" lengthAdjust="spacingAndGlyphs"
text-anchor="start" opacity="0">Sheet: </text>
<path d="M70221 72289
L70305 72317
L70446 72317
L70502 72289
L70530 72260
L70559 72204
L70559 72148
L70530 72092
L70502 72064
L70446 72036
L70334 72007
L70277 71979
L70249 71951
L70221 71895
L70221 71839
L70249 71782
L70277 71754
L70334 71726
L70474 71726
L70559 71754
" />
<path d="M70812 72317
L70812 71726
" />
<path d="M71065 72317
L71065 72007
L71037 71951
L70980 71923
L70896 71923
L70840 71951
L70812 71979
" />
<path d="M71571 72289
L71515 72317
L71402 72317
L71346 72289
L71318 72232
L71318 72007
L71346 71951
L71402 71923
L71515 71923
L71571 71951
L71599 72007
L71599 72064
L71318 72120
" />
<path d="M72077 72289
L72021 72317
L71908 72317
L71852 72289
L71824 72232
L71824 72007
L71852 71951
L71908 71923
L72021 71923
L72077 71951
L72105 72007
L72105 72064
L71824 72120
" />
<path d="M72274 71923
L72499 71923
" />
<path d="M72358 71726
L72358 72232
L72386 72289
L72443 72317
L72499 72317
" />
<path d="M72696 72260
L72724 72289
L72696 72317
L72668 72289
L72696 72260
L72696 72317
" />
<path d="M72696 71951
L72724 71979
L72696 72007
L72668 71979
L72696 71951
L72696 72007
" />
</g>
<g style="fill:#000000; fill-opacity:0.0; 
stroke:#000000; stroke-width:39.3701; stroke-opacity:1; 
stroke-linecap:round; stroke-linejoin:round;">
</g>
<g style="fill:#000000; fill-opacity:0.0; 
stroke:#000000; stroke-width:59.0551; stroke-opacity:1; 
stroke-linecap:round; stroke-linejoin:round;">
<path d="M77559 75396
L77559 76577
" />
</g>
<g style="fill:#000000; fill-opacity:0.0; 
stroke:#000000; stroke-width:39.3701; stroke-opacity:1; 
stroke-linecap:round; stroke-linejoin:round;">
</g>
<g style="fill:#000000; fill-opacity:0.0; 
stroke:#000000; stroke-width:59.0551; stroke-opacity:1; 
stroke-linecap:round; stroke-linejoin:round;">
<path d="M102756 75396
L102756 77955
" />
</g>
<g style="fill:#000000; fill-opacity:0.0; 
stroke:#000000; stroke-width:196.85; stroke-opacity:1; 
stroke-linecap:round; stroke-linejoin:round;">
<text x="27500" y="17393.7"
textLength="4333.52" font-size="1574.8" lengthAdjust="spacingAndGlyphs"
text-anchor="middle" opacity="0">VREF</text>
<path d="M25475 16568
L25868 17356
L26262 16568
" />
<path d="M27331 17356
L26937 16981
" />
<path d="M26656 17356
L26656 16568
L27106 16568
L27218 16606
L27275 16643
L27331 16718
L27331 16831
L27275 16906
L27218 16943
L27106 16981
L26656 16981
" />
<path d="M27837 16943
L28231 16943
" />
<path d="M28399 17356
L27837 17356
L27837 16568
L28399 16568
" />
<path d="M29299 16943
L28906 16943
" />
<path d="M28906 17356
L28906 16568
L29468 16568
" />
<text x="27500" y="14893.7"
textLength="4642.86" font-size="1574.8" lengthAdjust="spacingAndGlyphs"
text-anchor="middle" opacity="0">CANL</text>
<path d="M26262 14781
L26206 14818
L26037 14856
L25925 14856
L25756 14818
L25643 14743
L25587 14668
L25531 14518
L25531 14406
L25587 14256
L25643 14181
L25756 14106
L25925 14068
L26037 14068
L26206 14106
L26262 14143
" />
<path d="M26712 14631
L27275 14631
" />
<path d="M26600 14856
L26993 14068
L27387 14856
" />
<path d="M27781 14856
L27781 14068
L28456 14856
L28456 14068
" />
<path d="M29580 14856
L29018 14856
L29018 14068
" />
<text x="27500" y="12643.7"
textLength="4924.07" font-size="1574.8" lengthAdjust="spacingAndGlyphs"
text-anchor="middle" opacity="0">CANH</text>
<path d="M26122 12531
L26065 12568
L25897 12606
L25784 12606
L25615 12568
L25503 12493
L25447 12418
L25390 12268
L25390 12156
L25447 12006
L25503 11931
L25615 11856
L25784 11818
L25897 11818
L26065 11856
L26122 11893
" />
<path d="M26571 12381
L27134 12381
" />
<path d="M26459 12606
L26853 11818
L27246 12606
" />
<path d="M27640 12606
L27640 11818
L28315 12606
L28315 11818
" />
<path d="M28877 12606
L28877 11818
" />
<path d="M28877 12193
L29552 12193
" />
<path d="M29552 12606
L29552 11818
" />
<text x="26500" y="10143.7"
textLength="2561.87" font-size="1574.8" lengthAdjust="spacingAndGlyphs"
text-anchor="middle" opacity="0">RS</text>
<path d="M26303 10106
L25909 9731
" />
<path d="M25628 10106
L25628 9318
L26078 9318
L26190 9356
L26246 9393
L26303 9468
L26303 9581
L26246 9656
L26190 9693
L26078 9731
L25628 9731
" />
<path d="M26753 10068
L26921 10106
L27203 10106
L27315 10068
L27371 10031
L27428 9956
L27428 9881
L27371 9806
L27315 9768
L27203 9731
L26978 9693
L26865 9656
L26809 9618
L26753 9543
L26753 9468
L26809 9393
L26865 9356
L26978 9318
L27259 9318
L27428 9356
" />
<text x="8500" y="16893.7"
textLength="3742.97" font-size="1574.8" lengthAdjust="spacingAndGlyphs"
text-anchor="middle" opacity="0">RXD</text>
<path d="M7712 16856
L7318 16481
" />
<path d="M7037 16856
L7037 16068
L7487 16068
L7600 16106
L7656 16143
L7712 16218
L7712 16331
L7656 16406
L7600 16443
L7487 16481
L7037 16481
" />
<path d="M8106 16068
L8893 16856
" />
<path d="M8893 16068
L8106 16856
" />
<path d="M9343 16856
L9343 16068
L9624 16068
L9793 16106
L9906 16181
L9962 16256
L10018 16406
L10018 16518
L9962 16668
L9906 16743
L9793 16818
L9624 16856
L9343 16856
" />
<text x="8500" y="14393.7"
textLength="3630.48" font-size="1574.8" lengthAdjust="spacingAndGlyphs"
text-anchor="middle" opacity="0">VDD</text>
<path d="M6925 13568
L7318 14356
L7712 13568
" />
<path d="M8106 14356
L8106 13568
L8387 13568
L8556 13606
L8668 13681
L8724 13756
L8781 13906
L8781 14018
L8724 14168
L8668 14243
L8556 14318
L8387 14356
L8106 14356
" />
<path d="M9287 14356
L9287 13568
L9568 13568
L9737 13606
L9849 13681
L9906 13756
L9962 13906
L9962 14018
L9906 14168
L9849 14243
L9737 14318
L9568 14356
L9287 14356
" />
<text x="8500" y="12143.7"
textLength="3855.46" font-size="1574.8" lengthAdjust="spacingAndGlyphs"
text-anchor="middle" opacity="0">GND</text>
<path d="M7600 11356
L7487 11318
L7318 11318
L7150 11356
L7037 11431
L6981 11506
L6925 11656
L6925 11768
L6981 11918
L7037 11993
L7150 12068
L7318 12106
L7431 12106
L7600 12068
L7656 12031
L7656 11768
L7431 11768
" />
<path d="M8162 12106
L8162 11318
L8837 12106
L8837 11318
" />
<path d="M9399 12106
L9399 11318
L9681 11318
L9849 11356
L9962 11431
L10018 11506
L10074 11656
L10074 11768
L10018 11918
L9962 11993
L9849 12068
L9681 12106
L9399 12106
" />
<text x="8500" y="10143.7"
textLength="3461.75" font-size="1574.8" lengthAdjust="spacingAndGlyphs"
text-anchor="middle" opacity="0">TXD</text>
<path d="M7009 9318
L7684 9318
" />
<path d="M7347 10106
L7347 9318
" />
<path d="M7965 9318
L8753 10106
" />
<path d="M8753 9318
L7965 10106
" />
<path d="M9203 10106
L9203 9318
L9484 9318
L9652 9356
L9765 9431
L9821 9506
L9877 9656
L9877 9768
L9821 9918
L9765 9993
L9652 10068
L9484 10106
L9203 10106
" />
<text x="17750" y="20143.7"
textLength="21403.3" font-size="1574.8" lengthAdjust="spacingAndGlyphs"
text-anchor="middle" opacity="0">CAN ADAPTOR MCP2551</text>
<path d="M8132 20031
L8076 20068
L7907 20106
L7794 20106
L7626 20068
L7513 19993
L7457 19918
L7401 19768
L7401 19656
L7457 19506
L7513 19431
L7626 19356
L7794 19318
L7907 19318
L8076 19356
L8132 19393
" />
<path d="M8582 19881
L9144 19881
" />
<path d="M8469 20106
L8863 19318
L9257 20106
" />
<path d="M9651 20106
L9651 19318
L10325 20106
L10325 19318
" />
<path d="M11732 19881
L12294 19881
" />
<path d="M11619 20106
L12013 19318
L12406 20106
" />
<path d="M12800 20106
L12800 19318
L13081 19318
L13250 19356
L13363 19431
L13419 19506
L13475 19656
L13475 19768
L13419 19918
L13363 19993
L13250 20068
L13081 20106
L12800 20106
" />
<path d="M13925 19881
L14487 19881
" />
<path d="M13812 20106
L14206 19318
L14600 20106
" />
<path d="M14994 20106
L14994 19318
L15444 19318
L15556 19356
L15612 19393
L15669 19468
L15669 19581
L15612 19656
L15556 19693
L15444 19731
L14994 19731
" />
<path d="M16006 19318
L16681 19318
" />
<path d="M16343 20106
L16343 19318
" />
<path d="M17300 19318
L17525 19318
L17637 19356
L17750 19431
L17806 19581
L17806 19843
L17750 19993
L17637 20068
L17525 20106
L17300 20106
L17187 20068
L17075 19993
L17018 19843
L17018 19581
L17075 19431
L17187 19356
L17300 19318
" />
<path d="M18987 20106
L18593 19731
" />
<path d="M18312 20106
L18312 19318
L18762 19318
L18874 19356
L18931 19393
L18987 19468
L18987 19581
L18931 19656
L18874 19693
L18762 19731
L18312 19731
" />
<path d="M20393 20106
L20393 19318
L20787 19881
L21180 19318
L21180 20106
" />
<path d="M22418 20031
L22361 20068
L22193 20106
L22080 20106
L21911 20068
L21799 19993
L21743 19918
L21687 19768
L21687 19656
L21743 19506
L21799 19431
L21911 19356
L22080 19318
L22193 19318
L22361 19356
L22418 19393
" />
<path d="M22924 20106
L22924 19318
L23374 19318
L23486 19356
L23543 19393
L23599 19468
L23599 19581
L23543 19656
L23486 19693
L23374 19731
L22924 19731
" />
<path d="M24049 19393
L24105 19356
L24217 19318
L24499 19318
L24611 19356
L24667 19393
L24724 19468
L24724 19543
L24667 19656
L23992 20106
L24724 20106
" />
<path d="M25792 19318
L25230 19318
L25174 19693
L25230 19656
L25342 19618
L25624 19618
L25736 19656
L25792 19693
L25848 19768
L25848 19956
L25792 20031
L25736 20068
L25624 20106
L25342 20106
L25230 20068
L25174 20031
" />
<path d="M26917 19318
L26355 19318
L26298 19693
L26355 19656
L26467 19618
L26748 19618
L26861 19656
L26917 19693
L26973 19768
L26973 19956
L26917 20031
L26861 20068
L26748 20106
L26467 20106
L26355 20068
L26298 20031
" />
<path d="M28098 20106
L27423 20106
" />
<path d="M27761 20106
L27761 19318
L27648 19431
L27536 19506
L27423 19543
" />
<text x="14500" y="21643.7"
textLength="13023.1" font-size="1574.8" lengthAdjust="spacingAndGlyphs"
text-anchor="middle" opacity="0">A. Perez 2022</text>
<path d="M8341 21381
L8903 21381
" />
<path d="M8228 21606
L8622 20818
L9016 21606
" />
<path d="M9410 21531
L9466 21568
L9410 21606
L9353 21568
L9410 21531
L9410 21606
" />
<path d="M10872 21606
L10872 20818
L11322 20818
L11434 20856
L11491 20893
L11547 20968
L11547 21081
L11491 21156
L11434 21193
L11322 21231
L10872 21231
" />
<path d="M12503 21568
L12390 21606
L12165 21606
L12053 21568
L11997 21493
L11997 21193
L12053 21118
L12165 21081
L12390 21081
L12503 21118
L12559 21193
L12559 21268
L11997 21343
" />
<path d="M13065 21606
L13065 21081
" />
<path d="M13065 21231
L13122 21156
L13178 21118
L13290 21081
L13403 21081
" />
<path d="M14246 21568
L14134 21606
L13909 21606
L13796 21568
L13740 21493
L13740 21193
L13796 21118
L13909 21081
L14134 21081
L14246 21118
L14303 21193
L14303 21268
L13740 21343
" />
<path d="M14696 21081
L15315 21081
L14696 21606
L15315 21606
" />
<path d="M16609 20893
L16665 20856
L16777 20818
L17059 20818
L17171 20856
L17227 20893
L17284 20968
L17284 21043
L17227 21156
L16552 21606
L17284 21606
" />
<path d="M18015 20818
L18127 20818
L18240 20856
L18296 20893
L18352 20968
L18408 21118
L18408 21306
L18352 21456
L18296 21531
L18240 21568
L18127 21606
L18015 21606
L17902 21568
L17846 21531
L17790 21456
L17733 21306
L17733 21118
L17790 20968
L17846 20893
L17902 20856
L18015 20818
" />
<path d="M18858 20893
L18915 20856
L19027 20818
L19308 20818
L19421 20856
L19477 20893
L19533 20968
L19533 21043
L19477 21156
L18802 21606
L19533 21606
" />
<path d="M19983 20893
L20039 20856
L20152 20818
L20433 20818
L20546 20856
L20602 20893
L20658 20968
L20658 21043
L20602 21156
L19927 21606
L20658 21606
" />
<text x="24500" y="21643.7"
textLength="6105.17" font-size="1574.8" lengthAdjust="spacingAndGlyphs"
text-anchor="middle" opacity="0">ID AAB</text>
<path d="M21856 21606
L21856 20818
" />
<path d="M22419 21606
L22419 20818
L22700 20818
L22868 20856
L22981 20931
L23037 21006
L23093 21156
L23093 21268
L23037 21418
L22981 21493
L22868 21568
L22700 21606
L22419 21606
" />
<path d="M24443 21381
L25006 21381
" />
<path d="M24331 21606
L24724 20818
L25118 21606
" />
<path d="M25456 21381
L26018 21381
" />
<path d="M25343 21606
L25737 20818
L26131 21606
" />
<path d="M26918 21193
L27087 21231
L27143 21268
L27199 21343
L27199 21456
L27143 21531
L27087 21568
L26974 21606
L26524 21606
L26524 20818
L26918 20818
L27030 20856
L27087 20893
L27143 20968
L27143 21043
L27087 21118
L27030 21156
L26918 21193
L26524 21193
" />
<g >
</g>
<g style="fill:#000000; fill-opacity:0.0; 
stroke:#000000; stroke-width:0; stroke-opacity:1; 
stroke-linecap:round; stroke-linejoin:round;">
</g>
<g style="fill:#000000; fill-opacity:1.0; 
stroke:#000000; stroke-width:0; stroke-opacity:1; 
stroke-linecap:round; stroke-linejoin:round;">
<path style="fill:#000000; fill-opacity:1.0; 
stroke:#000000; stroke-width:0; stroke-opacity:1; 
stroke-linecap:round; stroke-linejoin:round;fill-rule:evenodd;"
d="M 16822.7,12955
16828.5,12955.9
16834.1,12957.3
16839.5,12959.2
16844.8,12961.7
16849.7,12964.7
16854.4,12968.1
16858.7,12972
16862.6,12976.3
16866,12981
16869,12985.9
16871.5,12991.2
16873.4,12996.6
16874.8,13002.3
16875.7,13008
16876,13013.8
16876,13131.9
16875.7,13137.7
16874.8,13143.4
16873.4,13149
16871.5,13154.5
16869,13159.7
16866,13164.7
16862.6,13169.4
16858.7,13173.6
16854.4,13177.5
16849.7,13181
16844.8,13184
16839.5,13186.4
16834.1,13188.4
16828.5,13189.8
16822.7,13190.7
16816.9,13190.9
16167.3,13190.9
16161.5,13190.7
16155.8,13189.8
16150.2,13188.4
16144.7,13186.4
16139.5,13184
16134.5,13181
16129.9,13177.5
16125.6,13173.6
16121.7,13169.4
16118.2,13164.7
16115.2,13159.7
16112.8,13154.5
16110.8,13149
16109.4,13143.4
16108.6,13137.7
16108.3,13131.9
16108.3,13013.8
16108.6,13008
16109.4,13002.3
16110.8,12996.6
16112.8,12991.2
16115.2,12985.9
16118.2,12981
16121.7,12976.3
16125.6,12972
16129.9,12968.1
16134.5,12964.7
16139.5,12961.7
16144.7,12959.2
16150.2,12957.3
16155.8,12955.9
16161.5,12955
16167.3,12954.7
16816.9,12954.7
Z" /> 
<path style="fill:#000000; fill-opacity:1.0; 
stroke:#000000; stroke-width:0; stroke-opacity:1; 
stroke-linecap:round; stroke-linejoin:round;fill-rule:evenodd;"
d="M 16822.7,13455
16828.5,13455.9
16834.1,13457.3
16839.5,13459.2
16844.8,13461.7
16849.7,13464.7
16854.4,13468.1
16858.7,13472
16862.6,13476.3
16866,13481
16869,13485.9
16871.5,13491.2
16873.4,13496.6
16874.8,13502.3
16875.7,13508
16876,13513.8
16876,13631.9
16875.7,13637.7
16874.8,13643.4
16873.4,13649
16871.5,13654.5
16869,13659.7
16866,13664.7
16862.6,13669.4
16858.7,13673.6
16854.4,13677.5
16849.7,13681
16844.8,13684
16839.5,13686.4
16834.1,13688.4
16828.5,13689.8
16822.7,13690.7
16816.9,13690.9
16167.3,13690.9
16161.5,13690.7
16155.8,13689.8
16150.2,13688.4
16144.7,13686.4
16139.5,13684
16134.5,13681
16129.9,13677.5
16125.6,13673.6
16121.7,13669.4
16118.2,13664.7
16115.2,13659.7
16112.8,13654.5
16110.8,13649
16109.4,13643.4
16108.6,13637.7
16108.3,13631.9
16108.3,13513.8
16108.6,13508
16109.4,13502.3
16110.8,13496.6
16112.8,13491.2
16115.2,13485.9
16118.2,13481
16121.7,13476.3
16125.6,13472
16129.9,13468.1
16134.5,13464.7
16139.5,13461.7
16144.7,13459.2
16150.2,13457.3
16155.8,13455.9
16161.5,13455
16167.3,13454.7
16816.9,13454.7
Z" /> 
<path style="fill:#000000; fill-opacity:1.0; 
stroke:#000000; stroke-width:0; stroke-opacity:1; 
stroke-linecap:round; stroke-linejoin:round;fill-rule:evenodd;"
d="M 16822.7,13955
16828.5,13955.9
16834.1,13957.3
16839.5,13959.2
16844.8,13961.7
16849.7,13964.7
16854.4,13968.1
16858.7,13972
16862.6,13976.3
16866,13981
16869,13985.9
16871.5,13991.2
16873.4,13996.6
16874.8,14002.3
16875.7,14008
16876,14013.8
16876,14131.9
16875.7,14137.7
16874.8,14143.4
16873.4,14149
16871.5,14154.5
16869,14159.7
16866,14164.7
16862.6,14169.4
16858.7,14173.6
16854.4,14177.5
16849.7,14181
16844.8,14184
16839.5,14186.4
16834.1,14188.4
16828.5,14189.8
16822.7,14190.7
16816.9,14190.9
16167.3,14190.9
16161.5,14190.7
16155.8,14189.8
16150.2,14188.4
16144.7,14186.4
16139.5,14184
16134.5,14181
16129.9,14177.5
16125.6,14173.6
16121.7,14169.4
16118.2,14164.7
16115.2,14159.7
16112.8,14154.5
16110.8,14149
16109.4,14143.4
16108.6,14137.7
16108.3,14131.9
16108.3,14013.8
16108.6,14008
16109.4,14002.3
16110.8,13996.6
16112.8,13991.2
16115.2,13985.9
16118.2,13981
16121.7,13976.3
16125.6,13972
16129.9,13968.1
16134.5,13964.7
16139.5,13961.7
16144.7,13959.2
16150.2,13957.3
16155.8,13955.9
16161.5,13955
16167.3,13954.7
16816.9,13954.7
Z" /> 
<path style="fill:#000000; fill-opacity:1.0; 
stroke:#000000; stroke-width:0; stroke-opacity:1; 
stroke-linecap:round; stroke-linejoin:round;fill-rule:evenodd;"
d="M 16822.7,14455
16828.5,14455.9
16834.1,14457.3
16839.5,14459.2
16844.8,14461.7
16849.7,14464.7
16854.4,14468.1
16858.7,14472
16862.6,14476.3
16866,14481
16869,14485.9
16871.5,14491.2
16873.4,14496.6
16874.8,14502.3
16875.7,14508
16876,14513.8
16876,14631.9
16875.7,14637.7
16874.8,14643.4
16873.4,14649
16871.5,14654.5
16869,14659.7
16866,14664.7
16862.6,14669.4
16858.7,14673.6
16854.4,14677.5
16849.7,14681
16844.8,14684
16839.5,14686.4
16834.1,14688.4
16828.5,14689.8
16822.7,14690.7
16816.9,14690.9
16167.3,14690.9
16161.5,14690.7
16155.8,14689.8
16150.2,14688.4
16144.7,14686.4
16139.5,14684
16134.5,14681
16129.9,14677.5
16125.6,14673.6
16121.7,14669.4
16118.2,14664.7
16115.2,14659.7
16112.8,14654.5
16110.8,14649
16109.4,14643.4
16108.6,14637.7
16108.3,14631.9
16108.3,14513.8
16108.6,14508
16109.4,14502.3
16110.8,14496.6
16112.8,14491.2
16115.2,14485.9
16118.2,14481
16121.7,14476.3
16125.6,14472
16129.9,14468.1
16134.5,14464.7
16139.5,14461.7
16144.7,14459.2
16150.2,14457.3
16155.8,14455.9
16161.5,14455
16167.3,14454.7
16816.9,14454.7
Z" /> 
<path style="fill:#000000; fill-opacity:1.0; 
stroke:#000000; stroke-width:0; stroke-opacity:1; 
stroke-linecap:round; stroke-linejoin:round;fill-rule:evenodd;"
d="M 18771.5,14455
18777.3,14455.9
18782.9,14457.3
18788.3,14459.2
18793.6,14461.7
18798.6,14464.7
18803.2,14468.1
18807.5,14472
18811.4,14476.3
18814.9,14481
18817.8,14485.9
18820.3,14491.2
18822.3,14496.6
18823.7,14502.3
18824.5,14508
18824.8,14513.8
18824.8,14631.9
18824.5,14637.7
18823.7,14643.4
18822.3,14649
18820.3,14654.5
18817.8,14659.7
18814.9,14664.7
18811.4,14669.4
18807.5,14673.6
18803.2,14677.5
18798.6,14681
18793.6,14684
18788.3,14686.4
18782.9,14688.4
18777.3,14689.8
18771.5,14690.7
18765.7,14690.9
18116.1,14690.9
18110.4,14690.7
18104.6,14689.8
18099,14688.4
18093.5,14686.4
18088.3,14684
18083.3,14681
18078.7,14677.5
18074.4,14673.6
18070.5,14669.4
18067,14664.7
18064.1,14659.7
18061.6,14654.5
18059.6,14649
18058.2,14643.4
18057.4,14637.7
18057.1,14631.9
18057.1,14513.8
18057.4,14508
18058.2,14502.3
18059.6,14496.6
18061.6,14491.2
18064.1,14485.9
18067,14481
18070.5,14476.3
18074.4,14472
18078.7,14468.1
18083.3,14464.7
18088.3,14461.7
18093.5,14459.2
18099,14457.3
18104.6,14455.9
18110.4,14455
18116.1,14454.7
18765.7,14454.7
Z" /> 
<path style="fill:#000000; fill-opacity:1.0; 
stroke:#000000; stroke-width:0; stroke-opacity:1; 
stroke-linecap:round; stroke-linejoin:round;fill-rule:evenodd;"
d="M 18771.5,13955
18777.3,13955.9
18782.9,13957.3
18788.3,13959.2
18793.6,13961.7
18798.6,13964.7
18803.2,13968.1
18807.5,13972
18811.4,13976.3
18814.9,13981
18817.8,13985.9
18820.3,13991.2
18822.3,13996.6
18823.7,14002.3
18824.5,14008
18824.8,14013.8
18824.8,14131.9
18824.5,14137.7
18823.7,14143.4
18822.3,14149
18820.3,14154.5
18817.8,14159.7
18814.9,14164.7
18811.4,14169.4
18807.5,14173.6
18803.2,14177.5
18798.6,14181
18793.6,14184
18788.3,14186.4
18782.9,14188.4
18777.3,14189.8
18771.5,14190.7
18765.7,14190.9
18116.1,14190.9
18110.4,14190.7
18104.6,14189.8
18099,14188.4
18093.5,14186.4
18088.3,14184
18083.3,14181
18078.7,14177.5
18074.4,14173.6
18070.5,14169.4
18067,14164.7
18064.1,14159.7
18061.6,14154.5
18059.6,14149
18058.2,14143.4
18057.4,14137.7
18057.1,14131.9
18057.1,14013.8
18057.4,14008
18058.2,14002.3
18059.6,13996.6
18061.6,13991.2
18064.1,13985.9
18067,13981
18070.5,13976.3
18074.4,13972
18078.7,13968.1
18083.3,13964.7
18088.3,13961.7
18093.5,13959.2
18099,13957.3
18104.6,13955.9
18110.4,13955
18116.1,13954.7
18765.7,13954.7
Z" /> 
<path style="fill:#000000; fill-opacity:1.0; 
stroke:#000000; stroke-width:0; stroke-opacity:1; 
stroke-linecap:round; stroke-linejoin:round;fill-rule:evenodd;"
d="M 18771.5,13455
18777.3,13455.9
18782.9,13457.3
18788.3,13459.2
18793.6,13461.7
18798.6,13464.7
18803.2,13468.1
18807.5,13472
18811.4,13476.3
18814.9,13481
18817.8,13485.9
18820.3,13491.2
18822.3,13496.6
18823.7,13502.3
18824.5,13508
18824.8,13513.8
18824.8,13631.9
18824.5,13637.7
18823.7,13643.4
18822.3,13649
18820.3,13654.5
18817.8,13659.7
18814.9,13664.7
18811.4,13669.4
18807.5,13673.6
18803.2,13677.5
18798.6,13681
18793.6,13684
18788.3,13686.4
18782.9,13688.4
18777.3,13689.8
18771.5,13690.7
18765.7,13690.9
18116.1,13690.9
18110.4,13690.7
18104.6,13689.8
18099,13688.4
18093.5,13686.4
18088.3,13684
18083.3,13681
18078.7,13677.5
18074.4,13673.6
18070.5,13669.4
18067,13664.7
18064.1,13659.7
18061.6,13654.5
18059.6,13649
18058.2,13643.4
18057.4,13637.7
18057.1,13631.9
18057.1,13513.8
18057.4,13508
18058.2,13502.3
18059.6,13496.6
18061.6,13491.2
18064.1,13485.9
18067,13481
18070.5,13476.3
18074.4,13472
18078.7,13468.1
18083.3,13464.7
18088.3,13461.7
18093.5,13459.2
18099,13457.3
18104.6,13455.9
18110.4,13455
18116.1,13454.7
18765.7,13454.7
Z" /> 
<path style="fill:#000000; fill-opacity:1.0; 
stroke:#000000; stroke-width:0; stroke-opacity:1; 
stroke-linecap:round; stroke-linejoin:round;fill-rule:evenodd;"
d="M 18771.5,12955
18777.3,12955.9
18782.9,12957.3
18788.3,12959.2
18793.6,12961.7
18798.6,12964.7
18803.2,12968.1
18807.5,12972
18811.4,12976.3
18814.9,12981
18817.8,12985.9
18820.3,12991.2
18822.3,12996.6
18823.7,13002.3
18824.5,13008
18824.8,13013.8
18824.8,13131.9
18824.5,13137.7
18823.7,13143.4
18822.3,13149
18820.3,13154.5
18817.8,13159.7
18814.9,13164.7
18811.4,13169.4
18807.5,13173.6
18803.2,13177.5
18798.6,13181
18793.6,13184
18788.3,13186.4
18782.9,13188.4
18777.3,13189.8
18771.5,13190.7
18765.7,13190.9
18116.1,13190.9
18110.4,13190.7
18104.6,13189.8
18099,13188.4
18093.5,13186.4
18088.3,13184
18083.3,13181
18078.7,13177.5
18074.4,13173.6
18070.5,13169.4
18067,13164.7
18064.1,13159.7
18061.6,13154.5
18059.6,13149
18058.2,13143.4
18057.4,13137.7
18057.1,13131.9
18057.1,13013.8
18057.4,13008
18058.2,13002.3
18059.6,12996.6
18061.6,12991.2
18064.1,12985.9
18067,12981
18070.5,12976.3
18074.4,12972
18078.7,12968.1
18083.3,12964.7
18088.3,12961.7
18093.5,12959.2
18099,12957.3
18104.6,12955.9
18110.4,12955
18116.1,12954.7
18765.7,12954.7
Z" /> 
</g>
<g >
</g>
<g style="fill:#000000; fill-opacity:1.0; 
stroke:#000000; stroke-width:0; stroke-opacity:1; 
stroke-linecap:round; stroke-linejoin:round;">
<path style="fill:#000000; fill-opacity:1.0; 
stroke:#000000; stroke-width:0; stroke-opacity:1; 
stroke-linecap:round; stroke-linejoin:round;fill-rule:evenodd;"
d="M 11415.4,10053.1
11415.4,9383.86
12084.6,9383.86
12084.6,10053.1
Z" /> 
</g>
<g style="fill:#000000; fill-opacity:1.0; 
stroke:#000000; stroke-width:669.291; stroke-opacity:1; 
stroke-linecap:round; stroke-linejoin:round;">
</g>
<g style="fill:#000000; fill-opacity:0.0; 
stroke:#000000; stroke-width:669.291; stroke-opacity:1; 
stroke-linecap:round; stroke-linejoin:round;">
<path d="M11750 10718
L11750 10718
" />
<path d="M11750 11718
L11750 11718
" />
<path d="M11750 12718
L11750 12718
" />
<path d="M11750 13718
L11750 13718
" />
<path d="M11750 14718
L11750 14718
" />
<path d="M11750 15718
L11750 15718
" />
<path d="M11750 16718
L11750 16718
" />
</g>
<g >
</g>
<g style="fill:#000000; fill-opacity:0.0; 
stroke:#000000; stroke-width:669.291; stroke-opacity:1; 
stroke-linecap:round; stroke-linejoin:round;">
<path d="M23500 16750
L23500 16750
" />
<path d="M23500 15750
L23500 15750
" />
<path d="M23500 14750
L23500 14750
" />
<path d="M23500 13750
L23500 13750
" />
<path d="M23500 12750
L23500 12750
" />
<path d="M23500 11750
L23500 11750
" />
<path d="M23500 10750
L23500 10750
" />
</g>
<g style="fill:#000000; fill-opacity:0.0; 
stroke:#000000; stroke-width:0; stroke-opacity:1; 
stroke-linecap:round; stroke-linejoin:round;">
</g>
<g style="fill:#000000; fill-opacity:1.0; 
stroke:#000000; stroke-width:0; stroke-opacity:1; 
stroke-linecap:round; stroke-linejoin:round;">
<path style="fill:#000000; fill-opacity:1.0; 
stroke:#000000; stroke-width:0; stroke-opacity:1; 
stroke-linecap:round; stroke-linejoin:round;fill-rule:evenodd;"
d="M 23165.4,10084.6
23165.4,9415.35
23834.6,9415.35
23834.6,10084.6
Z" /> 
</g>
<g >
</g>
<g >
</g>
<g style="fill:#000000; fill-opacity:1.0; 
stroke:#000000; stroke-width:0; stroke-opacity:1; 
stroke-linecap:round; stroke-linejoin:round;">
</g>
<g style="fill:#000000; fill-opacity:1.0; 
stroke:#000000; stroke-width:98.4252; stroke-opacity:1; 
stroke-linecap:round; stroke-linejoin:round;">
</g>
<g style="fill:#000000; fill-opacity:0.0; 
stroke:#000000; stroke-width:98.4252; stroke-opacity:1; 
stroke-linecap:round; stroke-linejoin:round;">
<path d="M16419 13000
L16492 13072
" />
</g>
<g style="fill:#000000; fill-opacity:0.0; 
stroke:#000000; stroke-width:196.85; stroke-opacity:1; 
stroke-linecap:round; stroke-linejoin:round;">
<path d="M16492 13072
L16492 10757
" />
</g>
<g style="fill:#000000; fill-opacity:0.0; 
stroke:#000000; stroke-width:590.551; stroke-opacity:1; 
stroke-linecap:round; stroke-linejoin:round;">
<path d="M16492 10757
L16492 10742
" />
<path d="M15468 9718
L11750 9718
" />
<path d="M16492 10742
L15468 9718
" />
</g>
<g style="fill:#000000; fill-opacity:0.0; 
stroke:#000000; stroke-width:196.85; stroke-opacity:1; 
stroke-linecap:round; stroke-linejoin:round;">
<path d="M18559 12954
L18559 10690
" />
<path d="M18440 13072
L18559 12954
" />
</g>
<g style="fill:#000000; fill-opacity:0.0; 
stroke:#000000; stroke-width:590.551; stroke-opacity:1; 
stroke-linecap:round; stroke-linejoin:round;">
<path d="M18559 10690
L18809 10690
" />
<path d="M19750 9750
L23500 9750
" />
<path d="M18809 10690
L19750 9750
" />
</g>
<g style="fill:#000000; fill-opacity:0.0; 
stroke:#000000; stroke-width:157.48; stroke-opacity:1; 
stroke-linecap:round; stroke-linejoin:round;">
<path d="M16480 13584
L16492 13572
" />
</g>
<g style="fill:#000000; fill-opacity:0.0; 
stroke:#000000; stroke-width:196.85; stroke-opacity:1; 
stroke-linecap:round; stroke-linejoin:round;">
<path d="M16492 13572
L15250 13572
" />
<path d="M15250 13572
L15072 13572
" />
<path d="M15072 13572
L14500 13000
" />
</g>
<g style="fill:#000000; fill-opacity:0.0; 
stroke:#000000; stroke-width:590.551; stroke-opacity:1; 
stroke-linecap:round; stroke-linejoin:round;">
<path d="M13218 11718
L11750 11718
" />
<path d="M14500 13000
L13218 11718
" />
</g>
<g style="fill:#000000; fill-opacity:0.0; 
stroke:#000000; stroke-width:196.85; stroke-opacity:1; 
stroke-linecap:round; stroke-linejoin:round;">
<path d="M18440 13572
L20750 13572
" />
</g>
<g style="fill:#000000; fill-opacity:0.0; 
stroke:#000000; stroke-width:590.551; stroke-opacity:1; 
stroke-linecap:round; stroke-linejoin:round;">
<path d="M20750 13572
L20750 13500
" />
<path d="M22500 11750
L23500 11750
" />
<path d="M20750 13500
L22500 11750
" />
</g>
<g style="fill:#000000; fill-opacity:0.0; 
stroke:#000000; stroke-width:196.85; stroke-opacity:1; 
stroke-linecap:round; stroke-linejoin:round;">
<path d="M16492 14072
L15500 14072
" />
<path d="M15500 14072
L14000 14072
" />
</g>
<g style="fill:#000000; fill-opacity:0.0; 
stroke:#000000; stroke-width:590.551; stroke-opacity:1; 
stroke-linecap:round; stroke-linejoin:round;">
<path d="M14000 14072
L13927 14072
" />
<path d="M11857 13718
L11750 13718
" />
<path d="M12211 14072
L11857 13718
" />
<path d="M14000 14072
L12211 14072
" />
</g>
<g style="fill:#000000; fill-opacity:0.0; 
stroke:#000000; stroke-width:196.85; stroke-opacity:1; 
stroke-linecap:round; stroke-linejoin:round;">
<path d="M16492 14572
L16492 16007
" />
<path d="M16492 16007
L15750 16750
" />
</g>
<g style="fill:#000000; fill-opacity:0.0; 
stroke:#000000; stroke-width:590.551; stroke-opacity:1; 
stroke-linecap:round; stroke-linejoin:round;">
<path d="M15718 16718
L11750 16718
" />
<path d="M15750 16750
L15718 16718
" />
</g>
<g style="fill:#000000; fill-opacity:0.0; 
stroke:#000000; stroke-width:196.85; stroke-opacity:1; 
stroke-linecap:round; stroke-linejoin:round;">
<path d="M18440 14572
L18440 15940
" />
<path d="M18440 15940
L19250 16750
" />
</g>
<g style="fill:#000000; fill-opacity:0.0; 
stroke:#000000; stroke-width:590.551; stroke-opacity:1; 
stroke-linecap:round; stroke-linejoin:round;">
<path d="M19250 16750
L23500 16750
" />
</g>
<g style="fill:#000000; fill-opacity:0.0; 
stroke:#000000; stroke-width:157.48; stroke-opacity:1; 
stroke-linecap:round; stroke-linejoin:round;">
<path d="M18824 14072
L18440 14072
" />
</g>
<g style="fill:#000000; fill-opacity:0.0; 
stroke:#000000; stroke-width:196.85; stroke-opacity:1; 
stroke-linecap:round; stroke-linejoin:round;">
<path d="M18440 14072
L19822 14072
" />
<path d="M19822 14072
L20500 14750
" />
</g>
<g style="fill:#000000; fill-opacity:0.0; 
stroke:#000000; stroke-width:590.551; stroke-opacity:1; 
stroke-linecap:round; stroke-linejoin:round;">
<path d="M20500 14750
L23500 14750
" />
</g>
<g >
</g>
<g style="fill:#000000; fill-opacity:0.0; 
stroke:#000000; stroke-width:590.551; stroke-opacity:1; 
stroke-linecap:round; stroke-linejoin:round;">
</g>
<g style="fill:#000000; fill-opacity:1.0; 
stroke:#000000; stroke-width:100; stroke-opacity:1; 
stroke-linecap:round; stroke-linejoin:round;">
<path style="fill:#000000; fill-opacity:1.0; 
stroke:#000000; stroke-width:100; stroke-opacity:1; 
stroke-linecap:round; stroke-linejoin:round;fill-rule:evenodd;"
d="M 32950.4,6674.77
33074.6,23762.3
5924.64,23637.7
5888.66,18690.2
6634.2,18690.2
6634.2,20955.5
7574.3,20955.5
7574.3,22455.5
27966.8,22455.5
27966.8,20955.5
28865.8,20955.5
28865.8,18690.2
6634.2,18690.2
5888.66,18690.2
5865.02,15440.2
6214.34,15440.2
6214.34,17705.5
10785.7,17705.5
10785.7,15440.2
6214.34,15440.2
5865.02,15440.2
5830.48,10690.2
6158.1,10690.2
6158.1,12955.5
6270.59,12955.5
6270.59,15205.5
10729.4,15205.5
10729.4,12955.5
10841.9,12955.5
10841.9,10690.2
10645.1,10690.2
10645.1,9383.86
10969.5,9383.86
10969.5,10053.1
10978.1,10140.1
11003.4,10223.8
11044.6,10300.8
11071.3,10333.3
11060.2,10349.8
11001.6,10491.5
10971.7,10641.8
10971.7,10795.2
11001.6,10945.5
11060.2,11087.2
11145.4,11214.7
11253.8,11323.1
11297.4,11352.2
11249.4,11416.6
11200.1,11520
11182.5,11578
11230.3,11668.5
11700,11668.5
11700,11660.6
11800,11660.6
11800,11668.5
12269.7,11668.5
12317.5,11578
12299.9,11520
12250.6,11416.6
12202.6,11352.2
12246.2,11323.1
12354.6,11214.7
12439.8,11087.2
12498.4,10945.5
12528.3,10795.2
12528.3,10641.8
12498.4,10491.5
12484.4,10457.5
15162.4,10457.5
15874,11169.1
15874.7,11170.4
15950,11262.1
15950,12560.2
15886.8,12594
15810.3,12656.8
15747.5,12733.3
15700.9,12820.6
15672.1,12915.3
15662.4,13013.8
15662.4,13131.9
15672.1,13230.4
15700.9,13325.1
15747.5,13412.4
15810.3,13488.9
15858.3,13528.3
15858.3,13530.7
14504.3,13530.7
14412.5,13455.4
14284.2,13386.8
14144.9,13344.6
14036.3,13333.9
12517.5,13333.9
12405.3,13221.6
12382.2,13193.4
12373.5,13186.3
12439.8,13087.2
12498.4,12945.5
12528.3,12795.2
12528.3,12641.8
12498.4,12491.5
12439.8,12349.8
12354.6,12222.3
12246.2,12113.9
12202.6,12084.8
12250.6,12020.4
12299.9,11917
12317.5,11859
12269.7,11768.5
11800,11768.5
11800,11776.4
11700,11776.4
11700,11768.5
11230.3,11768.5
11182.5,11859
11200.1,11917
11249.4,12020.4
11297.4,12084.8
11253.8,12113.9
11145.4,12222.3
11060.2,12349.8
11001.6,12491.5
10971.7,12641.8
10971.7,12795.2
11001.6,12945.5
11060.2,13087.2
11145.4,13214.7
11149.3,13218.5
11145.4,13222.3
11060.2,13349.8
11001.6,13491.5
10971.7,13641.8
10971.7,13795.2
11001.6,13945.5
11060.2,14087.2
11145.4,14214.7
11149.3,14218.5
11145.4,14222.3
11060.2,14349.8
11001.6,14491.5
10971.7,14641.8
10971.7,14795.2
11001.6,14945.5
11060.2,15087.2
11145.4,15214.7
11149.3,15218.5
11145.4,15222.3
11060.2,15349.8
11001.6,15491.5
10971.7,15641.8
10971.7,15795.2
11001.6,15945.5
11060.2,16087.2
11145.4,16214.7
11149.3,16218.5
11145.4,16222.3
11060.2,16349.8
11001.6,16491.5
10971.7,16641.8
10971.7,16795.2
11001.6,16945.5
11060.2,17087.2
11145.4,17214.7
11253.8,17323.1
11381.3,17408.3
11523,17466.9
11673.3,17496.9
11826.7,17496.9
11977,17466.9
11999.9,17457.5
15536.6,17457.5
15605.1,17478.3
15750,17492.6
15894.9,17478.3
16034.2,17436
16162.5,17367.4
16275.1,17275.1
16367.4,17162.5
16436,17034.2
16478.3,16894.9
16489.9,16776.8
16856.6,16410
16877.3,16393.1
16945.1,16310.5
16995.4,16216.3
17015.7,16149.4
17026.4,16114.1
17036.9,16007.9
17034.3,15981.2
17034.3,15085.5
17097.4,15051.7
17173.9,14988.9
17236.7,14912.4
17283.4,14825.1
17312.1,14730.4
17321.8,14631.9
17321.8,14513.8
17312.1,14415.3
17284.1,14322.8
17312.1,14230.4
17321.8,14131.9
17321.8,14013.8
17312.1,13915.3
17283.4,13820.6
17236.7,13733.3
17173.9,13656.8
17097.4,13594
17057.9,13572.8
17097.4,13551.7
17173.9,13488.9
17236.7,13412.4
17283.4,13325.1
17312.1,13230.4
17321.8,13131.9
17321.8,13013.8
17611.2,13013.8
17611.2,13131.9
17620.9,13230.4
17649,13322.8
17620.9,13415.3
17611.2,13513.8
17611.2,13631.9
17620.9,13730.4
17649,13822.8
17620.9,13915.3
17611.2,14013.8
17611.2,14131.9
17620.9,14230.4
17649,14322.8
17620.9,14415.3
17611.2,14513.8
17611.2,14631.9
17620.9,14730.4
17649.7,14825.1
17696.3,14912.4
17759.1,14988.9
17835.6,15051.7
17898.8,15085.5
17898.8,15914.3
17896.2,15940.9
17906.7,16047.2
17937.7,16149.4
17972.5,16214.7
17988,16243.6
18055.8,16326.1
18076.4,16343.1
18510.1,16776.8
18521.7,16894.9
18564,17034.2
18632.6,17162.5
18724.9,17275.1
18837.5,17367.4
18965.8,17436
19105.1,17478.3
19213.7,17489
23250.1,17489
23273,17498.4
23423.3,17528.3
23576.7,17528.3
23727,17498.4
23868.7,17439.8
23996.2,17354.6
24104.6,17246.2
24189.8,17118.7
24248.4,16977
24278.3,16826.7
24278.3,16673.3
24248.4,16523
24189.8,16381.3
24104.6,16253.8
24100.7,16250
24104.6,16246.2
24189.8,16118.7
24248.4,15977
24255.8,15940.2
24820.6,15940.2
24820.6,18205.5
30179.4,18205.5
30179.4,15940.2
24820.6,15940.2
24255.8,15940.2
24278.3,15826.7
24278.3,15673.3
24248.4,15523
24189.8,15381.3
24104.6,15253.8
24100.7,15250
24104.6,15246.2
24189.8,15118.7
24248.4,14977
24278.3,14826.7
24278.3,14673.3
24248.4,14523
24189.8,14381.3
24104.6,14253.8
24100.7,14250
24104.6,14246.2
24189.8,14118.7
24248.4,13977
24278.3,13826.7
24278.3,13673.3
24248.4,13523
24189.8,13381.3
24104.6,13253.8
24100.7,13250
24104.6,13246.2
24189.8,13118.7
24248.4,12977
24278.3,12826.7
24278.3,12673.3
24248.4,12523
24189.8,12381.3
24104.6,12253.8
24100.7,12250
24104.6,12246.2
24189.8,12118.7
24248.4,11977
24278.3,11826.7
24278.3,11673.3
24248.4,11523
24189.8,11381.3
24104.6,11253.8
24100.7,11250
24104.6,11246.2
24142,11190.2
24623.8,11190.2
24623.8,13455.5
24764.4,13455.5
24764.4,15705.5
30235.6,15705.5
30235.6,13455.5
30376.2,13455.5
30376.2,11190.2
24623.8,11190.2
24142,11190.2
24189.8,11118.7
24248.4,10977
24278.3,10826.7
24278.3,10673.3
24248.4,10523
24189.8,10381.3
24178.7,10364.8
24205.4,10332.3
24246.6,10255.3
24271.9,10171.6
24280.5,10084.6
24280.5,9415.35
24271.9,9328.37
24246.6,9244.74
24205.4,9167.65
24149.9,9100.09
24082.3,9044.65
24005.3,9003.44
23921.6,8978.07
23834.6,8969.51
23165.4,8969.51
23078.4,8978.07
22994.7,9003.44
22980.6,9011.02
19786.3,9011.02
19750,9007.45
19713.7,9011.02
19713.7,9011.02
19617.9,9020.46
19605.1,9021.72
19569.7,9032.48
19465.8,9063.97
19337.5,9132.59
19224.9,9224.94
19201.8,9253.13
18500.8,9954.13
18414.2,9962.66
18274.9,10004.9
18146.5,10073.5
18034,10165.9
17941.6,10278.4
17873,10406.8
17830.8,10546.1
17816.5,10690.9
17830.8,10835.8
17873,10975.1
17941.6,11103.5
18016.9,11195.2
18016.9,12518.8
17922.9,12547.3
17835.6,12594
17759.1,12656.8
17696.3,12733.3
17649.7,12820.6
17620.9,12915.3
17611.2,13013.8
17321.8,13013.8
17312.1,12915.3
17283.4,12820.6
17236.7,12733.3
17173.9,12656.8
17097.4,12594
17034.3,12560.2
17034.3,11262.1
17109.5,11170.4
17178.2,11042
17220.4,10902.7
17231.1,10794.2
17231.1,10778.4
17234.7,10742.1
17231.1,10705.8
17231.1,10705.8
17220.4,10597.3
17220.4,10597.3
17178.2,10458
17109.5,10329.6
17040.3,10245.3
17040.3,10245.3
17017.2,10217.1
16989,10193.9
16016.7,9221.64
15993.6,9193.44
15881,9101.09
15752.7,9032.48
15613.4,8990.22
15504.8,8979.53
15504.8,8979.53
15468.5,8975.95
15432.2,8979.53
12269.4,8979.53
12255.3,8971.95
12171.6,8946.58
12084.6,8938.01
11415.4,8938.01
11328.4,8946.58
11244.7,8971.95
11167.7,9013.15
11100.1,9068.6
11044.6,9136.16
11003.4,9213.24
10978.1,9296.88
10969.5,9383.86
10645.1,9383.86
10645.1,8690.16
24804.9,8690.16
24804.9,10955.5
28195.1,10955.5
28195.1,8690.16
24804.9,8690.16
10645.1,8690.16
6354.95,8690.16
6354.95,10690.2
6158.1,10690.2
5830.48,10690.2
5800.37,6550.23
Z" /> 
</g>
</g>
<g style="fill:#FFFFFF; fill-opacity:1.0; 
stroke:#FFFFFF; stroke-width:100; stroke-opacity:1; 
stroke-linecap:round; stroke-linejoin:round;">
</g>
<g style="fill:#FFFFFF; fill-opacity:1.0; 
stroke:#FFFFFF; stroke-width:0; stroke-opacity:1; 
stroke-linecap:round; stroke-linejoin:round;">
<circle cx="11750" cy="9718.5" r="196.85" /> 
</g>
<g style="fill:#FFFFFF; fill-opacity:1.0; 
stroke:#FFFFFF; stroke-width:39.3701; stroke-opacity:1; 
stroke-linecap:round; stroke-linejoin:round;">
</g>
<g style="fill:#FFFFFF; fill-opacity:1.0; 
stroke:#FFFFFF; stroke-width:0; stroke-opacity:1; 
stroke-linecap:round; stroke-linejoin:round;">
<circle cx="11750" cy="10718.5" r="196.85" /> 
</g>
<g style="fill:#FFFFFF; fill-opacity:1.0; 
stroke:#FFFFFF; stroke-width:39.3701; stroke-opacity:1; 
stroke-linecap:round; stroke-linejoin:round;">
</g>
<g style="fill:#FFFFFF; fill-opacity:1.0; 
stroke:#FFFFFF; stroke-width:0; stroke-opacity:1; 
stroke-linecap:round; stroke-linejoin:round;">
<circle cx="11750" cy="11718.5" r="196.85" /> 
</g>
<g style="fill:#FFFFFF; fill-opacity:1.0; 
stroke:#FFFFFF; stroke-width:39.3701; stroke-opacity:1; 
stroke-linecap:round; stroke-linejoin:round;">
</g>
<g style="fill:#FFFFFF; fill-opacity:1.0; 
stroke:#FFFFFF; stroke-width:0; stroke-opacity:1; 
stroke-linecap:round; stroke-linejoin:round;">
<circle cx="11750" cy="12718.5" r="196.85" /> 
</g>
<g style="fill:#FFFFFF; fill-opacity:1.0; 
stroke:#FFFFFF; stroke-width:39.3701; stroke-opacity:1; 
stroke-linecap:round; stroke-linejoin:round;">
</g>
<g style="fill:#FFFFFF; fill-opacity:1.0; 
stroke:#FFFFFF; stroke-width:0; stroke-opacity:1; 
stroke-linecap:round; stroke-linejoin:round;">
<circle cx="11750" cy="13718.5" r="196.85" /> 
</g>
<g style="fill:#FFFFFF; fill-opacity:1.0; 
stroke:#FFFFFF; stroke-width:39.3701; stroke-opacity:1; 
stroke-linecap:round; stroke-linejoin:round;">
</g>
<g style="fill:#FFFFFF; fill-opacity:1.0; 
stroke:#FFFFFF; stroke-width:0; stroke-opacity:1; 
stroke-linecap:round; stroke-linejoin:round;">
<circle cx="11750" cy="14718.5" r="196.85" /> 
</g>
<g style="fill:#FFFFFF; fill-opacity:1.0; 
stroke:#FFFFFF; stroke-width:39.3701; stroke-opacity:1; 
stroke-linecap:round; stroke-linejoin:round;">
</g>
<g style="fill:#FFFFFF; fill-opacity:1.0; 
stroke:#FFFFFF; stroke-width:0; stroke-opacity:1; 
stroke-linecap:round; stroke-linejoin:round;">
<circle cx="11750" cy="15718.5" r="196.85" /> 
</g>
<g style="fill:#FFFFFF; fill-opacity:1.0; 
stroke:#FFFFFF; stroke-width:39.3701; stroke-opacity:1; 
stroke-linecap:round; stroke-linejoin:round;">
</g>
<g style="fill:#FFFFFF; fill-opacity:1.0; 
stroke:#FFFFFF; stroke-width:0; stroke-opacity:1; 
stroke-linecap:round; stroke-linejoin:round;">
<circle cx="11750" cy="16718.5" r="196.85" /> 
</g>
<g style="fill:#FFFFFF; fill-opacity:1.0; 
stroke:#FFFFFF; stroke-width:39.3701; stroke-opacity:1; 
stroke-linecap:round; stroke-linejoin:round;">
</g>
<g style="fill:#FFFFFF; fill-opacity:1.0; 
stroke:#FFFFFF; stroke-width:0; stroke-opacity:1; 
stroke-linecap:round; stroke-linejoin:round;">
<circle cx="23500" cy="16750" r="196.85" /> 
</g>
<g style="fill:#FFFFFF; fill-opacity:1.0; 
stroke:#FFFFFF; stroke-width:39.3701; stroke-opacity:1; 
stroke-linecap:round; stroke-linejoin:round;">
</g>
<g style="fill:#FFFFFF; fill-opacity:1.0; 
stroke:#FFFFFF; stroke-width:0; stroke-opacity:1; 
stroke-linecap:round; stroke-linejoin:round;">
<circle cx="23500" cy="15750" r="196.85" /> 
</g>
<g style="fill:#FFFFFF; fill-opacity:1.0; 
stroke:#FFFFFF; stroke-width:39.3701; stroke-opacity:1; 
stroke-linecap:round; stroke-linejoin:round;">
</g>
<g style="fill:#FFFFFF; fill-opacity:1.0; 
stroke:#FFFFFF; stroke-width:0; stroke-opacity:1; 
stroke-linecap:round; stroke-linejoin:round;">
<circle cx="23500" cy="14750" r="196.85" /> 
</g>
<g style="fill:#FFFFFF; fill-opacity:1.0; 
stroke:#FFFFFF; stroke-width:39.3701; stroke-opacity:1; 
stroke-linecap:round; stroke-linejoin:round;">
</g>
<g style="fill:#FFFFFF; fill-opacity:1.0; 
stroke:#FFFFFF; stroke-width:0; stroke-opacity:1; 
stroke-linecap:round; stroke-linejoin:round;">
<circle cx="23500" cy="13750" r="196.85" /> 
</g>
<g style="fill:#FFFFFF; fill-opacity:1.0; 
stroke:#FFFFFF; stroke-width:39.3701; stroke-opacity:1; 
stroke-linecap:round; stroke-linejoin:round;">
</g>
<g style="fill:#FFFFFF; fill-opacity:1.0; 
stroke:#FFFFFF; stroke-width:0; stroke-opacity:1; 
stroke-linecap:round; stroke-linejoin:round;">
<circle cx="23500" cy="12750" r="196.85" /> 
</g>
<g style="fill:#FFFFFF; fill-opacity:1.0; 
stroke:#FFFFFF; stroke-width:39.3701; stroke-opacity:1; 
stroke-linecap:round; stroke-linejoin:round;">
</g>
<g style="fill:#FFFFFF; fill-opacity:1.0; 
stroke:#FFFFFF; stroke-width:0; stroke-opacity:1; 
stroke-linecap:round; stroke-linejoin:round;">
<circle cx="23500" cy="11750" r="196.85" /> 
</g>
<g style="fill:#FFFFFF; fill-opacity:1.0; 
stroke:#FFFFFF; stroke-width:39.3701; stroke-opacity:1; 
stroke-linecap:round; stroke-linejoin:round;">
</g>
<g style="fill:#FFFFFF; fill-opacity:1.0; 
stroke:#FFFFFF; stroke-width:0; stroke-opacity:1; 
stroke-linecap:round; stroke-linejoin:round;">
<circle cx="23500" cy="10750" r="196.85" /> 
</g>
<g style="fill:#FFFFFF; fill-opacity:1.0; 
stroke:#FFFFFF; stroke-width:39.3701; stroke-opacity:1; 
stroke-linecap:round; stroke-linejoin:round;">
</g>
<g style="fill:#FFFFFF; fill-opacity:1.0; 
stroke:#FFFFFF; stroke-width:0; stroke-opacity:1; 
stroke-linecap:round; stroke-linejoin:round;">
<circle cx="23500" cy="9750" r="196.85" /> 
</g>
<g style="fill:#FFFFFF; fill-opacity:1.0; 
stroke:#FFFFFF; stroke-width:39.3701; stroke-opacity:1; 
stroke-linecap:round; stroke-linejoin:round;">
</g>
<g style="fill:#000000; fill-opacity:1.0; 
stroke:#000000; stroke-width:39.3701; stroke-opacity:1; 
stroke-linecap:round; stroke-linejoin:round;">
<g >
</g>
<g >
</g>
<g >
</g>
<g >
</g>
</g> 
</svg>
