<?xml version="1.0" standalone="no"?>
 <!DOCTYPE svg PUBLIC "-//W3C//DTD SVG 1.1//EN" 
 "http://www.w3.org/Graphics/SVG/1.1/DTD/svg11.dtd"> 
<svg xmlns="http://www.w3.org/2000/svg" version="1.1" 
    width="29.7002cm" height="21.0007cm" viewBox="0 0 116930 82680 ">
<title>SVG Picture created as Can_prototypage-F_Cu.svg date 2022/01/26 18:27:26 </title>
  <desc>Picture generated by PCBNEW </desc>
<g style="fill:#000000; fill-opacity:1;stroke:#000000; stroke-opacity:1;
stroke-linecap:round; stroke-linejoin:round; "
 transform="translate(0 0) scale(1 1)">
</g>
<g style="fill:#000000; fill-opacity:0.0; 
stroke:#000000; stroke-width:-0.000393701; stroke-opacity:1; 
stroke-linecap:round; stroke-linejoin:round;">
</g>
<g style="fill:#000000; fill-opacity:0.0; 
stroke:#000000; stroke-width:39.3701; stroke-opacity:1; 
stroke-linecap:round; stroke-linejoin:round;">
</g>
<g style="fill:#000000; fill-opacity:0.0; 
stroke:#000000; stroke-width:59.0551; stroke-opacity:1; 
stroke-linecap:round; stroke-linejoin:round;">
<rect x="69685.9" y="65357.2" width="42519.7" height="12598.4" rx="0" />
</g>
<g style="fill:#000000; fill-opacity:0.0; 
stroke:#000000; stroke-width:39.3701; stroke-opacity:1; 
stroke-linecap:round; stroke-linejoin:round;">
</g>
<g style="fill:#000000; fill-opacity:0.0; 
stroke:#000000; stroke-width:59.0551; stroke-opacity:1; 
stroke-linecap:round; stroke-linejoin:round;">
<rect x="3937.01" y="3937.01" width="109056" height="74806" rx="0" />
</g>
<g style="fill:#000000; fill-opacity:0.0; 
stroke:#000000; stroke-width:39.3701; stroke-opacity:1; 
stroke-linecap:round; stroke-linejoin:round;">
</g>
<g style="fill:#000000; fill-opacity:0.0; 
stroke:#000000; stroke-width:59.0551; stroke-opacity:1; 
stroke-linecap:round; stroke-linejoin:round;">
<rect x="4724.41" y="4724.41" width="107481" height="73231.2" rx="0" />
</g>
<g style="fill:#000000; fill-opacity:0.0; 
stroke:#000000; stroke-width:39.3701; stroke-opacity:1; 
stroke-linecap:round; stroke-linejoin:round;">
</g>
<g style="fill:#000000; fill-opacity:0.0; 
stroke:#000000; stroke-width:59.0551; stroke-opacity:1; 
stroke-linecap:round; stroke-linejoin:round;">
<path d="M23622 4724
L23622 3937
" />
</g>
<g style="fill:#000000; fill-opacity:0.0; 
stroke:#000000; stroke-width:39.3701; stroke-opacity:1; 
stroke-linecap:round; stroke-linejoin:round;">
</g>
<g style="fill:#000000; fill-opacity:0.0; 
stroke:#000000; stroke-width:59.0551; stroke-opacity:1; 
stroke-linecap:round; stroke-linejoin:round;">
<path d="M43307 4724
L43307 3937
" />
</g>
<g style="fill:#000000; fill-opacity:0.0; 
stroke:#000000; stroke-width:39.3701; stroke-opacity:1; 
stroke-linecap:round; stroke-linejoin:round;">
</g>
<g style="fill:#000000; fill-opacity:0.0; 
stroke:#000000; stroke-width:59.0551; stroke-opacity:1; 
stroke-linecap:round; stroke-linejoin:round;">
<path d="M62992 4724
L62992 3937
" />
</g>
<g style="fill:#000000; fill-opacity:0.0; 
stroke:#000000; stroke-width:39.3701; stroke-opacity:1; 
stroke-linecap:round; stroke-linejoin:round;">
</g>
<g style="fill:#000000; fill-opacity:0.0; 
stroke:#000000; stroke-width:59.0551; stroke-opacity:1; 
stroke-linecap:round; stroke-linejoin:round;">
<path d="M82677 4724
L82677 3937
" />
</g>
<g style="fill:#000000; fill-opacity:0.0; 
stroke:#000000; stroke-width:39.3701; stroke-opacity:1; 
stroke-linecap:round; stroke-linejoin:round;">
</g>
<g style="fill:#000000; fill-opacity:0.0; 
stroke:#000000; stroke-width:59.0551; stroke-opacity:1; 
stroke-linecap:round; stroke-linejoin:round;">
<path d="M102362 4724
L102362 3937
" />
</g>
<g style="fill:#000000; fill-opacity:0.0; 
stroke:#000000; stroke-width:39.3701; stroke-opacity:1; 
stroke-linecap:round; stroke-linejoin:round;">
</g>
<g style="fill:#000000; fill-opacity:0.0; 
stroke:#000000; stroke-width:59.0551; stroke-opacity:1; 
stroke-linecap:round; stroke-linejoin:round;">
<text x="13779.5" y="4586.61"
textLength="640.982" font-size="682.415" lengthAdjust="spacingAndGlyphs"
text-anchor="start" opacity="0">1</text>
<path d="M14199 4562
L13906 4562
" />
<path d="M14052 4562
L14052 4050
L14004 4123
L13955 4172
L13906 4196
" />
</g>
<g style="fill:#000000; fill-opacity:0.0; 
stroke:#000000; stroke-width:39.3701; stroke-opacity:1; 
stroke-linecap:round; stroke-linejoin:round;">
</g>
<g style="fill:#000000; fill-opacity:0.0; 
stroke:#000000; stroke-width:59.0551; stroke-opacity:1; 
stroke-linecap:round; stroke-linejoin:round;">
<text x="33464.6" y="4586.61"
textLength="546.494" font-size="682.415" lengthAdjust="spacingAndGlyphs"
text-anchor="start" opacity="0">2</text>
<path d="M33591 4099
L33615 4074
L33664 4050
L33786 4050
L33835 4074
L33859 4099
L33884 4147
L33884 4196
L33859 4269
L33567 4562
L33884 4562
" />
</g>
<g style="fill:#000000; fill-opacity:0.0; 
stroke:#000000; stroke-width:39.3701; stroke-opacity:1; 
stroke-linecap:round; stroke-linejoin:round;">
</g>
<g style="fill:#000000; fill-opacity:0.0; 
stroke:#000000; stroke-width:59.0551; stroke-opacity:1; 
stroke-linecap:round; stroke-linejoin:round;">
<text x="53149.6" y="4586.61"
textLength="546.494" font-size="682.415" lengthAdjust="spacingAndGlyphs"
text-anchor="start" opacity="0">3</text>
<path d="M53252 4050
L53569 4050
L53398 4245
L53471 4245
L53520 4269
L53544 4294
L53569 4342
L53569 4464
L53544 4513
L53520 4537
L53471 4562
L53325 4562
L53276 4537
L53252 4513
" />
</g>
<g style="fill:#000000; fill-opacity:0.0; 
stroke:#000000; stroke-width:39.3701; stroke-opacity:1; 
stroke-linecap:round; stroke-linejoin:round;">
</g>
<g style="fill:#000000; fill-opacity:0.0; 
stroke:#000000; stroke-width:59.0551; stroke-opacity:1; 
stroke-linecap:round; stroke-linejoin:round;">
<text x="72834.6" y="4586.61"
textLength="546.494" font-size="682.415" lengthAdjust="spacingAndGlyphs"
text-anchor="start" opacity="0">4</text>
<path d="M73205 4221
L73205 4562
" />
<path d="M73083 4026
L72961 4391
L73278 4391
" />
</g>
<g style="fill:#000000; fill-opacity:0.0; 
stroke:#000000; stroke-width:39.3701; stroke-opacity:1; 
stroke-linecap:round; stroke-linejoin:round;">
</g>
<g style="fill:#000000; fill-opacity:0.0; 
stroke:#000000; stroke-width:59.0551; stroke-opacity:1; 
stroke-linecap:round; stroke-linejoin:round;">
<text x="92519.7" y="4586.61"
textLength="546.494" font-size="682.415" lengthAdjust="spacingAndGlyphs"
text-anchor="start" opacity="0">5</text>
<path d="M92914 4050
L92671 4050
L92646 4294
L92671 4269
L92719 4245
L92841 4245
L92890 4269
L92914 4294
L92939 4342
L92939 4464
L92914 4513
L92890 4537
L92841 4562
L92719 4562
L92671 4537
L92646 4513
" />
</g>
<g style="fill:#000000; fill-opacity:0.0; 
stroke:#000000; stroke-width:39.3701; stroke-opacity:1; 
stroke-linecap:round; stroke-linejoin:round;">
</g>
<g style="fill:#000000; fill-opacity:0.0; 
stroke:#000000; stroke-width:59.0551; stroke-opacity:1; 
stroke-linecap:round; stroke-linejoin:round;">
<text x="112205" y="4586.61"
textLength="546.494" font-size="682.415" lengthAdjust="spacingAndGlyphs"
text-anchor="start" opacity="0">6</text>
<path d="M112575 4050
L112477 4050
L112429 4074
L112404 4099
L112356 4172
L112331 4269
L112331 4464
L112356 4513
L112380 4537
L112429 4562
L112526 4562
L112575 4537
L112599 4513
L112624 4464
L112624 4342
L112599 4294
L112575 4269
L112526 4245
L112429 4245
L112380 4269
L112356 4294
L112331 4342
" />
</g>
<g style="fill:#000000; fill-opacity:0.0; 
stroke:#000000; stroke-width:39.3701; stroke-opacity:1; 
stroke-linecap:round; stroke-linejoin:round;">
</g>
<g style="fill:#000000; fill-opacity:0.0; 
stroke:#000000; stroke-width:59.0551; stroke-opacity:1; 
stroke-linecap:round; stroke-linejoin:round;">
<path d="M23622 77955
L23622 78742
" />
</g>
<g style="fill:#000000; fill-opacity:0.0; 
stroke:#000000; stroke-width:39.3701; stroke-opacity:1; 
stroke-linecap:round; stroke-linejoin:round;">
</g>
<g style="fill:#000000; fill-opacity:0.0; 
stroke:#000000; stroke-width:59.0551; stroke-opacity:1; 
stroke-linecap:round; stroke-linejoin:round;">
<path d="M43307 77955
L43307 78742
" />
</g>
<g style="fill:#000000; fill-opacity:0.0; 
stroke:#000000; stroke-width:39.3701; stroke-opacity:1; 
stroke-linecap:round; stroke-linejoin:round;">
</g>
<g style="fill:#000000; fill-opacity:0.0; 
stroke:#000000; stroke-width:59.0551; stroke-opacity:1; 
stroke-linecap:round; stroke-linejoin:round;">
<path d="M62992 77955
L62992 78742
" />
</g>
<g style="fill:#000000; fill-opacity:0.0; 
stroke:#000000; stroke-width:39.3701; stroke-opacity:1; 
stroke-linecap:round; stroke-linejoin:round;">
</g>
<g style="fill:#000000; fill-opacity:0.0; 
stroke:#000000; stroke-width:59.0551; stroke-opacity:1; 
stroke-linecap:round; stroke-linejoin:round;">
<path d="M82677 77955
L82677 78742
" />
</g>
<g style="fill:#000000; fill-opacity:0.0; 
stroke:#000000; stroke-width:39.3701; stroke-opacity:1; 
stroke-linecap:round; stroke-linejoin:round;">
</g>
<g style="fill:#000000; fill-opacity:0.0; 
stroke:#000000; stroke-width:59.0551; stroke-opacity:1; 
stroke-linecap:round; stroke-linejoin:round;">
<path d="M102362 77955
L102362 78742
" />
</g>
<g style="fill:#000000; fill-opacity:0.0; 
stroke:#000000; stroke-width:39.3701; stroke-opacity:1; 
stroke-linecap:round; stroke-linejoin:round;">
</g>
<g style="fill:#000000; fill-opacity:0.0; 
stroke:#000000; stroke-width:59.0551; stroke-opacity:1; 
stroke-linecap:round; stroke-linejoin:round;">
<text x="13779.5" y="78605.2"
textLength="546.494" font-size="682.415" lengthAdjust="spacingAndGlyphs"
text-anchor="start" opacity="0">1</text>
<path d="M14199 78580
L13906 78580
" />
<path d="M14052 78580
L14052 78069
L14004 78142
L13955 78190
L13906 78215
" />
</g>
<g style="fill:#000000; fill-opacity:0.0; 
stroke:#000000; stroke-width:39.3701; stroke-opacity:1; 
stroke-linecap:round; stroke-linejoin:round;">
</g>
<g style="fill:#000000; fill-opacity:0.0; 
stroke:#000000; stroke-width:59.0551; stroke-opacity:1; 
stroke-linecap:round; stroke-linejoin:round;">
<text x="33464.6" y="78605.2"
textLength="546.494" font-size="682.415" lengthAdjust="spacingAndGlyphs"
text-anchor="start" opacity="0">2</text>
<path d="M33591 78117
L33615 78093
L33664 78069
L33786 78069
L33835 78093
L33859 78117
L33884 78166
L33884 78215
L33859 78288
L33567 78580
L33884 78580
" />
</g>
<g style="fill:#000000; fill-opacity:0.0; 
stroke:#000000; stroke-width:39.3701; stroke-opacity:1; 
stroke-linecap:round; stroke-linejoin:round;">
</g>
<g style="fill:#000000; fill-opacity:0.0; 
stroke:#000000; stroke-width:59.0551; stroke-opacity:1; 
stroke-linecap:round; stroke-linejoin:round;">
<text x="53149.6" y="78605.2"
textLength="546.494" font-size="682.415" lengthAdjust="spacingAndGlyphs"
text-anchor="start" opacity="0">3</text>
<path d="M53252 78069
L53569 78069
L53398 78263
L53471 78263
L53520 78288
L53544 78312
L53569 78361
L53569 78483
L53544 78532
L53520 78556
L53471 78580
L53325 78580
L53276 78556
L53252 78532
" />
</g>
<g style="fill:#000000; fill-opacity:0.0; 
stroke:#000000; stroke-width:39.3701; stroke-opacity:1; 
stroke-linecap:round; stroke-linejoin:round;">
</g>
<g style="fill:#000000; fill-opacity:0.0; 
stroke:#000000; stroke-width:59.0551; stroke-opacity:1; 
stroke-linecap:round; stroke-linejoin:round;">
<text x="72834.6" y="78605.2"
textLength="546.494" font-size="682.415" lengthAdjust="spacingAndGlyphs"
text-anchor="start" opacity="0">4</text>
<path d="M73205 78239
L73205 78580
" />
<path d="M73083 78044
L72961 78410
L73278 78410
" />
</g>
<g style="fill:#000000; fill-opacity:0.0; 
stroke:#000000; stroke-width:39.3701; stroke-opacity:1; 
stroke-linecap:round; stroke-linejoin:round;">
</g>
<g style="fill:#000000; fill-opacity:0.0; 
stroke:#000000; stroke-width:59.0551; stroke-opacity:1; 
stroke-linecap:round; stroke-linejoin:round;">
<text x="92519.7" y="78605.2"
textLength="546.494" font-size="682.415" lengthAdjust="spacingAndGlyphs"
text-anchor="start" opacity="0">5</text>
<path d="M92914 78069
L92671 78069
L92646 78312
L92671 78288
L92719 78263
L92841 78263
L92890 78288
L92914 78312
L92939 78361
L92939 78483
L92914 78532
L92890 78556
L92841 78580
L92719 78580
L92671 78556
L92646 78532
" />
</g>
<g style="fill:#000000; fill-opacity:0.0; 
stroke:#000000; stroke-width:39.3701; stroke-opacity:1; 
stroke-linecap:round; stroke-linejoin:round;">
</g>
<g style="fill:#000000; fill-opacity:0.0; 
stroke:#000000; stroke-width:59.0551; stroke-opacity:1; 
stroke-linecap:round; stroke-linejoin:round;">
<text x="112205" y="78605.2"
textLength="546.494" font-size="682.415" lengthAdjust="spacingAndGlyphs"
text-anchor="start" opacity="0">6</text>
<path d="M112575 78069
L112477 78069
L112429 78093
L112404 78117
L112356 78190
L112331 78288
L112331 78483
L112356 78532
L112380 78556
L112429 78580
L112526 78580
L112575 78556
L112599 78532
L112624 78483
L112624 78361
L112599 78312
L112575 78288
L112526 78263
L112429 78263
L112380 78288
L112356 78312
L112331 78361
" />
</g>
<g style="fill:#000000; fill-opacity:0.0; 
stroke:#000000; stroke-width:39.3701; stroke-opacity:1; 
stroke-linecap:round; stroke-linejoin:round;">
</g>
<g style="fill:#000000; fill-opacity:0.0; 
stroke:#000000; stroke-width:59.0551; stroke-opacity:1; 
stroke-linecap:round; stroke-linejoin:round;">
<path d="M3937 23622
L4724 23622
" />
</g>
<g style="fill:#000000; fill-opacity:0.0; 
stroke:#000000; stroke-width:39.3701; stroke-opacity:1; 
stroke-linecap:round; stroke-linejoin:round;">
</g>
<g style="fill:#000000; fill-opacity:0.0; 
stroke:#000000; stroke-width:59.0551; stroke-opacity:1; 
stroke-linecap:round; stroke-linejoin:round;">
<path d="M3937 43307
L4724 43307
" />
</g>
<g style="fill:#000000; fill-opacity:0.0; 
stroke:#000000; stroke-width:39.3701; stroke-opacity:1; 
stroke-linecap:round; stroke-linejoin:round;">
</g>
<g style="fill:#000000; fill-opacity:0.0; 
stroke:#000000; stroke-width:59.0551; stroke-opacity:1; 
stroke-linecap:round; stroke-linejoin:round;">
<path d="M3937 62992
L4724 62992
" />
</g>
<g style="fill:#000000; fill-opacity:0.0; 
stroke:#000000; stroke-width:39.3701; stroke-opacity:1; 
stroke-linecap:round; stroke-linejoin:round;">
</g>
<g style="fill:#000000; fill-opacity:0.0; 
stroke:#000000; stroke-width:59.0551; stroke-opacity:1; 
stroke-linecap:round; stroke-linejoin:round;">
<text x="4330.71" y="14035.4"
textLength="497.75" font-size="682.415" lengthAdjust="spacingAndGlyphs"
text-anchor="middle" opacity="0">A</text>
<path d="M4208 13864
L4452 13864
" />
<path d="M4160 14011
L4330 13499
L4501 14011
" />
</g>
<g style="fill:#000000; fill-opacity:0.0; 
stroke:#000000; stroke-width:39.3701; stroke-opacity:1; 
stroke-linecap:round; stroke-linejoin:round;">
</g>
<g style="fill:#000000; fill-opacity:0.0; 
stroke:#000000; stroke-width:59.0551; stroke-opacity:1; 
stroke-linecap:round; stroke-linejoin:round;">
<text x="4330.71" y="33720.5"
textLength="570.866" font-size="682.415" lengthAdjust="spacingAndGlyphs"
text-anchor="middle" opacity="0">B</text>
<path d="M4367 33428
L4440 33452
L4464 33476
L4489 33525
L4489 33598
L4464 33647
L4440 33671
L4391 33696
L4196 33696
L4196 33184
L4367 33184
L4416 33208
L4440 33233
L4464 33281
L4464 33330
L4440 33379
L4416 33403
L4367 33428
L4196 33428
" />
</g>
<g style="fill:#000000; fill-opacity:0.0; 
stroke:#000000; stroke-width:39.3701; stroke-opacity:1; 
stroke-linecap:round; stroke-linejoin:round;">
</g>
<g style="fill:#000000; fill-opacity:0.0; 
stroke:#000000; stroke-width:59.0551; stroke-opacity:1; 
stroke-linecap:round; stroke-linejoin:round;">
<text x="4330.71" y="53405.5"
textLength="570.866" font-size="682.415" lengthAdjust="spacingAndGlyphs"
text-anchor="middle" opacity="0">C</text>
<path d="M4489 53332
L4464 53356
L4391 53381
L4342 53381
L4269 53356
L4221 53308
L4196 53259
L4172 53161
L4172 53088
L4196 52991
L4221 52942
L4269 52893
L4342 52869
L4391 52869
L4464 52893
L4489 52918
" />
</g>
<g style="fill:#000000; fill-opacity:0.0; 
stroke:#000000; stroke-width:39.3701; stroke-opacity:1; 
stroke-linecap:round; stroke-linejoin:round;">
</g>
<g style="fill:#000000; fill-opacity:0.0; 
stroke:#000000; stroke-width:59.0551; stroke-opacity:1; 
stroke-linecap:round; stroke-linejoin:round;">
<text x="4330.71" y="73090.6"
textLength="570.866" font-size="682.415" lengthAdjust="spacingAndGlyphs"
text-anchor="middle" opacity="0">D</text>
<path d="M4196 73066
L4196 72554
L4318 72554
L4391 72578
L4440 72627
L4464 72676
L4489 72773
L4489 72846
L4464 72944
L4440 72993
L4391 73041
L4318 73066
L4196 73066
" />
</g>
<g style="fill:#000000; fill-opacity:0.0; 
stroke:#000000; stroke-width:39.3701; stroke-opacity:1; 
stroke-linecap:round; stroke-linejoin:round;">
</g>
<g style="fill:#000000; fill-opacity:0.0; 
stroke:#000000; stroke-width:59.0551; stroke-opacity:1; 
stroke-linecap:round; stroke-linejoin:round;">
<path d="M112992 23622
L112205 23622
" />
</g>
<g style="fill:#000000; fill-opacity:0.0; 
stroke:#000000; stroke-width:39.3701; stroke-opacity:1; 
stroke-linecap:round; stroke-linejoin:round;">
</g>
<g style="fill:#000000; fill-opacity:0.0; 
stroke:#000000; stroke-width:59.0551; stroke-opacity:1; 
stroke-linecap:round; stroke-linejoin:round;">
<path d="M112992 43307
L112205 43307
" />
</g>
<g style="fill:#000000; fill-opacity:0.0; 
stroke:#000000; stroke-width:39.3701; stroke-opacity:1; 
stroke-linecap:round; stroke-linejoin:round;">
</g>
<g style="fill:#000000; fill-opacity:0.0; 
stroke:#000000; stroke-width:59.0551; stroke-opacity:1; 
stroke-linecap:round; stroke-linejoin:round;">
<path d="M112992 62992
L112205 62992
" />
</g>
<g style="fill:#000000; fill-opacity:0.0; 
stroke:#000000; stroke-width:39.3701; stroke-opacity:1; 
stroke-linecap:round; stroke-linejoin:round;">
</g>
<g style="fill:#000000; fill-opacity:0.0; 
stroke:#000000; stroke-width:59.0551; stroke-opacity:1; 
stroke-linecap:round; stroke-linejoin:round;">
<text x="112599" y="14035.4"
textLength="497.75" font-size="682.415" lengthAdjust="spacingAndGlyphs"
text-anchor="middle" opacity="0">A</text>
<path d="M112477 13864
L112721 13864
" />
<path d="M112428 14011
L112599 13499
L112769 14011
" />
</g>
<g style="fill:#000000; fill-opacity:0.0; 
stroke:#000000; stroke-width:39.3701; stroke-opacity:1; 
stroke-linecap:round; stroke-linejoin:round;">
</g>
<g style="fill:#000000; fill-opacity:0.0; 
stroke:#000000; stroke-width:59.0551; stroke-opacity:1; 
stroke-linecap:round; stroke-linejoin:round;">
<text x="112599" y="33720.5"
textLength="570.866" font-size="682.415" lengthAdjust="spacingAndGlyphs"
text-anchor="middle" opacity="0">B</text>
<path d="M112635 33428
L112708 33452
L112733 33476
L112757 33525
L112757 33598
L112733 33647
L112708 33671
L112660 33696
L112465 33696
L112465 33184
L112635 33184
L112684 33208
L112708 33233
L112733 33281
L112733 33330
L112708 33379
L112684 33403
L112635 33428
L112465 33428
" />
</g>
<g style="fill:#000000; fill-opacity:0.0; 
stroke:#000000; stroke-width:39.3701; stroke-opacity:1; 
stroke-linecap:round; stroke-linejoin:round;">
</g>
<g style="fill:#000000; fill-opacity:0.0; 
stroke:#000000; stroke-width:59.0551; stroke-opacity:1; 
stroke-linecap:round; stroke-linejoin:round;">
<text x="112599" y="53405.5"
textLength="570.866" font-size="682.415" lengthAdjust="spacingAndGlyphs"
text-anchor="middle" opacity="0">C</text>
<path d="M112757 53332
L112733 53356
L112660 53381
L112611 53381
L112538 53356
L112489 53308
L112465 53259
L112440 53161
L112440 53088
L112465 52991
L112489 52942
L112538 52893
L112611 52869
L112660 52869
L112733 52893
L112757 52918
" />
</g>
<g style="fill:#000000; fill-opacity:0.0; 
stroke:#000000; stroke-width:39.3701; stroke-opacity:1; 
stroke-linecap:round; stroke-linejoin:round;">
</g>
<g style="fill:#000000; fill-opacity:0.0; 
stroke:#000000; stroke-width:59.0551; stroke-opacity:1; 
stroke-linecap:round; stroke-linejoin:round;">
<text x="112599" y="73090.6"
textLength="570.866" font-size="682.415" lengthAdjust="spacingAndGlyphs"
text-anchor="middle" opacity="0">D</text>
<path d="M112465 73066
L112465 72554
L112587 72554
L112660 72578
L112708 72627
L112733 72676
L112757 72773
L112757 72846
L112733 72944
L112708 72993
L112660 73041
L112587 73066
L112465 73066
" />
</g>
<g style="fill:#000000; fill-opacity:0.0; 
stroke:#000000; stroke-width:39.3701; stroke-opacity:1; 
stroke-linecap:round; stroke-linejoin:round;">
</g>
<g style="fill:#000000; fill-opacity:0.0; 
stroke:#000000; stroke-width:59.0551; stroke-opacity:1; 
stroke-linecap:round; stroke-linejoin:round;">
<text x="78741" y="76321.7"
textLength="2758.72" font-size="787.402" lengthAdjust="spacingAndGlyphs"
text-anchor="start" opacity="0">Date: </text>
<path d="M78911 76293
L78911 75703
L79051 75703
L79136 75731
L79192 75787
L79220 75843
L79248 75956
L79248 76040
L79220 76153
L79192 76209
L79136 76265
L79051 76293
L78911 76293
" />
<path d="M79754 76293
L79754 75984
L79726 75928
L79670 75899
L79557 75899
L79501 75928
" />
<path d="M79754 76265
L79698 76293
L79557 76293
L79501 76265
L79473 76209
L79473 76153
L79501 76096
L79557 76068
L79698 76068
L79754 76040
" />
<path d="M79951 75899
L80176 75899
" />
<path d="M80036 75703
L80036 76209
L80064 76265
L80120 76293
L80176 76293
" />
<path d="M80598 76265
L80542 76293
L80429 76293
L80373 76265
L80345 76209
L80345 75984
L80373 75928
L80429 75899
L80542 75899
L80598 75928
L80626 75984
L80626 76040
L80345 76096
" />
<path d="M80879 76237
L80907 76265
L80879 76293
L80851 76265
L80879 76237
L80879 76293
" />
<path d="M80879 75928
L80907 75956
L80879 75984
L80851 75956
L80879 75928
L80879 75984
" />
</g>
<g style="fill:#000000; fill-opacity:0.0; 
stroke:#000000; stroke-width:39.3701; stroke-opacity:1; 
stroke-linecap:round; stroke-linejoin:round;">
</g>
<g style="fill:#000000; fill-opacity:0.0; 
stroke:#000000; stroke-width:59.0551; stroke-opacity:1; 
stroke-linecap:round; stroke-linejoin:round;">
<path d="M69685 76577
L112205 76577
" />
</g>
<g style="fill:#000000; fill-opacity:0.0; 
stroke:#000000; stroke-width:39.3701; stroke-opacity:1; 
stroke-linecap:round; stroke-linejoin:round;">
</g>
<g style="fill:#000000; fill-opacity:0.0; 
stroke:#000000; stroke-width:59.0551; stroke-opacity:1; 
stroke-linecap:round; stroke-linejoin:round;">
<text x="70079.6" y="77424.1"
textLength="19575.4" font-size="787.402" lengthAdjust="spacingAndGlyphs"
text-anchor="start" opacity="0">KiCad E.D.A.  pcbnew 5.1.5+dfsg1-2build2</text>
<path d="M70249 77395
L70249 76805
" />
<path d="M70587 77395
L70334 77058
" />
<path d="M70587 76805
L70249 77142
" />
<path d="M70840 77395
L70840 77002
" />
<path d="M70840 76805
L70812 76833
L70840 76861
L70868 76833
L70840 76805
L70840 76861
" />
<path d="M71458 77339
L71430 77367
L71346 77395
L71290 77395
L71205 77367
L71149 77311
L71121 77255
L71093 77142
L71093 77058
L71121 76946
L71149 76889
L71205 76833
L71290 76805
L71346 76805
L71430 76833
L71458 76861
" />
<path d="M71965 77395
L71965 77086
L71937 77030
L71880 77002
L71768 77002
L71712 77030
" />
<path d="M71965 77367
L71908 77395
L71768 77395
L71712 77367
L71683 77311
L71683 77255
L71712 77199
L71768 77171
L71908 77171
L71965 77142
" />
<path d="M72499 77395
L72499 76805
" />
<path d="M72499 77367
L72443 77395
L72330 77395
L72274 77367
L72246 77339
L72218 77283
L72218 77114
L72246 77058
L72274 77030
L72330 77002
L72443 77002
L72499 77030
" />
<path d="M73230 77086
L73427 77086
" />
<path d="M73511 77395
L73230 77395
L73230 76805
L73511 76805
" />
<path d="M73764 77339
L73793 77367
L73764 77395
L73736 77367
L73764 77339
L73764 77395
" />
<path d="M74046 77395
L74046 76805
L74186 76805
L74271 76833
L74327 76889
L74355 76946
L74383 77058
L74383 77142
L74355 77255
L74327 77311
L74271 77367
L74186 77395
L74046 77395
" />
<path d="M74636 77339
L74664 77367
L74636 77395
L74608 77367
L74636 77339
L74636 77395
" />
<path d="M74889 77227
L75171 77227
" />
<path d="M74833 77395
L75030 76805
L75227 77395
" />
<path d="M75424 77339
L75452 77367
L75424 77395
L75395 77367
L75424 77339
L75424 77395
" />
<path d="M76605 77002
L76605 77592
" />
<path d="M76605 77030
L76661 77002
L76773 77002
L76830 77030
L76858 77058
L76886 77114
L76886 77283
L76858 77339
L76830 77367
L76773 77395
L76661 77395
L76605 77367
" />
<path d="M77392 77367
L77336 77395
L77223 77395
L77167 77367
L77139 77339
L77111 77283
L77111 77114
L77139 77058
L77167 77030
L77223 77002
L77336 77002
L77392 77030
" />
<path d="M77645 77395
L77645 76805
" />
<path d="M77645 77030
L77701 77002
L77814 77002
L77870 77030
L77898 77058
L77926 77114
L77926 77283
L77898 77339
L77870 77367
L77814 77395
L77701 77395
L77645 77367
" />
<path d="M78180 77002
L78180 77395
" />
<path d="M78180 77058
L78208 77030
L78264 77002
L78348 77002
L78404 77030
L78433 77086
L78433 77395
" />
<path d="M78939 77367
L78883 77395
L78770 77395
L78714 77367
L78686 77311
L78686 77086
L78714 77030
L78770 77002
L78883 77002
L78939 77030
L78967 77086
L78967 77142
L78686 77199
" />
<path d="M79164 77002
L79276 77395
L79389 77114
L79501 77395
L79614 77002
" />
<path d="M80570 76805
L80289 76805
L80260 77086
L80289 77058
L80345 77030
L80485 77030
L80542 77058
L80570 77086
L80598 77142
L80598 77283
L80570 77339
L80542 77367
L80485 77395
L80345 77395
L80289 77367
L80260 77339
" />
<path d="M80851 77339
L80879 77367
L80851 77395
L80823 77367
L80851 77339
L80851 77395
" />
<path d="M81442 77395
L81104 77395
" />
<path d="M81273 77395
L81273 76805
L81217 76889
L81160 76946
L81104 76974
" />
<path d="M81695 77339
L81723 77367
L81695 77395
L81667 77367
L81695 77339
L81695 77395
" />
<path d="M82257 76805
L81976 76805
L81948 77086
L81976 77058
L82032 77030
L82173 77030
L82229 77058
L82257 77086
L82285 77142
L82285 77283
L82257 77339
L82229 77367
L82173 77395
L82032 77395
L81976 77367
L81948 77339
" />
<path d="M82538 77171
L82988 77171
" />
<path d="M82763 77395
L82763 76946
" />
<path d="M83523 77395
L83523 76805
" />
<path d="M83523 77367
L83466 77395
L83354 77395
L83298 77367
L83269 77339
L83241 77283
L83241 77114
L83269 77058
L83298 77030
L83354 77002
L83466 77002
L83523 77030
" />
<path d="M83719 77002
L83944 77002
" />
<path d="M83804 77395
L83804 76889
L83832 76833
L83888 76805
L83944 76805
" />
<path d="M84113 77367
L84169 77395
L84282 77395
L84338 77367
L84366 77311
L84366 77283
L84338 77227
L84282 77199
L84197 77199
L84141 77171
L84113 77114
L84113 77086
L84141 77030
L84197 77002
L84282 77002
L84338 77030
" />
<path d="M84872 77002
L84872 77480
L84844 77536
L84816 77564
L84760 77592
L84676 77592
L84619 77564
" />
<path d="M84872 77367
L84816 77395
L84704 77395
L84647 77367
L84619 77339
L84591 77283
L84591 77114
L84619 77058
L84647 77030
L84704 77002
L84816 77002
L84872 77030
" />
<path d="M85463 77395
L85126 77395
" />
<path d="M85294 77395
L85294 76805
L85238 76889
L85182 76946
L85126 76974
" />
<path d="M85716 77171
L86166 77171
" />
<path d="M86419 76861
L86447 76833
L86503 76805
L86644 76805
L86700 76833
L86728 76861
L86757 76917
L86757 76974
L86728 77058
L86391 77395
L86757 77395
" />
<path d="M87010 77395
L87010 76805
" />
<path d="M87010 77030
L87066 77002
L87178 77002
L87235 77030
L87263 77058
L87291 77114
L87291 77283
L87263 77339
L87235 77367
L87178 77395
L87066 77395
L87010 77367
" />
<path d="M87797 77002
L87797 77395
" />
<path d="M87544 77002
L87544 77311
L87572 77367
L87628 77395
L87713 77395
L87769 77367
L87797 77339
" />
<path d="M88078 77395
L88078 77002
" />
<path d="M88078 76805
L88050 76833
L88078 76861
L88106 76833
L88078 76805
L88078 76861
" />
<path d="M88444 77395
L88388 77367
L88359 77311
L88359 76805
" />
<path d="M88922 77395
L88922 76805
" />
<path d="M88922 77367
L88866 77395
L88753 77395
L88697 77367
L88669 77339
L88641 77283
L88641 77114
L88669 77058
L88697 77030
L88753 77002
L88866 77002
L88922 77030
" />
<path d="M89175 76861
L89203 76833
L89259 76805
L89400 76805
L89456 76833
L89484 76861
L89512 76917
L89512 76974
L89484 77058
L89147 77395
L89512 77395
" />
</g>
<g style="fill:#000000; fill-opacity:0.0; 
stroke:#000000; stroke-width:39.3701; stroke-opacity:1; 
stroke-linecap:round; stroke-linejoin:round;">
</g>
<g style="fill:#000000; fill-opacity:0.0; 
stroke:#000000; stroke-width:59.0551; stroke-opacity:1; 
stroke-linecap:round; stroke-linejoin:round;">
<path d="M69685 75396
L112205 75396
" />
</g>
<g style="fill:#000000; fill-opacity:0.0; 
stroke:#000000; stroke-width:39.3701; stroke-opacity:1; 
stroke-linecap:round; stroke-linejoin:round;">
</g>
<g style="fill:#000000; fill-opacity:0.0; 
stroke:#000000; stroke-width:118.11; stroke-opacity:1; 
stroke-linecap:round; stroke-linejoin:round;">
<text x="103544" y="76321.7"
textLength="2336.9" font-size="787.402" lengthAdjust="spacingAndGlyphs"
text-anchor="start" opacity="0">Rev: </text>
<path d="M104099 76293
L103902 76012
" />
<path d="M103761 76293
L103761 75703
L103986 75703
L104042 75731
L104070 75759
L104099 75815
L104099 75899
L104070 75956
L104042 75984
L103986 76012
L103761 76012
" />
<path d="M104577 76265
L104520 76293
L104408 76293
L104352 76265
L104323 76209
L104323 75984
L104352 75928
L104408 75899
L104520 75899
L104577 75928
L104605 75984
L104605 76040
L104323 76096
" />
<path d="M104802 75899
L104942 76293
L105083 75899
" />
<path d="M105308 76237
L105336 76265
L105308 76293
L105280 76265
L105308 76237
L105308 76293
" />
<path d="M105308 75928
L105336 75956
L105308 75984
L105280 75956
L105308 75928
L105308 75984
" />
</g>
<g style="fill:#000000; fill-opacity:0.0; 
stroke:#000000; stroke-width:39.3701; stroke-opacity:1; 
stroke-linecap:round; stroke-linejoin:round;">
</g>
<g style="fill:#000000; fill-opacity:0.0; 
stroke:#000000; stroke-width:59.0551; stroke-opacity:1; 
stroke-linecap:round; stroke-linejoin:round;">
<text x="70079.6" y="76321.7"
textLength="3781.21" font-size="787.402" lengthAdjust="spacingAndGlyphs"
text-anchor="start" opacity="0">Size: A4</text>
<path d="M70221 76265
L70305 76293
L70446 76293
L70502 76265
L70530 76237
L70559 76181
L70559 76124
L70530 76068
L70502 76040
L70446 76012
L70334 75984
L70277 75956
L70249 75928
L70221 75871
L70221 75815
L70249 75759
L70277 75731
L70334 75703
L70474 75703
L70559 75731
" />
<path d="M70812 76293
L70812 75899
" />
<path d="M70812 75703
L70784 75731
L70812 75759
L70840 75731
L70812 75703
L70812 75759
" />
<path d="M71037 75899
L71346 75899
L71037 76293
L71346 76293
" />
<path d="M71796 76265
L71740 76293
L71627 76293
L71571 76265
L71543 76209
L71543 75984
L71571 75928
L71627 75899
L71740 75899
L71796 75928
L71824 75984
L71824 76040
L71543 76096
" />
<path d="M72077 76237
L72105 76265
L72077 76293
L72049 76265
L72077 76237
L72077 76293
" />
<path d="M72077 75928
L72105 75956
L72077 75984
L72049 75956
L72077 75928
L72077 75984
" />
<path d="M72780 76124
L73061 76124
" />
<path d="M72724 76293
L72921 75703
L73118 76293
" />
<path d="M73568 75899
L73568 76293
" />
<path d="M73427 75674
L73286 76096
L73652 76096
" />
</g>
<g style="fill:#000000; fill-opacity:0.0; 
stroke:#000000; stroke-width:39.3701; stroke-opacity:1; 
stroke-linecap:round; stroke-linejoin:round;">
</g>
<g style="fill:#000000; fill-opacity:0.0; 
stroke:#000000; stroke-width:59.0551; stroke-opacity:1; 
stroke-linecap:round; stroke-linejoin:round;">
<text x="103544" y="77424.1"
textLength="3349.27" font-size="787.402" lengthAdjust="spacingAndGlyphs"
text-anchor="start" opacity="0">Id: 1/1</text>
<path d="M103714 77395
L103714 76805
" />
<path d="M104248 77395
L104248 76805
" />
<path d="M104248 77367
L104192 77395
L104079 77395
L104023 77367
L103995 77339
L103967 77283
L103967 77114
L103995 77058
L104023 77030
L104079 77002
L104192 77002
L104248 77030
" />
<path d="M104529 77339
L104557 77367
L104529 77395
L104501 77367
L104529 77339
L104529 77395
" />
<path d="M104529 77030
L104557 77058
L104529 77086
L104501 77058
L104529 77030
L104529 77086
" />
<path d="M105570 77395
L105232 77395
" />
<path d="M105401 77395
L105401 76805
L105345 76889
L105289 76946
L105232 76974
" />
<path d="M106245 76777
L105739 77536
" />
<path d="M106751 77395
L106413 77395
" />
<path d="M106582 77395
L106582 76805
L106526 76889
L106470 76946
L106413 76974
" />
</g>
<g style="fill:#000000; fill-opacity:0.0; 
stroke:#000000; stroke-width:39.3701; stroke-opacity:1; 
stroke-linecap:round; stroke-linejoin:round;">
</g>
<g style="fill:#000000; fill-opacity:0.0; 
stroke:#000000; stroke-width:59.0551; stroke-opacity:1; 
stroke-linecap:round; stroke-linejoin:round;">
<path d="M69685 73821
L112205 73821
" />
</g>
<g style="fill:#000000; fill-opacity:0.0; 
stroke:#000000; stroke-width:39.3701; stroke-opacity:1; 
stroke-linecap:round; stroke-linejoin:round;">
</g>
<g style="fill:#000000; fill-opacity:0.0; 
stroke:#000000; stroke-width:157.48; stroke-opacity:1; 
stroke-linecap:round; stroke-linejoin:round;">
<text x="70079.6" y="74924.1"
textLength="3701.14" font-size="1049.87" lengthAdjust="spacingAndGlyphs"
text-anchor="start" opacity="0">Title: </text>
<path d="M70360 74099
L70810 74099
" />
<path d="M70486 74886
L70585 74099
" />
<path d="M70974 74886
L71039 74361
" />
<path d="M71072 74099
L71030 74136
L71063 74174
L71105 74136
L71072 74099
L71063 74174
" />
<path d="M71302 74361
L71602 74361
" />
<path d="M71447 74099
L71363 74774
L71391 74849
L71461 74886
L71536 74886
" />
<path d="M71911 74886
L71841 74849
L71813 74774
L71897 74099
" />
<path d="M72516 74849
L72436 74886
L72286 74886
L72216 74849
L72187 74774
L72225 74474
L72272 74399
L72352 74361
L72501 74361
L72572 74399
L72600 74474
L72591 74549
L72206 74624
" />
<path d="M72895 74811
L72928 74849
L72886 74886
L72853 74849
L72895 74811
L72886 74886
" />
<path d="M72947 74399
L72980 74436
L72937 74474
L72905 74436
L72947 74399
L72937 74474
" />
</g>
<g style="fill:#000000; fill-opacity:0.0; 
stroke:#000000; stroke-width:39.3701; stroke-opacity:1; 
stroke-linecap:round; stroke-linejoin:round;">
</g>
<g style="fill:#000000; fill-opacity:0.0; 
stroke:#000000; stroke-width:59.0551; stroke-opacity:1; 
stroke-linecap:round; stroke-linejoin:round;">
<text x="70079.6" y="73408.3"
textLength="14490.4" font-size="787.402" lengthAdjust="spacingAndGlyphs"
text-anchor="start" opacity="0">File: Can_prototypage.kicad_pcb</text>
<path d="M70446 73070
L70249 73070
" />
<path d="M70249 73380
L70249 72789
L70530 72789
" />
<path d="M70755 73380
L70755 72986
" />
<path d="M70755 72789
L70727 72817
L70755 72845
L70784 72817
L70755 72789
L70755 72845
" />
<path d="M71121 73380
L71065 73352
L71037 73295
L71037 72789
" />
<path d="M71571 73352
L71515 73380
L71402 73380
L71346 73352
L71318 73295
L71318 73070
L71346 73014
L71402 72986
L71515 72986
L71571 73014
L71599 73070
L71599 73127
L71318 73183
" />
<path d="M71852 73323
L71880 73352
L71852 73380
L71824 73352
L71852 73323
L71852 73380
" />
<path d="M71852 73014
L71880 73042
L71852 73070
L71824 73042
L71852 73014
L71852 73070
" />
<path d="M72921 73323
L72893 73352
L72808 73380
L72752 73380
L72668 73352
L72611 73295
L72583 73239
L72555 73127
L72555 73042
L72583 72930
L72611 72874
L72668 72817
L72752 72789
L72808 72789
L72893 72817
L72921 72845
" />
<path d="M73427 73380
L73427 73070
L73399 73014
L73343 72986
L73230 72986
L73174 73014
" />
<path d="M73427 73352
L73371 73380
L73230 73380
L73174 73352
L73146 73295
L73146 73239
L73174 73183
L73230 73155
L73371 73155
L73427 73127
" />
<path d="M73708 72986
L73708 73380
" />
<path d="M73708 73042
L73736 73014
L73793 72986
L73877 72986
L73933 73014
L73961 73070
L73961 73380
" />
<path d="M74102 73436
L74552 73436
" />
<path d="M74692 72986
L74692 73577
" />
<path d="M74692 73014
L74749 72986
L74861 72986
L74917 73014
L74946 73042
L74974 73099
L74974 73267
L74946 73323
L74917 73352
L74861 73380
L74749 73380
L74692 73352
" />
<path d="M75227 73380
L75227 72986
" />
<path d="M75227 73099
L75255 73042
L75283 73014
L75339 72986
L75395 72986
" />
<path d="M75677 73380
L75620 73352
L75592 73323
L75564 73267
L75564 73099
L75592 73042
L75620 73014
L75677 72986
L75761 72986
L75817 73014
L75845 73042
L75874 73099
L75874 73267
L75845 73323
L75817 73352
L75761 73380
L75677 73380
" />
<path d="M76042 72986
L76267 72986
" />
<path d="M76127 72789
L76127 73295
L76155 73352
L76211 73380
L76267 73380
" />
<path d="M76548 73380
L76492 73352
L76464 73323
L76436 73267
L76436 73099
L76464 73042
L76492 73014
L76548 72986
L76633 72986
L76689 73014
L76717 73042
L76745 73099
L76745 73267
L76717 73323
L76689 73352
L76633 73380
L76548 73380
" />
<path d="M76914 72986
L77139 72986
" />
<path d="M76998 72789
L76998 73295
L77027 73352
L77083 73380
L77139 73380
" />
<path d="M77280 72986
L77420 73380
" />
<path d="M77561 72986
L77420 73380
L77364 73520
L77336 73548
L77280 73577
" />
<path d="M77786 72986
L77786 73577
" />
<path d="M77786 73014
L77842 72986
L77955 72986
L78011 73014
L78039 73042
L78067 73099
L78067 73267
L78039 73323
L78011 73352
L77955 73380
L77842 73380
L77786 73352
" />
<path d="M78573 73380
L78573 73070
L78545 73014
L78489 72986
L78376 72986
L78320 73014
" />
<path d="M78573 73352
L78517 73380
L78376 73380
L78320 73352
L78292 73295
L78292 73239
L78320 73183
L78376 73155
L78517 73155
L78573 73127
" />
<path d="M79108 72986
L79108 73464
L79079 73520
L79051 73548
L78995 73577
L78911 73577
L78854 73548
" />
<path d="M79108 73352
L79051 73380
L78939 73380
L78883 73352
L78854 73323
L78826 73267
L78826 73099
L78854 73042
L78883 73014
L78939 72986
L79051 72986
L79108 73014
" />
<path d="M79614 73352
L79557 73380
L79445 73380
L79389 73352
L79361 73295
L79361 73070
L79389 73014
L79445 72986
L79557 72986
L79614 73014
L79642 73070
L79642 73127
L79361 73183
" />
<path d="M79895 73323
L79923 73352
L79895 73380
L79867 73352
L79895 73323
L79895 73380
" />
<path d="M80176 73380
L80176 72789
" />
<path d="M80232 73155
L80401 73380
" />
<path d="M80401 72986
L80176 73211
" />
<path d="M80654 73380
L80654 72986
" />
<path d="M80654 72789
L80626 72817
L80654 72845
L80682 72817
L80654 72789
L80654 72845
" />
<path d="M81188 73352
L81132 73380
L81020 73380
L80964 73352
L80935 73323
L80907 73267
L80907 73099
L80935 73042
L80964 73014
L81020 72986
L81132 72986
L81188 73014
" />
<path d="M81695 73380
L81695 73070
L81667 73014
L81610 72986
L81498 72986
L81442 73014
" />
<path d="M81695 73352
L81638 73380
L81498 73380
L81442 73352
L81413 73295
L81413 73239
L81442 73183
L81498 73155
L81638 73155
L81695 73127
" />
<path d="M82229 73380
L82229 72789
" />
<path d="M82229 73352
L82173 73380
L82060 73380
L82004 73352
L81976 73323
L81948 73267
L81948 73099
L81976 73042
L82004 73014
L82060 72986
L82173 72986
L82229 73014
" />
<path d="M82370 73436
L82820 73436
" />
<path d="M82960 72986
L82960 73577
" />
<path d="M82960 73014
L83016 72986
L83129 72986
L83185 73014
L83213 73042
L83241 73099
L83241 73267
L83213 73323
L83185 73352
L83129 73380
L83016 73380
L82960 73352
" />
<path d="M83748 73352
L83691 73380
L83579 73380
L83523 73352
L83494 73323
L83466 73267
L83466 73099
L83494 73042
L83523 73014
L83579 72986
L83691 72986
L83748 73014
" />
<path d="M84001 73380
L84001 72789
" />
<path d="M84001 73014
L84057 72986
L84169 72986
L84226 73014
L84254 73042
L84282 73099
L84282 73267
L84254 73323
L84226 73352
L84169 73380
L84057 73380
L84001 73352
" />
</g>
<g style="fill:#000000; fill-opacity:0.0; 
stroke:#000000; stroke-width:39.3701; stroke-opacity:1; 
stroke-linecap:round; stroke-linejoin:round;">
</g>
<g style="fill:#000000; fill-opacity:0.0; 
stroke:#000000; stroke-width:59.0551; stroke-opacity:1; 
stroke-linecap:round; stroke-linejoin:round;">
<path d="M69685 71459
L112205 71459
" />
</g>
<g style="fill:#000000; fill-opacity:0.0; 
stroke:#000000; stroke-width:39.3701; stroke-opacity:1; 
stroke-linecap:round; stroke-linejoin:round;">
</g>
<g style="fill:#000000; fill-opacity:0.0; 
stroke:#000000; stroke-width:59.0551; stroke-opacity:1; 
stroke-linecap:round; stroke-linejoin:round;">
<text x="70079.6" y="72345.4"
textLength="3236.78" font-size="787.402" lengthAdjust="spacingAndGlyphs"
text-anchor="start" opacity="0">Sheet: </text>
<path d="M70221 72289
L70305 72317
L70446 72317
L70502 72289
L70530 72260
L70559 72204
L70559 72148
L70530 72092
L70502 72064
L70446 72036
L70334 72007
L70277 71979
L70249 71951
L70221 71895
L70221 71839
L70249 71782
L70277 71754
L70334 71726
L70474 71726
L70559 71754
" />
<path d="M70812 72317
L70812 71726
" />
<path d="M71065 72317
L71065 72007
L71037 71951
L70980 71923
L70896 71923
L70840 71951
L70812 71979
" />
<path d="M71571 72289
L71515 72317
L71402 72317
L71346 72289
L71318 72232
L71318 72007
L71346 71951
L71402 71923
L71515 71923
L71571 71951
L71599 72007
L71599 72064
L71318 72120
" />
<path d="M72077 72289
L72021 72317
L71908 72317
L71852 72289
L71824 72232
L71824 72007
L71852 71951
L71908 71923
L72021 71923
L72077 71951
L72105 72007
L72105 72064
L71824 72120
" />
<path d="M72274 71923
L72499 71923
" />
<path d="M72358 71726
L72358 72232
L72386 72289
L72443 72317
L72499 72317
" />
<path d="M72696 72260
L72724 72289
L72696 72317
L72668 72289
L72696 72260
L72696 72317
" />
<path d="M72696 71951
L72724 71979
L72696 72007
L72668 71979
L72696 71951
L72696 72007
" />
</g>
<g style="fill:#000000; fill-opacity:0.0; 
stroke:#000000; stroke-width:39.3701; stroke-opacity:1; 
stroke-linecap:round; stroke-linejoin:round;">
</g>
<g style="fill:#000000; fill-opacity:0.0; 
stroke:#000000; stroke-width:59.0551; stroke-opacity:1; 
stroke-linecap:round; stroke-linejoin:round;">
<path d="M77559 75396
L77559 76577
" />
</g>
<g style="fill:#000000; fill-opacity:0.0; 
stroke:#000000; stroke-width:39.3701; stroke-opacity:1; 
stroke-linecap:round; stroke-linejoin:round;">
</g>
<g style="fill:#000000; fill-opacity:0.0; 
stroke:#000000; stroke-width:59.0551; stroke-opacity:1; 
stroke-linecap:round; stroke-linejoin:round;">
<path d="M102756 75396
L102756 77955
" />
</g>
<g style="fill:#000000; fill-opacity:0.0; 
stroke:#000000; stroke-width:118.11; stroke-opacity:1; 
stroke-linecap:round; stroke-linejoin:round;">
<text x="25000" y="20545.3"
textLength="2899.33" font-size="787.402" lengthAdjust="spacingAndGlyphs"
text-anchor="middle" opacity="0">ID AAA</text>
<path d="M23720 20517
L23720 19926
" />
<path d="M24001 20517
L24001 19926
L24142 19926
L24226 19954
L24282 20010
L24311 20067
L24339 20179
L24339 20264
L24311 20376
L24282 20432
L24226 20489
L24142 20517
L24001 20517
" />
<path d="M25014 20348
L25295 20348
" />
<path d="M24957 20517
L25154 19926
L25351 20517
" />
<path d="M25520 20348
L25801 20348
" />
<path d="M25464 20517
L25660 19926
L25857 20517
" />
<path d="M26026 20348
L26307 20348
" />
<path d="M25970 20517
L26167 19926
L26363 20517
" />
<text x="18000" y="20545.3"
textLength="8730.6" font-size="787.402" lengthAdjust="spacingAndGlyphs"
text-anchor="middle" opacity="0">Andrea Perez 2022</text>
<path d="M13823 20348
L14105 20348
" />
<path d="M13767 20517
L13964 19926
L14161 20517
" />
<path d="M14358 20123
L14358 20517
" />
<path d="M14358 20179
L14386 20151
L14442 20123
L14526 20123
L14583 20151
L14611 20207
L14611 20517
" />
<path d="M15145 20517
L15145 19926
" />
<path d="M15145 20489
L15089 20517
L14976 20517
L14920 20489
L14892 20460
L14864 20404
L14864 20235
L14892 20179
L14920 20151
L14976 20123
L15089 20123
L15145 20151
" />
<path d="M15426 20517
L15426 20123
" />
<path d="M15426 20235
L15455 20179
L15483 20151
L15539 20123
L15595 20123
" />
<path d="M16017 20489
L15961 20517
L15848 20517
L15792 20489
L15764 20432
L15764 20207
L15792 20151
L15848 20123
L15961 20123
L16017 20151
L16045 20207
L16045 20264
L15764 20320
" />
<path d="M16551 20517
L16551 20207
L16523 20151
L16467 20123
L16354 20123
L16298 20151
" />
<path d="M16551 20489
L16495 20517
L16354 20517
L16298 20489
L16270 20432
L16270 20376
L16298 20320
L16354 20292
L16495 20292
L16551 20264
" />
<path d="M17282 20517
L17282 19926
L17507 19926
L17564 19954
L17592 19982
L17620 20039
L17620 20123
L17592 20179
L17564 20207
L17507 20235
L17282 20235
" />
<path d="M18098 20489
L18042 20517
L17929 20517
L17873 20489
L17845 20432
L17845 20207
L17873 20151
L17929 20123
L18042 20123
L18098 20151
L18126 20207
L18126 20264
L17845 20320
" />
<path d="M18379 20517
L18379 20123
" />
<path d="M18379 20235
L18407 20179
L18435 20151
L18492 20123
L18548 20123
" />
<path d="M18970 20489
L18913 20517
L18801 20517
L18745 20489
L18717 20432
L18717 20207
L18745 20151
L18801 20123
L18913 20123
L18970 20151
L18998 20207
L18998 20264
L18717 20320
" />
<path d="M19195 20123
L19504 20123
L19195 20517
L19504 20517
" />
<path d="M20151 19982
L20179 19954
L20235 19926
L20376 19926
L20432 19954
L20460 19982
L20488 20039
L20488 20095
L20460 20179
L20123 20517
L20488 20517
" />
<path d="M20854 19926
L20910 19926
L20966 19954
L20994 19982
L21023 20039
L21051 20151
L21051 20292
L21023 20404
L20994 20460
L20966 20489
L20910 20517
L20854 20517
L20798 20489
L20769 20460
L20741 20404
L20713 20292
L20713 20151
L20741 20039
L20769 19982
L20798 19954
L20854 19926
" />
<path d="M21276 19982
L21304 19954
L21360 19926
L21501 19926
L21557 19954
L21585 19982
L21613 20039
L21613 20095
L21585 20179
L21248 20517
L21613 20517
" />
<path d="M21838 19982
L21866 19954
L21922 19926
L22063 19926
L22119 19954
L22147 19982
L22176 20039
L22176 20095
L22147 20179
L21810 20517
L22176 20517
" />
<text x="11750" y="13545.3"
textLength="1953.32" font-size="787.402" lengthAdjust="spacingAndGlyphs"
text-anchor="middle" opacity="0">GND</text>
<path d="M11300 12954
L11243 12926
L11159 12926
L11075 12954
L11018 13010
L10990 13067
L10962 13179
L10962 13264
L10990 13376
L11018 13432
L11075 13489
L11159 13517
L11215 13517
L11300 13489
L11328 13460
L11328 13264
L11215 13264
" />
<path d="M11581 13517
L11581 12926
L11918 13517
L11918 12926
" />
<path d="M12199 13517
L12199 12926
L12340 12926
L12424 12954
L12481 13010
L12509 13067
L12537 13179
L12537 13264
L12509 13376
L12481 13432
L12424 13489
L12340 13517
L12199 13517
" />
<text x="18000" y="18795.3"
textLength="10783.5" font-size="787.402" lengthAdjust="spacingAndGlyphs"
text-anchor="middle" opacity="0">CAN MCP25551 Adaptor</text>
<path d="M13163 18710
L13134 18739
L13050 18767
L12994 18767
L12910 18739
L12853 18682
L12825 18626
L12797 18514
L12797 18429
L12825 18317
L12853 18260
L12910 18204
L12994 18176
L13050 18176
L13134 18204
L13163 18232
" />
<path d="M13388 18598
L13669 18598
" />
<path d="M13331 18767
L13528 18176
L13725 18767
" />
<path d="M13922 18767
L13922 18176
L14259 18767
L14259 18176
" />
<path d="M14991 18767
L14991 18176
L15187 18598
L15384 18176
L15384 18767
" />
<path d="M16003 18710
L15975 18739
L15890 18767
L15834 18767
L15750 18739
L15694 18682
L15665 18626
L15637 18514
L15637 18429
L15665 18317
L15694 18260
L15750 18204
L15834 18176
L15890 18176
L15975 18204
L16003 18232
" />
<path d="M16256 18767
L16256 18176
L16481 18176
L16537 18204
L16565 18232
L16593 18289
L16593 18373
L16565 18429
L16537 18457
L16481 18485
L16256 18485
" />
<path d="M16818 18232
L16847 18204
L16903 18176
L17043 18176
L17100 18204
L17128 18232
L17156 18289
L17156 18345
L17128 18429
L16790 18767
L17156 18767
" />
<path d="M17690 18176
L17409 18176
L17381 18457
L17409 18429
L17465 18401
L17606 18401
L17662 18429
L17690 18457
L17718 18514
L17718 18654
L17690 18710
L17662 18739
L17606 18767
L17465 18767
L17409 18739
L17381 18710
" />
<path d="M18253 18176
L17971 18176
L17943 18457
L17971 18429
L18028 18401
L18168 18401
L18224 18429
L18253 18457
L18281 18514
L18281 18654
L18253 18710
L18224 18739
L18168 18767
L18028 18767
L17971 18739
L17943 18710
" />
<path d="M18815 18176
L18534 18176
L18506 18457
L18534 18429
L18590 18401
L18731 18401
L18787 18429
L18815 18457
L18843 18514
L18843 18654
L18815 18710
L18787 18739
L18731 18767
L18590 18767
L18534 18739
L18506 18710
" />
<path d="M19406 18767
L19068 18767
" />
<path d="M19237 18767
L19237 18176
L19181 18260
L19124 18317
L19068 18345
" />
<path d="M20080 18598
L20362 18598
" />
<path d="M20024 18767
L20221 18176
L20418 18767
" />
<path d="M20868 18767
L20868 18176
" />
<path d="M20868 18739
L20812 18767
L20699 18767
L20643 18739
L20615 18710
L20587 18654
L20587 18485
L20615 18429
L20643 18401
L20699 18373
L20812 18373
L20868 18401
" />
<path d="M21402 18767
L21402 18457
L21374 18401
L21318 18373
L21205 18373
L21149 18401
" />
<path d="M21402 18739
L21346 18767
L21205 18767
L21149 18739
L21121 18682
L21121 18626
L21149 18570
L21205 18542
L21346 18542
L21402 18514
" />
<path d="M21683 18373
L21683 18964
" />
<path d="M21683 18401
L21740 18373
L21852 18373
L21908 18401
L21937 18429
L21965 18485
L21965 18654
L21937 18710
L21908 18739
L21852 18767
L21740 18767
L21683 18739
" />
<path d="M22133 18373
L22358 18373
" />
<path d="M22218 18176
L22218 18682
L22246 18739
L22302 18767
L22358 18767
" />
<path d="M22640 18767
L22583 18739
L22555 18710
L22527 18654
L22527 18485
L22555 18429
L22583 18401
L22640 18373
L22724 18373
L22780 18401
L22808 18429
L22836 18485
L22836 18654
L22808 18710
L22780 18739
L22724 18767
L22640 18767
" />
<path d="M23089 18767
L23089 18373
" />
<path d="M23089 18485
L23118 18429
L23146 18401
L23202 18373
L23258 18373
" />
<text x="23750" y="16295.3"
textLength="1868.95" font-size="787.402" lengthAdjust="spacingAndGlyphs"
text-anchor="middle" opacity="0">Vref</text>
<path d="M22948 15676
L23145 16267
L23342 15676
" />
<path d="M23539 16267
L23539 15873
" />
<path d="M23539 15985
L23567 15929
L23595 15901
L23651 15873
L23707 15873
" />
<path d="M24129 16239
L24073 16267
L23960 16267
L23904 16239
L23876 16182
L23876 15957
L23904 15901
L23960 15873
L24073 15873
L24129 15901
L24157 15957
L24157 16014
L23876 16070
" />
<path d="M24326 15873
L24551 15873
" />
<path d="M24410 16267
L24410 15760
L24438 15704
L24495 15676
L24551 15676
" />
<text x="24000" y="13795.3"
textLength="2487.63" font-size="787.402" lengthAdjust="spacingAndGlyphs"
text-anchor="middle" opacity="0">CANH</text>
<path d="M23311 13710
L23282 13739
L23198 13767
L23142 13767
L23057 13739
L23001 13682
L22973 13626
L22945 13514
L22945 13429
L22973 13317
L23001 13260
L23057 13204
L23142 13176
L23198 13176
L23282 13204
L23311 13232
" />
<path d="M23535 13598
L23817 13598
" />
<path d="M23479 13767
L23676 13176
L23873 13767
" />
<path d="M24070 13767
L24070 13176
L24407 13767
L24407 13176
" />
<path d="M24688 13767
L24688 13176
" />
<path d="M24688 13457
L25026 13457
" />
<path d="M25026 13767
L25026 13176
" />
<text x="24000" y="15045.3"
textLength="2347.02" font-size="787.402" lengthAdjust="spacingAndGlyphs"
text-anchor="middle" opacity="0">CANL</text>
<path d="M23381 14960
L23353 14989
L23268 15017
L23212 15017
L23128 14989
L23071 14932
L23043 14876
L23015 14764
L23015 14679
L23043 14567
L23071 14510
L23128 14454
L23212 14426
L23268 14426
L23353 14454
L23381 14482
" />
<path d="M23606 14848
L23887 14848
" />
<path d="M23550 15017
L23746 14426
L23943 15017
" />
<path d="M24140 15017
L24140 14426
L24478 15017
L24478 14426
" />
<path d="M25040 15017
L24759 15017
L24759 14426
" />
<text x="23500" y="12545.3"
textLength="1306.52" font-size="787.402" lengthAdjust="spacingAndGlyphs"
text-anchor="middle" opacity="0">RS</text>
<path d="M23401 12517
L23204 12235
" />
<path d="M23064 12517
L23064 11926
L23289 11926
L23345 11954
L23373 11982
L23401 12039
L23401 12123
L23373 12179
L23345 12207
L23289 12235
L23064 12235
" />
<path d="M23626 12489
L23710 12517
L23851 12517
L23907 12489
L23935 12460
L23964 12404
L23964 12348
L23935 12292
L23907 12264
L23851 12235
L23739 12207
L23682 12179
L23654 12151
L23626 12095
L23626 12039
L23654 11982
L23682 11954
L23739 11926
L23879 11926
L23964 11954
" />
<text x="11750" y="16295.3"
textLength="1897.08" font-size="787.402" lengthAdjust="spacingAndGlyphs"
text-anchor="middle" opacity="0">RXD</text>
<path d="M11356 16267
L11159 15985
" />
<path d="M11018 16267
L11018 15676
L11243 15676
L11300 15704
L11328 15732
L11356 15789
L11356 15873
L11328 15929
L11300 15957
L11243 15985
L11018 15985
" />
<path d="M11553 15676
L11946 16267
" />
<path d="M11946 15676
L11553 16267
" />
<path d="M12171 16267
L12171 15676
L12312 15676
L12396 15704
L12453 15760
L12481 15817
L12509 15929
L12509 16014
L12481 16126
L12453 16182
L12396 16239
L12312 16267
L12171 16267
" />
<text x="11750" y="14795.3"
textLength="1840.83" font-size="787.402" lengthAdjust="spacingAndGlyphs"
text-anchor="middle" opacity="0">VDD</text>
<path d="M10962 14176
L11159 14767
L11356 14176
" />
<path d="M11553 14767
L11553 14176
L11693 14176
L11778 14204
L11834 14260
L11862 14317
L11890 14429
L11890 14514
L11862 14626
L11834 14682
L11778 14739
L11693 14767
L11553 14767
" />
<path d="M12143 14767
L12143 14176
L12284 14176
L12368 14204
L12424 14260
L12453 14317
L12481 14429
L12481 14514
L12453 14626
L12424 14682
L12368 14739
L12284 14767
L12143 14767
" />
<text x="11750" y="12295.3"
textLength="1756.47" font-size="787.402" lengthAdjust="spacingAndGlyphs"
text-anchor="middle" opacity="0">TXD</text>
<path d="M11004 11676
L11342 11676
" />
<path d="M11173 12267
L11173 11676
" />
<path d="M11482 11676
L11876 12267
" />
<path d="M11876 11676
L11482 12267
" />
<path d="M12101 12267
L12101 11676
L12242 11676
L12326 11704
L12382 11760
L12410 11817
L12438 11929
L12438 12014
L12410 12126
L12382 12182
L12326 12239
L12242 12267
L12101 12267
" />
<g >
</g>
<g style="fill:#000000; fill-opacity:0.0; 
stroke:#000000; stroke-width:0; stroke-opacity:1; 
stroke-linecap:round; stroke-linejoin:round;">
</g>
<g style="fill:#000000; fill-opacity:1.0; 
stroke:#000000; stroke-width:0; stroke-opacity:1; 
stroke-linecap:round; stroke-linejoin:round;">
<path style="fill:#000000; fill-opacity:1.0; 
stroke:#000000; stroke-width:0; stroke-opacity:1; 
stroke-linecap:round; stroke-linejoin:round;fill-rule:evenodd;"
d="M 20915.4,12834.6
20915.4,12165.4
21584.6,12165.4
21584.6,12834.6
Z" /> 
</g>
<g style="fill:#000000; fill-opacity:1.0; 
stroke:#000000; stroke-width:669.291; stroke-opacity:1; 
stroke-linecap:round; stroke-linejoin:round;">
</g>
<g style="fill:#000000; fill-opacity:0.0; 
stroke:#000000; stroke-width:669.291; stroke-opacity:1; 
stroke-linecap:round; stroke-linejoin:round;">
<path d="M21250 13500
L21250 13500
" />
<path d="M21250 14500
L21250 14500
" />
<path d="M21250 15500
L21250 15500
" />
</g>
<g >
</g>
<g style="fill:#000000; fill-opacity:0.0; 
stroke:#000000; stroke-width:669.291; stroke-opacity:1; 
stroke-linecap:round; stroke-linejoin:round;">
</g>
<g style="fill:#000000; fill-opacity:0.0; 
stroke:#000000; stroke-width:0; stroke-opacity:1; 
stroke-linecap:round; stroke-linejoin:round;">
</g>
<g style="fill:#000000; fill-opacity:1.0; 
stroke:#000000; stroke-width:0; stroke-opacity:1; 
stroke-linecap:round; stroke-linejoin:round;">
<path style="fill:#000000; fill-opacity:1.0; 
stroke:#000000; stroke-width:0; stroke-opacity:1; 
stroke-linecap:round; stroke-linejoin:round;fill-rule:evenodd;"
d="M 16822.7,12955
16828.5,12955.9
16834.1,12957.3
16839.5,12959.2
16844.8,12961.7
16849.7,12964.7
16854.4,12968.1
16858.7,12972
16862.6,12976.3
16866,12981
16869,12985.9
16871.5,12991.2
16873.4,12996.6
16874.8,13002.3
16875.7,13008
16876,13013.8
16876,13131.9
16875.7,13137.7
16874.8,13143.4
16873.4,13149
16871.5,13154.5
16869,13159.7
16866,13164.7
16862.6,13169.4
16858.7,13173.6
16854.4,13177.5
16849.7,13181
16844.8,13184
16839.5,13186.4
16834.1,13188.4
16828.5,13189.8
16822.7,13190.7
16816.9,13190.9
16167.3,13190.9
16161.5,13190.7
16155.8,13189.8
16150.2,13188.4
16144.7,13186.4
16139.5,13184
16134.5,13181
16129.9,13177.5
16125.6,13173.6
16121.7,13169.4
16118.2,13164.7
16115.2,13159.7
16112.8,13154.5
16110.8,13149
16109.4,13143.4
16108.6,13137.7
16108.3,13131.9
16108.3,13013.8
16108.6,13008
16109.4,13002.3
16110.8,12996.6
16112.8,12991.2
16115.2,12985.9
16118.2,12981
16121.7,12976.3
16125.6,12972
16129.9,12968.1
16134.5,12964.7
16139.5,12961.7
16144.7,12959.2
16150.2,12957.3
16155.8,12955.9
16161.5,12955
16167.3,12954.7
16816.9,12954.7
Z" /> 
<path style="fill:#000000; fill-opacity:1.0; 
stroke:#000000; stroke-width:0; stroke-opacity:1; 
stroke-linecap:round; stroke-linejoin:round;fill-rule:evenodd;"
d="M 16822.7,13455
16828.5,13455.9
16834.1,13457.3
16839.5,13459.2
16844.8,13461.7
16849.7,13464.7
16854.4,13468.1
16858.7,13472
16862.6,13476.3
16866,13481
16869,13485.9
16871.5,13491.2
16873.4,13496.6
16874.8,13502.3
16875.7,13508
16876,13513.8
16876,13631.9
16875.7,13637.7
16874.8,13643.4
16873.4,13649
16871.5,13654.5
16869,13659.7
16866,13664.7
16862.6,13669.4
16858.7,13673.6
16854.4,13677.5
16849.7,13681
16844.8,13684
16839.5,13686.4
16834.1,13688.4
16828.5,13689.8
16822.7,13690.7
16816.9,13690.9
16167.3,13690.9
16161.5,13690.7
16155.8,13689.8
16150.2,13688.4
16144.7,13686.4
16139.5,13684
16134.5,13681
16129.9,13677.5
16125.6,13673.6
16121.7,13669.4
16118.2,13664.7
16115.2,13659.7
16112.8,13654.5
16110.8,13649
16109.4,13643.4
16108.6,13637.7
16108.3,13631.9
16108.3,13513.8
16108.6,13508
16109.4,13502.3
16110.8,13496.6
16112.8,13491.2
16115.2,13485.9
16118.2,13481
16121.7,13476.3
16125.6,13472
16129.9,13468.1
16134.5,13464.7
16139.5,13461.7
16144.7,13459.2
16150.2,13457.3
16155.8,13455.9
16161.5,13455
16167.3,13454.7
16816.9,13454.7
Z" /> 
<path style="fill:#000000; fill-opacity:1.0; 
stroke:#000000; stroke-width:0; stroke-opacity:1; 
stroke-linecap:round; stroke-linejoin:round;fill-rule:evenodd;"
d="M 16822.7,13955
16828.5,13955.9
16834.1,13957.3
16839.5,13959.2
16844.8,13961.7
16849.7,13964.7
16854.4,13968.1
16858.7,13972
16862.6,13976.3
16866,13981
16869,13985.9
16871.5,13991.2
16873.4,13996.6
16874.8,14002.3
16875.7,14008
16876,14013.8
16876,14131.9
16875.7,14137.7
16874.8,14143.4
16873.4,14149
16871.5,14154.5
16869,14159.7
16866,14164.7
16862.6,14169.4
16858.7,14173.6
16854.4,14177.5
16849.7,14181
16844.8,14184
16839.5,14186.4
16834.1,14188.4
16828.5,14189.8
16822.7,14190.7
16816.9,14190.9
16167.3,14190.9
16161.5,14190.7
16155.8,14189.8
16150.2,14188.4
16144.7,14186.4
16139.5,14184
16134.5,14181
16129.9,14177.5
16125.6,14173.6
16121.7,14169.4
16118.2,14164.7
16115.2,14159.7
16112.8,14154.5
16110.8,14149
16109.4,14143.4
16108.6,14137.7
16108.3,14131.9
16108.3,14013.8
16108.6,14008
16109.4,14002.3
16110.8,13996.6
16112.8,13991.2
16115.2,13985.9
16118.2,13981
16121.7,13976.3
16125.6,13972
16129.9,13968.1
16134.5,13964.7
16139.5,13961.7
16144.7,13959.2
16150.2,13957.3
16155.8,13955.9
16161.5,13955
16167.3,13954.7
16816.9,13954.7
Z" /> 
<path style="fill:#000000; fill-opacity:1.0; 
stroke:#000000; stroke-width:0; stroke-opacity:1; 
stroke-linecap:round; stroke-linejoin:round;fill-rule:evenodd;"
d="M 16822.7,14455
16828.5,14455.9
16834.1,14457.3
16839.5,14459.2
16844.8,14461.7
16849.7,14464.7
16854.4,14468.1
16858.7,14472
16862.6,14476.3
16866,14481
16869,14485.9
16871.5,14491.2
16873.4,14496.6
16874.8,14502.3
16875.7,14508
16876,14513.8
16876,14631.9
16875.7,14637.7
16874.8,14643.4
16873.4,14649
16871.5,14654.5
16869,14659.7
16866,14664.7
16862.6,14669.4
16858.7,14673.6
16854.4,14677.5
16849.7,14681
16844.8,14684
16839.5,14686.4
16834.1,14688.4
16828.5,14689.8
16822.7,14690.7
16816.9,14690.9
16167.3,14690.9
16161.5,14690.7
16155.8,14689.8
16150.2,14688.4
16144.7,14686.4
16139.5,14684
16134.5,14681
16129.9,14677.5
16125.6,14673.6
16121.7,14669.4
16118.2,14664.7
16115.2,14659.7
16112.8,14654.5
16110.8,14649
16109.4,14643.4
16108.6,14637.7
16108.3,14631.9
16108.3,14513.8
16108.6,14508
16109.4,14502.3
16110.8,14496.6
16112.8,14491.2
16115.2,14485.9
16118.2,14481
16121.7,14476.3
16125.6,14472
16129.9,14468.1
16134.5,14464.7
16139.5,14461.7
16144.7,14459.2
16150.2,14457.3
16155.8,14455.9
16161.5,14455
16167.3,14454.7
16816.9,14454.7
Z" /> 
<path style="fill:#000000; fill-opacity:1.0; 
stroke:#000000; stroke-width:0; stroke-opacity:1; 
stroke-linecap:round; stroke-linejoin:round;fill-rule:evenodd;"
d="M 18771.5,14455
18777.3,14455.9
18782.9,14457.3
18788.3,14459.2
18793.6,14461.7
18798.6,14464.7
18803.2,14468.1
18807.5,14472
18811.4,14476.3
18814.9,14481
18817.8,14485.9
18820.3,14491.2
18822.3,14496.6
18823.7,14502.3
18824.5,14508
18824.8,14513.8
18824.8,14631.9
18824.5,14637.7
18823.7,14643.4
18822.3,14649
18820.3,14654.5
18817.8,14659.7
18814.9,14664.7
18811.4,14669.4
18807.5,14673.6
18803.2,14677.5
18798.6,14681
18793.6,14684
18788.3,14686.4
18782.9,14688.4
18777.3,14689.8
18771.5,14690.7
18765.7,14690.9
18116.1,14690.9
18110.4,14690.7
18104.6,14689.8
18099,14688.4
18093.5,14686.4
18088.3,14684
18083.3,14681
18078.7,14677.5
18074.4,14673.6
18070.5,14669.4
18067,14664.7
18064.1,14659.7
18061.6,14654.5
18059.6,14649
18058.2,14643.4
18057.4,14637.7
18057.1,14631.9
18057.1,14513.8
18057.4,14508
18058.2,14502.3
18059.6,14496.6
18061.6,14491.2
18064.1,14485.9
18067,14481
18070.5,14476.3
18074.4,14472
18078.7,14468.1
18083.3,14464.7
18088.3,14461.7
18093.5,14459.2
18099,14457.3
18104.6,14455.9
18110.4,14455
18116.1,14454.7
18765.7,14454.7
Z" /> 
<path style="fill:#000000; fill-opacity:1.0; 
stroke:#000000; stroke-width:0; stroke-opacity:1; 
stroke-linecap:round; stroke-linejoin:round;fill-rule:evenodd;"
d="M 18771.5,13955
18777.3,13955.9
18782.9,13957.3
18788.3,13959.2
18793.6,13961.7
18798.6,13964.7
18803.2,13968.1
18807.5,13972
18811.4,13976.3
18814.9,13981
18817.8,13985.9
18820.3,13991.2
18822.3,13996.6
18823.7,14002.3
18824.5,14008
18824.8,14013.8
18824.8,14131.9
18824.5,14137.7
18823.7,14143.4
18822.3,14149
18820.3,14154.5
18817.8,14159.7
18814.9,14164.7
18811.4,14169.4
18807.5,14173.6
18803.2,14177.5
18798.6,14181
18793.6,14184
18788.3,14186.4
18782.9,14188.4
18777.3,14189.8
18771.5,14190.7
18765.7,14190.9
18116.1,14190.9
18110.4,14190.7
18104.6,14189.8
18099,14188.4
18093.5,14186.4
18088.3,14184
18083.3,14181
18078.7,14177.5
18074.4,14173.6
18070.5,14169.4
18067,14164.7
18064.1,14159.7
18061.6,14154.5
18059.6,14149
18058.2,14143.4
18057.4,14137.7
18057.1,14131.9
18057.1,14013.8
18057.4,14008
18058.2,14002.3
18059.6,13996.6
18061.6,13991.2
18064.1,13985.9
18067,13981
18070.5,13976.3
18074.4,13972
18078.7,13968.1
18083.3,13964.7
18088.3,13961.7
18093.5,13959.2
18099,13957.3
18104.6,13955.9
18110.4,13955
18116.1,13954.7
18765.7,13954.7
Z" /> 
<path style="fill:#000000; fill-opacity:1.0; 
stroke:#000000; stroke-width:0; stroke-opacity:1; 
stroke-linecap:round; stroke-linejoin:round;fill-rule:evenodd;"
d="M 18771.5,13455
18777.3,13455.9
18782.9,13457.3
18788.3,13459.2
18793.6,13461.7
18798.6,13464.7
18803.2,13468.1
18807.5,13472
18811.4,13476.3
18814.9,13481
18817.8,13485.9
18820.3,13491.2
18822.3,13496.6
18823.7,13502.3
18824.5,13508
18824.8,13513.8
18824.8,13631.9
18824.5,13637.7
18823.7,13643.4
18822.3,13649
18820.3,13654.5
18817.8,13659.7
18814.9,13664.7
18811.4,13669.4
18807.5,13673.6
18803.2,13677.5
18798.6,13681
18793.6,13684
18788.3,13686.4
18782.9,13688.4
18777.3,13689.8
18771.5,13690.7
18765.7,13690.9
18116.1,13690.9
18110.4,13690.7
18104.6,13689.8
18099,13688.4
18093.5,13686.4
18088.3,13684
18083.3,13681
18078.7,13677.5
18074.4,13673.6
18070.5,13669.4
18067,13664.7
18064.1,13659.7
18061.6,13654.5
18059.6,13649
18058.2,13643.4
18057.4,13637.7
18057.1,13631.9
18057.1,13513.8
18057.4,13508
18058.2,13502.3
18059.6,13496.6
18061.6,13491.2
18064.1,13485.9
18067,13481
18070.5,13476.3
18074.4,13472
18078.7,13468.1
18083.3,13464.7
18088.3,13461.7
18093.5,13459.2
18099,13457.3
18104.6,13455.9
18110.4,13455
18116.1,13454.7
18765.7,13454.7
Z" /> 
<path style="fill:#000000; fill-opacity:1.0; 
stroke:#000000; stroke-width:0; stroke-opacity:1; 
stroke-linecap:round; stroke-linejoin:round;fill-rule:evenodd;"
d="M 18771.5,12955
18777.3,12955.9
18782.9,12957.3
18788.3,12959.2
18793.6,12961.7
18798.6,12964.7
18803.2,12968.1
18807.5,12972
18811.4,12976.3
18814.9,12981
18817.8,12985.9
18820.3,12991.2
18822.3,12996.6
18823.7,13002.3
18824.5,13008
18824.8,13013.8
18824.8,13131.9
18824.5,13137.7
18823.7,13143.4
18822.3,13149
18820.3,13154.5
18817.8,13159.7
18814.9,13164.7
18811.4,13169.4
18807.5,13173.6
18803.2,13177.5
18798.6,13181
18793.6,13184
18788.3,13186.4
18782.9,13188.4
18777.3,13189.8
18771.5,13190.7
18765.7,13190.9
18116.1,13190.9
18110.4,13190.7
18104.6,13189.8
18099,13188.4
18093.5,13186.4
18088.3,13184
18083.3,13181
18078.7,13177.5
18074.4,13173.6
18070.5,13169.4
18067,13164.7
18064.1,13159.7
18061.6,13154.5
18059.6,13149
18058.2,13143.4
18057.4,13137.7
18057.1,13131.9
18057.1,13013.8
18057.4,13008
18058.2,13002.3
18059.6,12996.6
18061.6,12991.2
18064.1,12985.9
18067,12981
18070.5,12976.3
18074.4,12972
18078.7,12968.1
18083.3,12964.7
18088.3,12961.7
18093.5,12959.2
18099,12957.3
18104.6,12955.9
18110.4,12955
18116.1,12954.7
18765.7,12954.7
Z" /> 
</g>
<g >
</g>
<g style="fill:#000000; fill-opacity:1.0; 
stroke:#000000; stroke-width:0; stroke-opacity:1; 
stroke-linecap:round; stroke-linejoin:round;">
<path style="fill:#000000; fill-opacity:1.0; 
stroke:#000000; stroke-width:0; stroke-opacity:1; 
stroke-linecap:round; stroke-linejoin:round;fill-rule:evenodd;"
d="M 13165.4,12584.6
13165.4,11915.4
13834.6,11915.4
13834.6,12584.6
Z" /> 
</g>
<g style="fill:#000000; fill-opacity:1.0; 
stroke:#000000; stroke-width:669.291; stroke-opacity:1; 
stroke-linecap:round; stroke-linejoin:round;">
</g>
<g style="fill:#000000; fill-opacity:0.0; 
stroke:#000000; stroke-width:669.291; stroke-opacity:1; 
stroke-linecap:round; stroke-linejoin:round;">
<path d="M13500 13250
L13500 13250
" />
<path d="M13500 14250
L13500 14250
" />
<path d="M13500 15250
L13500 15250
" />
</g>
<g >
</g>
<g >
</g>
<g style="fill:#000000; fill-opacity:0.0; 
stroke:#000000; stroke-width:669.291; stroke-opacity:1; 
stroke-linecap:round; stroke-linejoin:round;">
</g>
<g style="fill:#000000; fill-opacity:0.0; 
stroke:#000000; stroke-width:98.4252; stroke-opacity:1; 
stroke-linecap:round; stroke-linejoin:round;">
<path d="M16419 13000
L16492 13072
" />
</g>
<g style="fill:#000000; fill-opacity:0.0; 
stroke:#000000; stroke-width:157.48; stroke-opacity:1; 
stroke-linecap:round; stroke-linejoin:round;">
<path d="M15669 12250
L16492 13072
" />
<path d="M13500 12250
L15669 12250
" />
<path d="M19013 12500
L21250 12500
" />
<path d="M18440 13072
L19013 12500
" />
</g>
<g style="fill:#000000; fill-opacity:0.0; 
stroke:#000000; stroke-width:98.4252; stroke-opacity:1; 
stroke-linecap:round; stroke-linejoin:round;">
<path d="M16108 13572
L16492 13572
" />
</g>
<g style="fill:#000000; fill-opacity:0.0; 
stroke:#000000; stroke-width:157.48; stroke-opacity:1; 
stroke-linecap:round; stroke-linejoin:round;">
<path d="M16480 13584
L16492 13572
" />
<path d="M13834 13584
L16480 13584
" />
<path d="M13500 13250
L13834 13584
" />
<path d="M16108 14072
L16492 14072
" />
<path d="M13677 14072
L13500 14250
" />
<path d="M16492 14072
L13677 14072
" />
<path d="M21177 13572
L21250 13500
" />
<path d="M18440 13572
L21177 13572
" />
<path d="M18440 14572
L19368 15500
" />
<path d="M19368 15500
L21250 15500
" />
<path d="M18824 14072
L18440 14072
" />
<path d="M20822 14072
L18440 14072
" />
<path d="M21250 14500
L20822 14072
" />
<path d="M15814 15250
L16492 14572
" />
<path d="M13500 15250
L15814 15250
" />
</g>
<g >
</g>
<g style="fill:#000000; fill-opacity:0.0; 
stroke:#000000; stroke-width:157.48; stroke-opacity:1; 
stroke-linecap:round; stroke-linejoin:round;">
</g>
<g style="fill:#000000; fill-opacity:1.0; 
stroke:#000000; stroke-width:100; stroke-opacity:1; 
stroke-linecap:round; stroke-linejoin:round;">
<path style="fill:#000000; fill-opacity:1.0; 
stroke:#000000; stroke-width:100; stroke-opacity:1; 
stroke-linecap:round; stroke-linejoin:round;fill-rule:evenodd;"
d="M 26981.4,21200
10018.9,21200
10023.4,19545.3
13402.4,19545.3
13402.4,21049.2
22597.6,21049.2
22597.6,19545.3
23270.8,19545.3
23270.8,21049.2
26729.2,21049.2
26729.2,19545.3
23270.8,19545.3
22597.6,19545.3
13402.4,19545.3
10023.4,19545.3
10028.1,17795.3
12376,17795.3
12376,19299.2
23624,19299.2
23624,17795.3
12376,17795.3
10028.1,17795.3
10042.4,12545.3
10541.1,12545.3
10541.1,14049.2
10597.3,14049.2
10597.3,15295.3
10569.2,15295.3
10569.2,16799.2
12930.8,16799.2
12930.8,15385.3
12937.8,15420.5
12981.9,15526.9
13045.9,15622.7
13127.3,15704.1
13223.1,15768.1
13329.5,15812.2
13442.4,15834.6
13557.6,15834.6
13670.5,15812.2
13776.9,15768.1
13872.7,15704.1
13954.1,15622.7
13983.5,15578.7
15798.8,15578.7
15815,15580.3
15831.1,15578.7
15831.1,15578.7
15879.4,15574
15941.4,15555.2
15998.5,15524.7
16048.5,15483.6
16058.8,15471
16587.7,14942.2
16816.9,14942.2
16877.5,14936.2
16935.7,14918.5
16989.3,14889.9
17036.3,14851.3
17074.9,14804.3
17103.6,14750.6
17121.2,14692.4
17127.2,14631.9
17127.2,14513.8
17121.2,14453.3
17103.6,14395
17074.9,14341.4
17059.7,14322.8
17074.9,14304.3
17103.6,14250.6
17121.2,14192.4
17127.2,14131.9
17127.2,14013.8
17121.2,13953.3
17103.6,13895
17075.3,13842.2
17084.9,13830.5
17108.1,13787.1
17122.4,13740
17127.2,13690.9
17126,13685.3
17063.5,13622.8
16542.1,13622.8
16542.1,13630.7
16442.1,13630.7
16442.1,13622.8
15920.8,13622.8
15858.3,13685.3
15857.1,13690.9
15861.9,13740
15863.1,13744.1
13807.5,13744.1
13847,13720.5
13932.1,13643.8
14000.6,13551.9
14049.9,13448.5
14067.5,13390.5
14019.7,13300
13550,13300
13550,13307.9
13450,13307.9
13450,13300
13442.1,13300
13442.1,13200
13450,13200
13450,13192.1
13550,13192.1
13550,13200
14019.7,13200
14067.5,13109.5
14049.9,13051.5
14000.6,12948.1
13932.1,12856.2
13899,12826.4
13930.8,12816.7
13974.2,12793.5
14012.3,12762.3
14043.5,12724.2
14066.7,12680.8
14081,12633.7
14085.9,12584.6
14085.9,12578.7
15533.1,12578.7
15873.4,12919
15863,12953.3
15857.1,13013.8
15857.1,13131.9
15863,13192.4
15880.7,13250.6
15908.9,13303.5
15899.4,13315.2
15876.2,13358.6
15861.9,13405.7
15857.1,13454.7
15858.3,13460.3
15920.8,13522.8
16442.1,13522.8
16442.1,13515
16542.1,13515
16542.1,13522.8
17063.5,13522.8
17126,13460.3
17127.2,13454.7
17122.4,13405.7
17108.1,13358.6
17084.9,13315.2
17075.3,13303.5
17103.6,13250.6
17121.2,13192.4
17127.2,13131.9
17127.2,13013.8
17805.9,13013.8
17805.9,13131.9
17811.8,13192.4
17829.5,13250.6
17858.2,13304.3
17873.4,13322.8
17858.2,13341.4
17829.5,13395
17811.8,13453.3
17805.9,13513.8
17805.9,13631.9
17811.8,13692.4
17829.5,13750.6
17858.2,13804.3
17873.4,13822.8
17858.2,13841.4
17829.5,13895
17811.8,13953.3
17805.9,14013.8
17805.9,14131.9
17811.8,14192.4
17829.5,14250.6
17858.2,14304.3
17873.4,14322.8
17858.2,14341.4
17829.5,14395
17811.8,14453.3
17805.9,14513.8
17805.9,14631.9
17811.8,14692.4
17829.5,14750.6
17858.2,14804.3
17896.8,14851.3
17943.8,14889.9
17997.4,14918.5
18055.6,14936.2
18116.1,14942.2
18345.4,14942.2
19124.2,15721
19134.5,15733.6
19184.6,15774.7
19241.7,15805.2
19303.7,15824
19352,15828.7
19352,15828.7
19368.1,15830.3
19384.3,15828.7
20766.5,15828.7
20795.9,15872.7
20877.3,15954.1
20973.1,16018.1
21079.5,16062.2
21192.4,16084.6
21307.6,16084.6
21420.5,16062.2
21526.9,16018.1
21622.7,15954.1
21704.1,15872.7
21768.1,15776.9
21812.2,15670.5
21834.6,15557.6
21834.6,15442.4
21812.2,15329.5
21768.1,15223.1
21704.1,15127.3
21622.7,15045.9
21554,15000
21622.7,14954.1
21704.1,14872.7
21768.1,14776.9
21812.2,14670.5
21834.6,14557.6
21834.6,14442.4
21812.2,14329.5
21768.1,14223.1
21704.1,14127.3
21622.7,14045.9
21554,14000
21622.7,13954.1
21704.1,13872.7
21768.1,13776.9
21812.2,13670.5
21834.6,13557.6
21834.6,13442.4
21812.2,13329.5
21768.1,13223.1
21704.1,13127.3
21652.2,13075.4
21680.8,13066.7
21724.2,13043.5
21762.3,13012.3
21793.5,12974.2
21816.7,12930.8
21831,12883.7
21835.9,12834.6
21835.9,12795.3
22523.9,12795.3
22523.9,14299.2
22594.2,14299.2
22594.2,15295.3
22583.2,15295.3
22583.2,16799.2
24916.8,16799.2
24916.8,15549.2
25405.8,15549.2
25405.8,14299.2
25476.1,14299.2
25476.1,12795.3
24385.5,12795.3
24385.5,11545.3
22614.5,11545.3
22614.5,12795.3
22523.9,12795.3
21835.9,12795.3
21835.9,12165.4
21831,12116.3
21816.7,12069.2
21793.5,12025.8
21762.3,11987.7
21724.2,11956.5
21680.8,11933.3
21633.7,11919
21584.6,11914.1
20915.4,11914.1
20866.3,11919
20819.2,11933.3
20775.8,11956.5
20737.7,11987.7
20706.5,12025.8
20683.3,12069.2
20669,12116.3
20664.1,12165.4
20664.1,12171.3
19029.9,12171.3
19013.8,12169.7
18997.6,12171.3
18949.3,12176
18887.4,12194.8
18830.3,12225.3
18780.2,12266.4
18769.9,12279
18345.4,12703.5
18116.1,12703.5
18055.6,12709.5
17997.4,12727.1
17943.8,12755.8
17896.8,12794.4
17858.2,12841.4
17829.5,12895
17811.8,12953.3
17805.9,13013.8
17127.2,13013.8
17121.2,12953.3
17103.6,12895
17074.9,12841.4
17036.3,12794.4
16989.3,12755.8
16935.7,12727.1
16877.5,12709.5
16816.9,12703.5
16587.7,12703.5
15913.2,12029
15902.9,12016.4
15852.8,11975.3
15795.7,11944.8
15733.7,11926
15685.4,11921.3
15685.4,11921.3
15669.3,11919.7
15653.1,11921.3
14085.9,11921.3
14085.9,11915.4
14081,11866.3
14066.7,11819.2
14043.5,11775.8
14012.3,11737.7
13974.2,11706.5
13930.8,11683.3
13883.7,11669
13834.6,11664.1
13165.4,11664.1
13116.3,11669
13069.2,11683.3
13025.8,11706.5
12987.7,11737.7
12956.5,11775.8
12933.3,11819.2
12919,11866.3
12914.1,11915.4
12914.1,12545.3
12860.5,12545.3
12860.5,11295.3
10639.5,11295.3
10639.5,12545.3
10541.1,12545.3
10042.4,12545.3
10049.9,9800
27012.4,9800
Z" /> 
</g>
</g>
<g style="fill:#FFFFFF; fill-opacity:1.0; 
stroke:#FFFFFF; stroke-width:100; stroke-opacity:1; 
stroke-linecap:round; stroke-linejoin:round;">
</g>
<g style="fill:#FFFFFF; fill-opacity:1.0; 
stroke:#FFFFFF; stroke-width:0; stroke-opacity:1; 
stroke-linecap:round; stroke-linejoin:round;">
<circle cx="21250" cy="12500" r="196.85" /> 
</g>
<g style="fill:#FFFFFF; fill-opacity:1.0; 
stroke:#FFFFFF; stroke-width:39.3701; stroke-opacity:1; 
stroke-linecap:round; stroke-linejoin:round;">
</g>
<g style="fill:#FFFFFF; fill-opacity:1.0; 
stroke:#FFFFFF; stroke-width:0; stroke-opacity:1; 
stroke-linecap:round; stroke-linejoin:round;">
<circle cx="21250" cy="13500" r="196.85" /> 
</g>
<g style="fill:#FFFFFF; fill-opacity:1.0; 
stroke:#FFFFFF; stroke-width:39.3701; stroke-opacity:1; 
stroke-linecap:round; stroke-linejoin:round;">
</g>
<g style="fill:#FFFFFF; fill-opacity:1.0; 
stroke:#FFFFFF; stroke-width:0; stroke-opacity:1; 
stroke-linecap:round; stroke-linejoin:round;">
<circle cx="21250" cy="14500" r="196.85" /> 
</g>
<g style="fill:#FFFFFF; fill-opacity:1.0; 
stroke:#FFFFFF; stroke-width:39.3701; stroke-opacity:1; 
stroke-linecap:round; stroke-linejoin:round;">
</g>
<g style="fill:#FFFFFF; fill-opacity:1.0; 
stroke:#FFFFFF; stroke-width:0; stroke-opacity:1; 
stroke-linecap:round; stroke-linejoin:round;">
<circle cx="21250" cy="15500" r="196.85" /> 
</g>
<g style="fill:#FFFFFF; fill-opacity:1.0; 
stroke:#FFFFFF; stroke-width:39.3701; stroke-opacity:1; 
stroke-linecap:round; stroke-linejoin:round;">
</g>
<g style="fill:#FFFFFF; fill-opacity:1.0; 
stroke:#FFFFFF; stroke-width:0; stroke-opacity:1; 
stroke-linecap:round; stroke-linejoin:round;">
<circle cx="13500" cy="12250" r="196.85" /> 
</g>
<g style="fill:#FFFFFF; fill-opacity:1.0; 
stroke:#FFFFFF; stroke-width:39.3701; stroke-opacity:1; 
stroke-linecap:round; stroke-linejoin:round;">
</g>
<g style="fill:#FFFFFF; fill-opacity:1.0; 
stroke:#FFFFFF; stroke-width:0; stroke-opacity:1; 
stroke-linecap:round; stroke-linejoin:round;">
<circle cx="13500" cy="13250" r="196.85" /> 
</g>
<g style="fill:#FFFFFF; fill-opacity:1.0; 
stroke:#FFFFFF; stroke-width:39.3701; stroke-opacity:1; 
stroke-linecap:round; stroke-linejoin:round;">
</g>
<g style="fill:#FFFFFF; fill-opacity:1.0; 
stroke:#FFFFFF; stroke-width:0; stroke-opacity:1; 
stroke-linecap:round; stroke-linejoin:round;">
<circle cx="13500" cy="14250" r="196.85" /> 
</g>
<g style="fill:#FFFFFF; fill-opacity:1.0; 
stroke:#FFFFFF; stroke-width:39.3701; stroke-opacity:1; 
stroke-linecap:round; stroke-linejoin:round;">
</g>
<g style="fill:#FFFFFF; fill-opacity:1.0; 
stroke:#FFFFFF; stroke-width:0; stroke-opacity:1; 
stroke-linecap:round; stroke-linejoin:round;">
<circle cx="13500" cy="15250" r="196.85" /> 
</g>
<g style="fill:#FFFFFF; fill-opacity:1.0; 
stroke:#FFFFFF; stroke-width:39.3701; stroke-opacity:1; 
stroke-linecap:round; stroke-linejoin:round;">
</g>
<g style="fill:#000000; fill-opacity:1.0; 
stroke:#000000; stroke-width:39.3701; stroke-opacity:1; 
stroke-linecap:round; stroke-linejoin:round;">
<g >
</g>
<g >
</g>
<g >
</g>
<g >
</g>
</g> 
</svg>
