%TF.GenerationSoftware,KiCad,Pcbnew,6.0.2+dfsg-1*%
%TF.CreationDate,2022-06-29T22:04:31+02:00*%
%TF.ProjectId,ID_BAC_Carte_Alimentation,49445f42-4143-45f4-9361-7274655f416c,rev?*%
%TF.SameCoordinates,Original*%
%TF.FileFunction,Copper,L2,Bot*%
%TF.FilePolarity,Positive*%
%FSLAX46Y46*%
G04 Gerber Fmt 4.6, Leading zero omitted, Abs format (unit mm)*
G04 Created by KiCad (PCBNEW 6.0.2+dfsg-1) date 2022-06-29 22:04:31*
%MOMM*%
%LPD*%
G01*
G04 APERTURE LIST*
G04 Aperture macros list*
%AMRoundRect*
0 Rectangle with rounded corners*
0 $1 Rounding radius*
0 $2 $3 $4 $5 $6 $7 $8 $9 X,Y pos of 4 corners*
0 Add a 4 corners polygon primitive as box body*
4,1,4,$2,$3,$4,$5,$6,$7,$8,$9,$2,$3,0*
0 Add four circle primitives for the rounded corners*
1,1,$1+$1,$2,$3*
1,1,$1+$1,$4,$5*
1,1,$1+$1,$6,$7*
1,1,$1+$1,$8,$9*
0 Add four rect primitives between the rounded corners*
20,1,$1+$1,$2,$3,$4,$5,0*
20,1,$1+$1,$4,$5,$6,$7,0*
20,1,$1+$1,$6,$7,$8,$9,0*
20,1,$1+$1,$8,$9,$2,$3,0*%
G04 Aperture macros list end*
%TA.AperFunction,SMDPad,CuDef*%
%ADD10RoundRect,0.250000X-0.450000X0.350000X-0.450000X-0.350000X0.450000X-0.350000X0.450000X0.350000X0*%
%TD*%
%TA.AperFunction,SMDPad,CuDef*%
%ADD11RoundRect,0.250000X0.450000X-0.350000X0.450000X0.350000X-0.450000X0.350000X-0.450000X-0.350000X0*%
%TD*%
%TA.AperFunction,ComponentPad*%
%ADD12R,1.800000X1.800000*%
%TD*%
%TA.AperFunction,ComponentPad*%
%ADD13C,1.800000*%
%TD*%
%TA.AperFunction,ComponentPad*%
%ADD14C,2.600000*%
%TD*%
%TA.AperFunction,ComponentPad*%
%ADD15R,1.600000X1.600000*%
%TD*%
%TA.AperFunction,ComponentPad*%
%ADD16C,1.600000*%
%TD*%
%TA.AperFunction,ComponentPad*%
%ADD17R,1.520000X1.520000*%
%TD*%
%TA.AperFunction,ComponentPad*%
%ADD18C,1.520000*%
%TD*%
%TA.AperFunction,ComponentPad*%
%ADD19C,2.100000*%
%TD*%
%TA.AperFunction,Conductor*%
%ADD20C,1.000000*%
%TD*%
%TA.AperFunction,Conductor*%
%ADD21C,0.500000*%
%TD*%
G04 APERTURE END LIST*
D10*
%TO.P,R2,1*%
%TO.N,+5V*%
X135890000Y-103140000D03*
%TO.P,R2,2*%
%TO.N,Net-(D1-Pad2)*%
X135890000Y-105140000D03*
%TD*%
D11*
%TO.P,R1,1*%
%TO.N,CAN_H*%
X110490000Y-101330000D03*
%TO.P,R1,2*%
%TO.N,CAN_L*%
X110490000Y-99330000D03*
%TD*%
D10*
%TO.P,R3,1*%
%TO.N,+12V*%
X165100000Y-100600000D03*
%TO.P,R3,2*%
%TO.N,Net-(D2-Pad2)*%
X165100000Y-102600000D03*
%TD*%
D12*
%TO.P,D2,1,K*%
%TO.N,GND*%
X162560000Y-109220000D03*
D13*
%TO.P,D2,2,A*%
%TO.N,Net-(D2-Pad2)*%
X162560000Y-106680000D03*
%TD*%
D12*
%TO.P,D1,1,K*%
%TO.N,GND*%
X138430000Y-110490000D03*
D13*
%TO.P,D1,2,A*%
%TO.N,Net-(D1-Pad2)*%
X135890000Y-110490000D03*
%TD*%
D14*
%TO.P,L2,1,1*%
%TO.N,V_batt*%
X119380000Y-36830000D03*
%TO.P,L2,2,2*%
%TO.N,Net-(PS1-Pad1)*%
X114380000Y-36830000D03*
%TD*%
%TO.P,L1,1,1*%
%TO.N,V_batt*%
X158830000Y-36830000D03*
%TO.P,L1,2,2*%
%TO.N,Net-(PS2-Pad1)*%
X163830000Y-36830000D03*
%TD*%
D15*
%TO.P,C2,1*%
%TO.N,V_batt*%
X151130000Y-36830000D03*
D16*
%TO.P,C2,2*%
%TO.N,GND*%
X153630000Y-36830000D03*
%TD*%
D15*
%TO.P,C1,1*%
%TO.N,V_batt*%
X128270000Y-36830000D03*
D16*
%TO.P,C1,2*%
%TO.N,GND*%
X125770000Y-36830000D03*
%TD*%
D13*
%TO.P,PS2,1,+VIN*%
%TO.N,Net-(PS2-Pad1)*%
X152720000Y-57930000D03*
%TO.P,PS2,2,-VIN_*%
%TO.N,GND*%
X157800000Y-57930000D03*
%TO.P,PS2,3,+VOUT_*%
X145260000Y-78230000D03*
%TO.P,PS2,4,TRIM*%
%TO.N,unconnected-(PS2-Pad4)*%
X155360000Y-78230000D03*
%TO.P,PS2,5,-VOUT*%
%TO.N,+12V*%
X165460000Y-78230000D03*
%TO.P,PS2,6,REMOTE_ON/OFF*%
%TO.N,unconnected-(PS2-Pad6)*%
X165460000Y-57930000D03*
%TD*%
%TO.P,PS1,1,+VIN*%
%TO.N,Net-(PS1-Pad1)*%
X117160000Y-57930000D03*
%TO.P,PS1,2,-VIN_*%
%TO.N,GND*%
X122240000Y-57930000D03*
%TO.P,PS1,3,+VOUT_*%
%TO.N,+5V*%
X109700000Y-78230000D03*
%TO.P,PS1,4,TRIM*%
%TO.N,unconnected-(PS1-Pad4)*%
X119800000Y-78230000D03*
%TO.P,PS1,5,-VOUT*%
%TO.N,GND*%
X129900000Y-78230000D03*
%TO.P,PS1,6,REMOTE_ON/OFF*%
%TO.N,unconnected-(PS1-Pad6)*%
X129900000Y-57930000D03*
%TD*%
D17*
%TO.P,J3,1*%
%TO.N,CAN_L*%
X121290000Y-98910000D03*
D18*
%TO.P,J3,2*%
%TO.N,CAN_H*%
X122560000Y-101450000D03*
%TO.P,J3,3*%
%TO.N,unconnected-(J3-Pad3)*%
X123830000Y-98910000D03*
%TO.P,J3,4*%
%TO.N,unconnected-(J3-Pad4)*%
X125100000Y-101450000D03*
%TO.P,J3,5*%
%TO.N,GND*%
X126370000Y-98910000D03*
%TO.P,J3,6*%
%TO.N,+5V*%
X127640000Y-101450000D03*
%TD*%
D19*
%TO.P,J2,1,Pin_1*%
%TO.N,GND*%
X147955000Y-102010000D03*
%TO.P,J2,2,Pin_2*%
%TO.N,+12V*%
X151765000Y-102010000D03*
%TD*%
%TO.P,J1,1,Pin_1*%
%TO.N,V_batt*%
X141605000Y-35560000D03*
%TO.P,J1,2,Pin_2*%
%TO.N,GND*%
X137795000Y-35560000D03*
%TD*%
D20*
%TO.N,V_batt*%
X147320000Y-40640000D02*
X155020000Y-40640000D01*
X138430000Y-40640000D02*
X147320000Y-40640000D01*
X147320000Y-40640000D02*
X151130000Y-36830000D01*
X141605000Y-37465000D02*
X138430000Y-40640000D01*
X141605000Y-35560000D02*
X141605000Y-37465000D01*
X138430000Y-40640000D02*
X132080000Y-40640000D01*
%TO.N,+5V*%
X135890000Y-97790000D02*
X135890000Y-103140000D01*
%TO.N,+12V*%
X165460000Y-92985000D02*
X156435000Y-102010000D01*
X156435000Y-102010000D02*
X151765000Y-102010000D01*
%TO.N,Net-(D1-Pad2)*%
X135890000Y-105140000D02*
X135890000Y-110490000D01*
%TO.N,Net-(D2-Pad2)*%
X165100000Y-102600000D02*
X165100000Y-104140000D01*
X165100000Y-104140000D02*
X162560000Y-106680000D01*
%TO.N,+12V*%
X165460000Y-92985000D02*
X165460000Y-100240000D01*
X165460000Y-100240000D02*
X165100000Y-100600000D01*
D21*
%TO.N,CAN_H*%
X122560000Y-101450000D02*
X110610000Y-101450000D01*
X110610000Y-101450000D02*
X110490000Y-101330000D01*
%TO.N,CAN_L*%
X110490000Y-99330000D02*
X110910000Y-98910000D01*
X110910000Y-98910000D02*
X121290000Y-98910000D01*
D20*
%TO.N,+12V*%
X165460000Y-78230000D02*
X165460000Y-92985000D01*
%TO.N,+5V*%
X109700000Y-78230000D02*
X120370000Y-88900000D01*
X132080000Y-88900000D02*
X135890000Y-92710000D01*
X120370000Y-88900000D02*
X132080000Y-88900000D01*
X135890000Y-92710000D02*
X135890000Y-97790000D01*
X135890000Y-97790000D02*
X132230000Y-101450000D01*
X132230000Y-101450000D02*
X127640000Y-101450000D01*
%TO.N,Net-(PS2-Pad1)*%
X163830000Y-36830000D02*
X163830000Y-46820000D01*
X163830000Y-46820000D02*
X152720000Y-57930000D01*
%TO.N,Net-(PS1-Pad1)*%
X114380000Y-36830000D02*
X114380000Y-55150000D01*
X114380000Y-55150000D02*
X117160000Y-57930000D01*
%TO.N,V_batt*%
X132080000Y-40640000D02*
X123190000Y-40640000D01*
X123190000Y-40640000D02*
X119380000Y-36830000D01*
X132080000Y-40640000D02*
X128270000Y-36830000D01*
X155020000Y-40640000D02*
X158830000Y-36830000D01*
%TD*%
%TA.AperFunction,Conductor*%
%TO.N,GND*%
G36*
X169322121Y-26220002D02*
G01*
X169368614Y-26273658D01*
X169380000Y-26326000D01*
X169380000Y-115914000D01*
X169359998Y-115982121D01*
X169306342Y-116028614D01*
X169254000Y-116040000D01*
X105066000Y-116040000D01*
X104997879Y-116019998D01*
X104951386Y-115966342D01*
X104940000Y-115914000D01*
X104940000Y-107698221D01*
X116951638Y-107698221D01*
X116951725Y-107702222D01*
X116951725Y-107702230D01*
X116958301Y-108003588D01*
X116958389Y-108007605D01*
X117004397Y-108313624D01*
X117005493Y-108317484D01*
X117005494Y-108317489D01*
X117021625Y-108374306D01*
X117088916Y-108611316D01*
X117210576Y-108895855D01*
X117367404Y-109162630D01*
X117369857Y-109165798D01*
X117369859Y-109165801D01*
X117545617Y-109392794D01*
X117556860Y-109407315D01*
X117775870Y-109625943D01*
X117779051Y-109628397D01*
X117779052Y-109628398D01*
X117938199Y-109751179D01*
X118020885Y-109814971D01*
X118024364Y-109817008D01*
X118257383Y-109953446D01*
X118287933Y-109971334D01*
X118291618Y-109972902D01*
X118291622Y-109972904D01*
X118465969Y-110047089D01*
X118572684Y-110092497D01*
X118700388Y-110128513D01*
X118866656Y-110175406D01*
X118866665Y-110175408D01*
X118870523Y-110176496D01*
X118957007Y-110189344D01*
X119173323Y-110221480D01*
X119173325Y-110221480D01*
X119176622Y-110221970D01*
X119179953Y-110222110D01*
X119179957Y-110222110D01*
X119216950Y-110223660D01*
X119260846Y-110225500D01*
X119458285Y-110225500D01*
X119596363Y-110216692D01*
X119684821Y-110211049D01*
X119684825Y-110211048D01*
X119688830Y-110210793D01*
X119692764Y-110210032D01*
X119692771Y-110210031D01*
X119988716Y-110152773D01*
X119988720Y-110152772D01*
X119992653Y-110152011D01*
X120286545Y-110055100D01*
X120419738Y-109991428D01*
X120562109Y-109923368D01*
X120562112Y-109923367D01*
X120565740Y-109921632D01*
X120825713Y-109753769D01*
X121062250Y-109554234D01*
X121271515Y-109326260D01*
X121450117Y-109073545D01*
X121595160Y-108800183D01*
X121704293Y-108510608D01*
X121761745Y-108268510D01*
X121774817Y-108213428D01*
X121774818Y-108213423D01*
X121775746Y-108209512D01*
X121808362Y-107901779D01*
X121808243Y-107896283D01*
X121803921Y-107698221D01*
X127111638Y-107698221D01*
X127111725Y-107702222D01*
X127111725Y-107702230D01*
X127118301Y-108003588D01*
X127118389Y-108007605D01*
X127164397Y-108313624D01*
X127165493Y-108317484D01*
X127165494Y-108317489D01*
X127181625Y-108374306D01*
X127248916Y-108611316D01*
X127370576Y-108895855D01*
X127527404Y-109162630D01*
X127529857Y-109165798D01*
X127529859Y-109165801D01*
X127705617Y-109392794D01*
X127716860Y-109407315D01*
X127935870Y-109625943D01*
X127939051Y-109628397D01*
X127939052Y-109628398D01*
X128098199Y-109751179D01*
X128180885Y-109814971D01*
X128184364Y-109817008D01*
X128417383Y-109953446D01*
X128447933Y-109971334D01*
X128451618Y-109972902D01*
X128451622Y-109972904D01*
X128625969Y-110047089D01*
X128732684Y-110092497D01*
X128860388Y-110128513D01*
X129026656Y-110175406D01*
X129026665Y-110175408D01*
X129030523Y-110176496D01*
X129117007Y-110189344D01*
X129333323Y-110221480D01*
X129333325Y-110221480D01*
X129336622Y-110221970D01*
X129339953Y-110222110D01*
X129339957Y-110222110D01*
X129376950Y-110223660D01*
X129420846Y-110225500D01*
X129618285Y-110225500D01*
X129756363Y-110216692D01*
X129844821Y-110211049D01*
X129844825Y-110211048D01*
X129848830Y-110210793D01*
X129852764Y-110210032D01*
X129852771Y-110210031D01*
X130148716Y-110152773D01*
X130148720Y-110152772D01*
X130152653Y-110152011D01*
X130446545Y-110055100D01*
X130579738Y-109991428D01*
X130722109Y-109923368D01*
X130722112Y-109923367D01*
X130725740Y-109921632D01*
X130985713Y-109753769D01*
X131222250Y-109554234D01*
X131431515Y-109326260D01*
X131610117Y-109073545D01*
X131755160Y-108800183D01*
X131864293Y-108510608D01*
X131921745Y-108268510D01*
X131934817Y-108213428D01*
X131934818Y-108213423D01*
X131935746Y-108209512D01*
X131968362Y-107901779D01*
X131968243Y-107896283D01*
X131961699Y-107596412D01*
X131961699Y-107596407D01*
X131961611Y-107592395D01*
X131915603Y-107286376D01*
X131909034Y-107263236D01*
X131832183Y-106992556D01*
X131831084Y-106988684D01*
X131709424Y-106704145D01*
X131552596Y-106437370D01*
X131550141Y-106434199D01*
X131365591Y-106195850D01*
X131365588Y-106195846D01*
X131363140Y-106192685D01*
X131144130Y-105974057D01*
X131050503Y-105901824D01*
X130902308Y-105787492D01*
X130902304Y-105787489D01*
X130899115Y-105785029D01*
X130632067Y-105628666D01*
X130628382Y-105627098D01*
X130628378Y-105627096D01*
X130351010Y-105509075D01*
X130347316Y-105507503D01*
X130219612Y-105471487D01*
X130053344Y-105424594D01*
X130053335Y-105424592D01*
X130049477Y-105423504D01*
X129818614Y-105389207D01*
X129746677Y-105378520D01*
X129746675Y-105378520D01*
X129743378Y-105378030D01*
X129740047Y-105377890D01*
X129740043Y-105377890D01*
X129703050Y-105376340D01*
X129659154Y-105374500D01*
X129461715Y-105374500D01*
X129323637Y-105383308D01*
X129235179Y-105388951D01*
X129235175Y-105388952D01*
X129231170Y-105389207D01*
X129227236Y-105389968D01*
X129227229Y-105389969D01*
X128931284Y-105447227D01*
X128931280Y-105447228D01*
X128927347Y-105447989D01*
X128633455Y-105544900D01*
X128629824Y-105546636D01*
X128629821Y-105546637D01*
X128357891Y-105676632D01*
X128354260Y-105678368D01*
X128202481Y-105776371D01*
X128159216Y-105804307D01*
X128094287Y-105846231D01*
X127994618Y-105930309D01*
X127925260Y-105988817D01*
X127857750Y-106045766D01*
X127648485Y-106273740D01*
X127469883Y-106526455D01*
X127324840Y-106799817D01*
X127323425Y-106803573D01*
X127323424Y-106803574D01*
X127240173Y-107024474D01*
X127215707Y-107089392D01*
X127214778Y-107093307D01*
X127147284Y-107377721D01*
X127144254Y-107390488D01*
X127111638Y-107698221D01*
X121803921Y-107698221D01*
X121801699Y-107596412D01*
X121801699Y-107596407D01*
X121801611Y-107592395D01*
X121755603Y-107286376D01*
X121749034Y-107263236D01*
X121672183Y-106992556D01*
X121671084Y-106988684D01*
X121549424Y-106704145D01*
X121392596Y-106437370D01*
X121390141Y-106434199D01*
X121205591Y-106195850D01*
X121205588Y-106195846D01*
X121203140Y-106192685D01*
X120984130Y-105974057D01*
X120890503Y-105901824D01*
X120742308Y-105787492D01*
X120742304Y-105787489D01*
X120739115Y-105785029D01*
X120472067Y-105628666D01*
X120468382Y-105627098D01*
X120468378Y-105627096D01*
X120191010Y-105509075D01*
X120187316Y-105507503D01*
X120059612Y-105471487D01*
X119893344Y-105424594D01*
X119893335Y-105424592D01*
X119889477Y-105423504D01*
X119658614Y-105389207D01*
X119586677Y-105378520D01*
X119586675Y-105378520D01*
X119583378Y-105378030D01*
X119580047Y-105377890D01*
X119580043Y-105377890D01*
X119543050Y-105376340D01*
X119499154Y-105374500D01*
X119301715Y-105374500D01*
X119163637Y-105383308D01*
X119075179Y-105388951D01*
X119075175Y-105388952D01*
X119071170Y-105389207D01*
X119067236Y-105389968D01*
X119067229Y-105389969D01*
X118771284Y-105447227D01*
X118771280Y-105447228D01*
X118767347Y-105447989D01*
X118473455Y-105544900D01*
X118469824Y-105546636D01*
X118469821Y-105546637D01*
X118197891Y-105676632D01*
X118194260Y-105678368D01*
X118042481Y-105776371D01*
X117999216Y-105804307D01*
X117934287Y-105846231D01*
X117834618Y-105930309D01*
X117765260Y-105988817D01*
X117697750Y-106045766D01*
X117488485Y-106273740D01*
X117309883Y-106526455D01*
X117164840Y-106799817D01*
X117163425Y-106803573D01*
X117163424Y-106803574D01*
X117080173Y-107024474D01*
X117055707Y-107089392D01*
X117054778Y-107093307D01*
X116987284Y-107377721D01*
X116984254Y-107390488D01*
X116951638Y-107698221D01*
X104940000Y-107698221D01*
X104940000Y-78185361D01*
X107995316Y-78185361D01*
X107995540Y-78190027D01*
X107995540Y-78190033D01*
X108000614Y-78295663D01*
X108007443Y-78437820D01*
X108008356Y-78442409D01*
X108051099Y-78657292D01*
X108056752Y-78685713D01*
X108058331Y-78690111D01*
X108058333Y-78690118D01*
X108120124Y-78862220D01*
X108142160Y-78923595D01*
X108261792Y-79146240D01*
X108264587Y-79149984D01*
X108264589Y-79149986D01*
X108410226Y-79345018D01*
X108410231Y-79345024D01*
X108413018Y-79348756D01*
X108416327Y-79352036D01*
X108416332Y-79352042D01*
X108567127Y-79501527D01*
X108592517Y-79526696D01*
X108596279Y-79529454D01*
X108596282Y-79529457D01*
X108748657Y-79641182D01*
X108796346Y-79676149D01*
X108800481Y-79678325D01*
X108800485Y-79678327D01*
X108917952Y-79740129D01*
X109020026Y-79793833D01*
X109258644Y-79877162D01*
X109263237Y-79878034D01*
X109502369Y-79923435D01*
X109502372Y-79923435D01*
X109506958Y-79924306D01*
X109511625Y-79924489D01*
X109516274Y-79925019D01*
X109516037Y-79927099D01*
X109575137Y-79947029D01*
X109591963Y-79961148D01*
X119369951Y-89739136D01*
X119369953Y-89739139D01*
X119530861Y-89900047D01*
X119535364Y-89903200D01*
X119573048Y-89929586D01*
X119581765Y-89936275D01*
X119621214Y-89969377D01*
X119665830Y-89995136D01*
X119675076Y-90001027D01*
X119717266Y-90030568D01*
X119763946Y-90052336D01*
X119773677Y-90057402D01*
X119813516Y-90080403D01*
X119813519Y-90080404D01*
X119818285Y-90083156D01*
X119823460Y-90085040D01*
X119823461Y-90085040D01*
X119866673Y-90100768D01*
X119876826Y-90104973D01*
X119923504Y-90126739D01*
X119973247Y-90140068D01*
X119983726Y-90143372D01*
X120026947Y-90159102D01*
X120032121Y-90160985D01*
X120037535Y-90161940D01*
X120037540Y-90161941D01*
X120082828Y-90169926D01*
X120093561Y-90172306D01*
X120137987Y-90184210D01*
X120137996Y-90184212D01*
X120143308Y-90185635D01*
X120194608Y-90190123D01*
X120205503Y-90191558D01*
X120250794Y-90199545D01*
X120250805Y-90199546D01*
X120256221Y-90200501D01*
X120483779Y-90200501D01*
X120483783Y-90200500D01*
X131489125Y-90200500D01*
X131557246Y-90220502D01*
X131578220Y-90237405D01*
X134552595Y-93211780D01*
X134586621Y-93274092D01*
X134589500Y-93300875D01*
X134589500Y-97199125D01*
X134569498Y-97267246D01*
X134552595Y-97288220D01*
X131728220Y-100112595D01*
X131665908Y-100146621D01*
X131639125Y-100149500D01*
X128539924Y-100149500D01*
X128474089Y-100130933D01*
X128466420Y-100126233D01*
X128350643Y-100055285D01*
X128346073Y-100053392D01*
X128346069Y-100053390D01*
X128128285Y-99963181D01*
X128128283Y-99963180D01*
X128123712Y-99961287D01*
X128017104Y-99935693D01*
X127889684Y-99905102D01*
X127889678Y-99905101D01*
X127884871Y-99903947D01*
X127640000Y-99884675D01*
X127635070Y-99885063D01*
X127478210Y-99897408D01*
X127408730Y-99882812D01*
X127358170Y-99832969D01*
X127342584Y-99763705D01*
X127365111Y-99699525D01*
X127469158Y-99550931D01*
X127474641Y-99541435D01*
X127563759Y-99350320D01*
X127567505Y-99340028D01*
X127622083Y-99136340D01*
X127623986Y-99125547D01*
X127642365Y-98915475D01*
X127642365Y-98904525D01*
X127623986Y-98694453D01*
X127622083Y-98683660D01*
X127567505Y-98479972D01*
X127563759Y-98469680D01*
X127474641Y-98278565D01*
X127469158Y-98269069D01*
X127438770Y-98225671D01*
X127428293Y-98217296D01*
X127414845Y-98224365D01*
X126459095Y-99180115D01*
X126396783Y-99214141D01*
X126325968Y-99209076D01*
X126280905Y-99180115D01*
X125324433Y-98223643D01*
X125306955Y-98214099D01*
X125245130Y-98200649D01*
X125198083Y-98155897D01*
X125098957Y-97994139D01*
X125096375Y-97989925D01*
X124978325Y-97851707D01*
X125677296Y-97851707D01*
X125684365Y-97865155D01*
X126357188Y-98537978D01*
X126371132Y-98545592D01*
X126372965Y-98545461D01*
X126379580Y-98541210D01*
X127056357Y-97864433D01*
X127062787Y-97852658D01*
X127053491Y-97840643D01*
X127010931Y-97810842D01*
X127001435Y-97805359D01*
X126810320Y-97716241D01*
X126800028Y-97712495D01*
X126596340Y-97657917D01*
X126585547Y-97656014D01*
X126375475Y-97637635D01*
X126364525Y-97637635D01*
X126154453Y-97656014D01*
X126143660Y-97657917D01*
X125939972Y-97712495D01*
X125929680Y-97716241D01*
X125738565Y-97805359D01*
X125729069Y-97810842D01*
X125685671Y-97841230D01*
X125677296Y-97851707D01*
X124978325Y-97851707D01*
X124936852Y-97803148D01*
X124750075Y-97643625D01*
X124540643Y-97515285D01*
X124536073Y-97513392D01*
X124536069Y-97513390D01*
X124318285Y-97423181D01*
X124318283Y-97423180D01*
X124313712Y-97421287D01*
X124231889Y-97401643D01*
X124079684Y-97365102D01*
X124079678Y-97365101D01*
X124074871Y-97363947D01*
X123830000Y-97344675D01*
X123585129Y-97363947D01*
X123580322Y-97365101D01*
X123580316Y-97365102D01*
X123428111Y-97401643D01*
X123346288Y-97421287D01*
X123341717Y-97423180D01*
X123341715Y-97423181D01*
X123123931Y-97513390D01*
X123123927Y-97513392D01*
X123119357Y-97515285D01*
X122909925Y-97643625D01*
X122906165Y-97646836D01*
X122906160Y-97646840D01*
X122866370Y-97680823D01*
X122801580Y-97709854D01*
X122731381Y-97699247D01*
X122686070Y-97663620D01*
X122672672Y-97646836D01*
X122619620Y-97580380D01*
X122479266Y-97468336D01*
X122317577Y-97390173D01*
X122310716Y-97388589D01*
X122147788Y-97350974D01*
X122147785Y-97350974D01*
X122142589Y-97349774D01*
X122137837Y-97349500D01*
X122136013Y-97349500D01*
X121282734Y-97349501D01*
X120442164Y-97349501D01*
X120437411Y-97349774D01*
X120262423Y-97390173D01*
X120100734Y-97468336D01*
X119960380Y-97580380D01*
X119848336Y-97720734D01*
X119815654Y-97788340D01*
X119767999Y-97840964D01*
X119702215Y-97859500D01*
X110974135Y-97859500D01*
X110960528Y-97858763D01*
X110927180Y-97855140D01*
X110927175Y-97855140D01*
X110921054Y-97854475D01*
X110869003Y-97859029D01*
X110864192Y-97859356D01*
X110861243Y-97859500D01*
X110858159Y-97859500D01*
X110855100Y-97859800D01*
X110855098Y-97859800D01*
X110846913Y-97860603D01*
X110813572Y-97863872D01*
X110812409Y-97863979D01*
X110715824Y-97872429D01*
X110710490Y-97873979D01*
X110704970Y-97874520D01*
X110632677Y-97896346D01*
X110612364Y-97902479D01*
X110611100Y-97902854D01*
X110536606Y-97924497D01*
X110501452Y-97929500D01*
X109986657Y-97929501D01*
X109939664Y-97929501D01*
X109938108Y-97929580D01*
X109938091Y-97929580D01*
X109937997Y-97929585D01*
X109937995Y-97929585D01*
X109933327Y-97929821D01*
X109731377Y-97970541D01*
X109541183Y-98049711D01*
X109369989Y-98164316D01*
X109224316Y-98309989D01*
X109109711Y-98481183D01*
X109030541Y-98671377D01*
X108989821Y-98873327D01*
X108989500Y-98879663D01*
X108989501Y-99780336D01*
X108989821Y-99786673D01*
X109030541Y-99988623D01*
X109109711Y-100178817D01*
X109153820Y-100244705D01*
X109163996Y-100259906D01*
X109185270Y-100327640D01*
X109163996Y-100400093D01*
X109109711Y-100481183D01*
X109030541Y-100671377D01*
X109006277Y-100791715D01*
X108995388Y-100845720D01*
X108989821Y-100873327D01*
X108989500Y-100879663D01*
X108989501Y-101780336D01*
X108989821Y-101786673D01*
X109030541Y-101988623D01*
X109109711Y-102178817D01*
X109224316Y-102350011D01*
X109369989Y-102495684D01*
X109541183Y-102610289D01*
X109731377Y-102689459D01*
X109933327Y-102730179D01*
X109937993Y-102730415D01*
X109937998Y-102730416D01*
X109938075Y-102730420D01*
X109938093Y-102730420D01*
X109939663Y-102730500D01*
X109941260Y-102730500D01*
X110492596Y-102730499D01*
X111040336Y-102730499D01*
X111041892Y-102730420D01*
X111041909Y-102730420D01*
X111042003Y-102730415D01*
X111042005Y-102730415D01*
X111046673Y-102730179D01*
X111248623Y-102689459D01*
X111279181Y-102676739D01*
X111433129Y-102612657D01*
X111433132Y-102612656D01*
X111438817Y-102610289D01*
X111487925Y-102577414D01*
X111571006Y-102521796D01*
X111641099Y-102500500D01*
X121346933Y-102500500D01*
X121415054Y-102520502D01*
X121442740Y-102544666D01*
X121453148Y-102556852D01*
X121639925Y-102716375D01*
X121849357Y-102844715D01*
X121853927Y-102846608D01*
X121853931Y-102846610D01*
X122000788Y-102907440D01*
X122076288Y-102938713D01*
X122124998Y-102950407D01*
X122310316Y-102994898D01*
X122310322Y-102994899D01*
X122315129Y-102996053D01*
X122560000Y-103015325D01*
X122804871Y-102996053D01*
X122809678Y-102994899D01*
X122809684Y-102994898D01*
X122995002Y-102950407D01*
X123043712Y-102938713D01*
X123119212Y-102907440D01*
X123266069Y-102846610D01*
X123266073Y-102846608D01*
X123270643Y-102844715D01*
X123480075Y-102716375D01*
X123666852Y-102556852D01*
X123670060Y-102553096D01*
X123734189Y-102478011D01*
X123793640Y-102439202D01*
X123864635Y-102438696D01*
X123925811Y-102478011D01*
X123989940Y-102553096D01*
X123993148Y-102556852D01*
X124179925Y-102716375D01*
X124389357Y-102844715D01*
X124393927Y-102846608D01*
X124393931Y-102846610D01*
X124540788Y-102907440D01*
X124616288Y-102938713D01*
X124664998Y-102950407D01*
X124850316Y-102994898D01*
X124850322Y-102994899D01*
X124855129Y-102996053D01*
X125100000Y-103015325D01*
X125344871Y-102996053D01*
X125349678Y-102994899D01*
X125349684Y-102994898D01*
X125535002Y-102950407D01*
X125583712Y-102938713D01*
X125659212Y-102907440D01*
X125806069Y-102846610D01*
X125806073Y-102846608D01*
X125810643Y-102844715D01*
X126020075Y-102716375D01*
X126206852Y-102556852D01*
X126210060Y-102553096D01*
X126274189Y-102478011D01*
X126333640Y-102439202D01*
X126404635Y-102438696D01*
X126465811Y-102478011D01*
X126529940Y-102553096D01*
X126533148Y-102556852D01*
X126719925Y-102716375D01*
X126929357Y-102844715D01*
X126933927Y-102846608D01*
X126933931Y-102846610D01*
X127080788Y-102907440D01*
X127156288Y-102938713D01*
X127204998Y-102950407D01*
X127390316Y-102994898D01*
X127390322Y-102994899D01*
X127395129Y-102996053D01*
X127640000Y-103015325D01*
X127884871Y-102996053D01*
X127889678Y-102994899D01*
X127889684Y-102994898D01*
X128075002Y-102950407D01*
X128123712Y-102938713D01*
X128199212Y-102907440D01*
X128346069Y-102846610D01*
X128346073Y-102846608D01*
X128350643Y-102844715D01*
X128474090Y-102769067D01*
X128539924Y-102750500D01*
X132116217Y-102750500D01*
X132116221Y-102750501D01*
X132343779Y-102750501D01*
X132355280Y-102748473D01*
X132394499Y-102741558D01*
X132405396Y-102740124D01*
X132451202Y-102736116D01*
X132451210Y-102736115D01*
X132456692Y-102735635D01*
X132506436Y-102722306D01*
X132517164Y-102719928D01*
X132537313Y-102716375D01*
X132567880Y-102710985D01*
X132573045Y-102709105D01*
X132573053Y-102709103D01*
X132616267Y-102693374D01*
X132626752Y-102690068D01*
X132671180Y-102678164D01*
X132671186Y-102678162D01*
X132676496Y-102676739D01*
X132723174Y-102654973D01*
X132733327Y-102650768D01*
X132776539Y-102635040D01*
X132776540Y-102635040D01*
X132781715Y-102633156D01*
X132786481Y-102630404D01*
X132786484Y-102630403D01*
X132826323Y-102607402D01*
X132836054Y-102602336D01*
X132882734Y-102580568D01*
X132924924Y-102551027D01*
X132934170Y-102545136D01*
X132978786Y-102519377D01*
X133018235Y-102486275D01*
X133026952Y-102479586D01*
X133029202Y-102478011D01*
X133069139Y-102450047D01*
X133230047Y-102289139D01*
X133230049Y-102289136D01*
X134374405Y-101144780D01*
X134436717Y-101110754D01*
X134507532Y-101115819D01*
X134564368Y-101158366D01*
X134589179Y-101224886D01*
X134589500Y-101233875D01*
X134589500Y-102133714D01*
X134568204Y-102203807D01*
X134558728Y-102217962D01*
X134509711Y-102291183D01*
X134507344Y-102296868D01*
X134507343Y-102296871D01*
X134476871Y-102370075D01*
X134430541Y-102481377D01*
X134389821Y-102683327D01*
X134389500Y-102689663D01*
X134389501Y-103590336D01*
X134389821Y-103596673D01*
X134390746Y-103601260D01*
X134390746Y-103601261D01*
X134394829Y-103621509D01*
X134430541Y-103798623D01*
X134509711Y-103988817D01*
X134563996Y-104069906D01*
X134585270Y-104137640D01*
X134563996Y-104210093D01*
X134509711Y-104291183D01*
X134430541Y-104481377D01*
X134389821Y-104683327D01*
X134389500Y-104689663D01*
X134389501Y-105590336D01*
X134389821Y-105596673D01*
X134430541Y-105798623D01*
X134432907Y-105804307D01*
X134504748Y-105976893D01*
X134509711Y-105988817D01*
X134513140Y-105993939D01*
X134568204Y-106076193D01*
X134589500Y-106146286D01*
X134589500Y-109348647D01*
X134569498Y-109416768D01*
X134560374Y-109429216D01*
X134501715Y-109499746D01*
X134370595Y-109715825D01*
X134368786Y-109720139D01*
X134368785Y-109720141D01*
X134285207Y-109919453D01*
X134272854Y-109948911D01*
X134271703Y-109953443D01*
X134271702Y-109953446D01*
X134262056Y-109991428D01*
X134210639Y-110193883D01*
X134185316Y-110445361D01*
X134185540Y-110450027D01*
X134185540Y-110450033D01*
X134187378Y-110488285D01*
X134197443Y-110697820D01*
X134246752Y-110945713D01*
X134248331Y-110950111D01*
X134248333Y-110950118D01*
X134292537Y-111073236D01*
X134332160Y-111183595D01*
X134451792Y-111406240D01*
X134454587Y-111409984D01*
X134454589Y-111409986D01*
X134600226Y-111605018D01*
X134600231Y-111605024D01*
X134603018Y-111608756D01*
X134606327Y-111612036D01*
X134606332Y-111612042D01*
X134758961Y-111763345D01*
X134782517Y-111786696D01*
X134786279Y-111789454D01*
X134786282Y-111789457D01*
X134909610Y-111879884D01*
X134986346Y-111936149D01*
X134990481Y-111938325D01*
X134990485Y-111938327D01*
X135107952Y-112000129D01*
X135210026Y-112053833D01*
X135448644Y-112137162D01*
X135453237Y-112138034D01*
X135692369Y-112183435D01*
X135692372Y-112183435D01*
X135696958Y-112184306D01*
X135817081Y-112189026D01*
X135944845Y-112194046D01*
X135944850Y-112194046D01*
X135949513Y-112194229D01*
X136027657Y-112185671D01*
X136196107Y-112167223D01*
X136196112Y-112167222D01*
X136200760Y-112166713D01*
X136318861Y-112135620D01*
X136440658Y-112103554D01*
X136440661Y-112103553D01*
X136445181Y-112102363D01*
X136677405Y-112002591D01*
X136784774Y-111936149D01*
X136888358Y-111872050D01*
X136888362Y-111872047D01*
X136892331Y-111869591D01*
X136986989Y-111789457D01*
X137017834Y-111763345D01*
X137082750Y-111734596D01*
X137152903Y-111745508D01*
X137174811Y-111758686D01*
X137276351Y-111834786D01*
X137291946Y-111843324D01*
X137412394Y-111888478D01*
X137427649Y-111892105D01*
X137478514Y-111897631D01*
X137485328Y-111898000D01*
X138157885Y-111898000D01*
X138173124Y-111893525D01*
X138174329Y-111892135D01*
X138176000Y-111884452D01*
X138176000Y-111879884D01*
X138684000Y-111879884D01*
X138688475Y-111895123D01*
X138689865Y-111896328D01*
X138697548Y-111897999D01*
X139374669Y-111897999D01*
X139381490Y-111897629D01*
X139432352Y-111892105D01*
X139447604Y-111888479D01*
X139568054Y-111843324D01*
X139583649Y-111834786D01*
X139685724Y-111758285D01*
X139698285Y-111745724D01*
X139774786Y-111643649D01*
X139783324Y-111628054D01*
X139828478Y-111507606D01*
X139832105Y-111492351D01*
X139837631Y-111441486D01*
X139838000Y-111434672D01*
X139838000Y-110762115D01*
X139833525Y-110746876D01*
X139832135Y-110745671D01*
X139824452Y-110744000D01*
X138702115Y-110744000D01*
X138686876Y-110748475D01*
X138685671Y-110749865D01*
X138684000Y-110757548D01*
X138684000Y-111879884D01*
X138176000Y-111879884D01*
X138176000Y-110217885D01*
X138684000Y-110217885D01*
X138688475Y-110233124D01*
X138689865Y-110234329D01*
X138697548Y-110236000D01*
X139819884Y-110236000D01*
X139835123Y-110231525D01*
X139836328Y-110230135D01*
X139837999Y-110222452D01*
X139837999Y-110164669D01*
X161152001Y-110164669D01*
X161152371Y-110171490D01*
X161157895Y-110222352D01*
X161161521Y-110237604D01*
X161206676Y-110358054D01*
X161215214Y-110373649D01*
X161291715Y-110475724D01*
X161304276Y-110488285D01*
X161406351Y-110564786D01*
X161421946Y-110573324D01*
X161542394Y-110618478D01*
X161557649Y-110622105D01*
X161608514Y-110627631D01*
X161615328Y-110628000D01*
X162287885Y-110628000D01*
X162303124Y-110623525D01*
X162304329Y-110622135D01*
X162306000Y-110614452D01*
X162306000Y-110609884D01*
X162814000Y-110609884D01*
X162818475Y-110625123D01*
X162819865Y-110626328D01*
X162827548Y-110627999D01*
X163504669Y-110627999D01*
X163511490Y-110627629D01*
X163562352Y-110622105D01*
X163577604Y-110618479D01*
X163698054Y-110573324D01*
X163713649Y-110564786D01*
X163815724Y-110488285D01*
X163828285Y-110475724D01*
X163904786Y-110373649D01*
X163913324Y-110358054D01*
X163958478Y-110237606D01*
X163962105Y-110222351D01*
X163967631Y-110171486D01*
X163968000Y-110164672D01*
X163968000Y-109492115D01*
X163963525Y-109476876D01*
X163962135Y-109475671D01*
X163954452Y-109474000D01*
X162832115Y-109474000D01*
X162816876Y-109478475D01*
X162815671Y-109479865D01*
X162814000Y-109487548D01*
X162814000Y-110609884D01*
X162306000Y-110609884D01*
X162306000Y-109492115D01*
X162301525Y-109476876D01*
X162300135Y-109475671D01*
X162292452Y-109474000D01*
X161170116Y-109474000D01*
X161154877Y-109478475D01*
X161153672Y-109479865D01*
X161152001Y-109487548D01*
X161152001Y-110164669D01*
X139837999Y-110164669D01*
X139837999Y-109545331D01*
X139837629Y-109538510D01*
X139832105Y-109487648D01*
X139828479Y-109472396D01*
X139783324Y-109351946D01*
X139774786Y-109336351D01*
X139698285Y-109234276D01*
X139685724Y-109221715D01*
X139583649Y-109145214D01*
X139568054Y-109136676D01*
X139447606Y-109091522D01*
X139432351Y-109087895D01*
X139381486Y-109082369D01*
X139374672Y-109082000D01*
X138702115Y-109082000D01*
X138686876Y-109086475D01*
X138685671Y-109087865D01*
X138684000Y-109095548D01*
X138684000Y-110217885D01*
X138176000Y-110217885D01*
X138176000Y-109100116D01*
X138171525Y-109084877D01*
X138170135Y-109083672D01*
X138162452Y-109082001D01*
X137485331Y-109082001D01*
X137478510Y-109082371D01*
X137427648Y-109087895D01*
X137412397Y-109091521D01*
X137360730Y-109110890D01*
X137289923Y-109116073D01*
X137227554Y-109082152D01*
X137193424Y-109019897D01*
X137190500Y-108992908D01*
X137190500Y-106146286D01*
X137211796Y-106076193D01*
X137266860Y-105993939D01*
X137270289Y-105988817D01*
X137275253Y-105976893D01*
X137347093Y-105804307D01*
X137349459Y-105798623D01*
X137390179Y-105596673D01*
X137390500Y-105590337D01*
X137390499Y-104689664D01*
X137390179Y-104683327D01*
X137349459Y-104481377D01*
X137270289Y-104291183D01*
X137216004Y-104210093D01*
X137194730Y-104142360D01*
X137216004Y-104069906D01*
X137270289Y-103988817D01*
X137349459Y-103798623D01*
X137385171Y-103621509D01*
X137389254Y-103601261D01*
X137389254Y-103601260D01*
X137390179Y-103596673D01*
X137390500Y-103590337D01*
X137390500Y-103279030D01*
X147050800Y-103279030D01*
X147056527Y-103286680D01*
X147241272Y-103399893D01*
X147250067Y-103404375D01*
X147467490Y-103494434D01*
X147476875Y-103497483D01*
X147705708Y-103552422D01*
X147715455Y-103553965D01*
X147950070Y-103572430D01*
X147959930Y-103572430D01*
X148194545Y-103553965D01*
X148204292Y-103552422D01*
X148433125Y-103497483D01*
X148442510Y-103494434D01*
X148659933Y-103404375D01*
X148668728Y-103399893D01*
X148849805Y-103288928D01*
X148859267Y-103278470D01*
X148855484Y-103269694D01*
X147967812Y-102382022D01*
X147953868Y-102374408D01*
X147952035Y-102374539D01*
X147945420Y-102378790D01*
X147057560Y-103266650D01*
X147050800Y-103279030D01*
X137390500Y-103279030D01*
X137390499Y-102689664D01*
X137390179Y-102683327D01*
X137349459Y-102481377D01*
X137303129Y-102370075D01*
X137272657Y-102296871D01*
X137272656Y-102296868D01*
X137270289Y-102291183D01*
X137221272Y-102217962D01*
X137211796Y-102203807D01*
X137190500Y-102133714D01*
X137190500Y-102014930D01*
X146392570Y-102014930D01*
X146411035Y-102249545D01*
X146412578Y-102259292D01*
X146467517Y-102488125D01*
X146470566Y-102497510D01*
X146560625Y-102714933D01*
X146565107Y-102723728D01*
X146676072Y-102904805D01*
X146686530Y-102914267D01*
X146695306Y-102910484D01*
X147582978Y-102022812D01*
X147589356Y-102011132D01*
X148319408Y-102011132D01*
X148319539Y-102012965D01*
X148323790Y-102019580D01*
X149211650Y-102907440D01*
X149224030Y-102914200D01*
X149231680Y-102908473D01*
X149344893Y-102723728D01*
X149349375Y-102714933D01*
X149439434Y-102497510D01*
X149442483Y-102488125D01*
X149497422Y-102259292D01*
X149498965Y-102249545D01*
X149517430Y-102014930D01*
X149517430Y-102005070D01*
X149513232Y-101951726D01*
X149910688Y-101951726D01*
X149910863Y-101956177D01*
X149919388Y-102173130D01*
X149920977Y-102213582D01*
X149921777Y-102217962D01*
X149964739Y-102453200D01*
X149968058Y-102471376D01*
X149994635Y-102551036D01*
X150042123Y-102693374D01*
X150050994Y-102719965D01*
X150066252Y-102750501D01*
X150148048Y-102914200D01*
X150168128Y-102954387D01*
X150170657Y-102958046D01*
X150298411Y-103142891D01*
X150317124Y-103169967D01*
X150406497Y-103266650D01*
X150476746Y-103342644D01*
X150495010Y-103362402D01*
X150498464Y-103365214D01*
X150694778Y-103525039D01*
X150694782Y-103525042D01*
X150698235Y-103527853D01*
X150702057Y-103530154D01*
X150820257Y-103601316D01*
X150922745Y-103663019D01*
X151035545Y-103710784D01*
X151159962Y-103763468D01*
X151159966Y-103763469D01*
X151164060Y-103765203D01*
X151168352Y-103766341D01*
X151168355Y-103766342D01*
X151267331Y-103792585D01*
X151417365Y-103832366D01*
X151421789Y-103832890D01*
X151421791Y-103832890D01*
X151572572Y-103850736D01*
X151677607Y-103863167D01*
X151939592Y-103856993D01*
X151943986Y-103856262D01*
X151943993Y-103856261D01*
X152193692Y-103814700D01*
X152193696Y-103814699D01*
X152198094Y-103813967D01*
X152362061Y-103762111D01*
X152443709Y-103736289D01*
X152443711Y-103736288D01*
X152447955Y-103734946D01*
X152451966Y-103733020D01*
X152451971Y-103733018D01*
X152680169Y-103623439D01*
X152680170Y-103623438D01*
X152684188Y-103621509D01*
X152863115Y-103501954D01*
X152898380Y-103478391D01*
X152898384Y-103478388D01*
X152902082Y-103475917D01*
X153050877Y-103342644D01*
X153114964Y-103312094D01*
X153134942Y-103310500D01*
X156321217Y-103310500D01*
X156321221Y-103310501D01*
X156548779Y-103310501D01*
X156560280Y-103308473D01*
X156599499Y-103301558D01*
X156610396Y-103300124D01*
X156656202Y-103296116D01*
X156656210Y-103296115D01*
X156661692Y-103295635D01*
X156711436Y-103282306D01*
X156722164Y-103279928D01*
X156730432Y-103278470D01*
X156772880Y-103270985D01*
X156778045Y-103269105D01*
X156778053Y-103269103D01*
X156821267Y-103253374D01*
X156831752Y-103250068D01*
X156876180Y-103238164D01*
X156876186Y-103238162D01*
X156881496Y-103236739D01*
X156928174Y-103214973D01*
X156938327Y-103210768D01*
X156981539Y-103195040D01*
X156981540Y-103195040D01*
X156986715Y-103193156D01*
X156991481Y-103190404D01*
X156991484Y-103190403D01*
X157031323Y-103167402D01*
X157041054Y-103162336D01*
X157087734Y-103140568D01*
X157129924Y-103111027D01*
X157139170Y-103105136D01*
X157183786Y-103079377D01*
X157223235Y-103046275D01*
X157231952Y-103039586D01*
X157269636Y-103013200D01*
X157274139Y-103010047D01*
X157435047Y-102849139D01*
X157435049Y-102849136D01*
X163944405Y-96339779D01*
X164006717Y-96305753D01*
X164077532Y-96310818D01*
X164134368Y-96353365D01*
X164159179Y-96419885D01*
X164159500Y-96428874D01*
X164159500Y-99246865D01*
X164139498Y-99314986D01*
X164103594Y-99351569D01*
X163979989Y-99434316D01*
X163834316Y-99579989D01*
X163719711Y-99751183D01*
X163640541Y-99941377D01*
X163599821Y-100143327D01*
X163599500Y-100149663D01*
X163599501Y-101050336D01*
X163599821Y-101056673D01*
X163640541Y-101258623D01*
X163719711Y-101448817D01*
X163769031Y-101522490D01*
X163773996Y-101529906D01*
X163795270Y-101597640D01*
X163773996Y-101670093D01*
X163719711Y-101751183D01*
X163640541Y-101941377D01*
X163599821Y-102143327D01*
X163599500Y-102149663D01*
X163599501Y-103050336D01*
X163599821Y-103056673D01*
X163640541Y-103258623D01*
X163642907Y-103264307D01*
X163701212Y-103404375D01*
X163719711Y-103448817D01*
X163723140Y-103453939D01*
X163755283Y-103501954D01*
X163776557Y-103569688D01*
X163757834Y-103638172D01*
X163739674Y-103661142D01*
X162447733Y-104953083D01*
X162385421Y-104987109D01*
X162375629Y-104988837D01*
X162345209Y-104992977D01*
X162205455Y-105011996D01*
X162200965Y-105013305D01*
X162200959Y-105013306D01*
X162097851Y-105043360D01*
X161962803Y-105082723D01*
X161958556Y-105084681D01*
X161958553Y-105084682D01*
X161872533Y-105124338D01*
X161733270Y-105188539D01*
X161729361Y-105191102D01*
X161525812Y-105324554D01*
X161525807Y-105324558D01*
X161521899Y-105327120D01*
X161465016Y-105377890D01*
X161414571Y-105422914D01*
X161333333Y-105495421D01*
X161171715Y-105689746D01*
X161040595Y-105905825D01*
X161038786Y-105910139D01*
X161038785Y-105910141D01*
X160969154Y-106076193D01*
X160942854Y-106138911D01*
X160880639Y-106383883D01*
X160855316Y-106635361D01*
X160867443Y-106887820D01*
X160868356Y-106892409D01*
X160886771Y-106984986D01*
X160916752Y-107135713D01*
X160918331Y-107140111D01*
X160918333Y-107140118D01*
X161000577Y-107369186D01*
X161002160Y-107373595D01*
X161121792Y-107596240D01*
X161124587Y-107599984D01*
X161124589Y-107599986D01*
X161270226Y-107795018D01*
X161270231Y-107795024D01*
X161273018Y-107798756D01*
X161276336Y-107802045D01*
X161277000Y-107802704D01*
X161277159Y-107802993D01*
X161279404Y-107805575D01*
X161278850Y-107806057D01*
X161311292Y-107864869D01*
X161306532Y-107935706D01*
X161289115Y-107967746D01*
X161215211Y-108066356D01*
X161206676Y-108081946D01*
X161161522Y-108202394D01*
X161157895Y-108217649D01*
X161152369Y-108268514D01*
X161152000Y-108275328D01*
X161152000Y-108947885D01*
X161156475Y-108963124D01*
X161157865Y-108964329D01*
X161165548Y-108966000D01*
X163949884Y-108966000D01*
X163965123Y-108961525D01*
X163966328Y-108960135D01*
X163967999Y-108952452D01*
X163967999Y-108275331D01*
X163967629Y-108268510D01*
X163962105Y-108217648D01*
X163958479Y-108202396D01*
X163913324Y-108081946D01*
X163904786Y-108066351D01*
X163828450Y-107964496D01*
X163803602Y-107897989D01*
X163818655Y-107828607D01*
X163834544Y-107805854D01*
X163918800Y-107709778D01*
X163918804Y-107709772D01*
X163921888Y-107706256D01*
X163995126Y-107592395D01*
X164056094Y-107497610D01*
X164056096Y-107497607D01*
X164058619Y-107493684D01*
X164162428Y-107263236D01*
X164231034Y-107019976D01*
X164240190Y-106948005D01*
X164250643Y-106865837D01*
X164279082Y-106800785D01*
X164286541Y-106792643D01*
X165939134Y-105140050D01*
X165939139Y-105140047D01*
X166100047Y-104979139D01*
X166129599Y-104936934D01*
X166136266Y-104928245D01*
X166169376Y-104888786D01*
X166195122Y-104844193D01*
X166201025Y-104834928D01*
X166227410Y-104797245D01*
X166227413Y-104797240D01*
X166230568Y-104792734D01*
X166252340Y-104746044D01*
X166257406Y-104736314D01*
X166280403Y-104696482D01*
X166280404Y-104696480D01*
X166283155Y-104691715D01*
X166286209Y-104683327D01*
X166300768Y-104643325D01*
X166304967Y-104633186D01*
X166326739Y-104586496D01*
X166340068Y-104536751D01*
X166343373Y-104526267D01*
X166359104Y-104483047D01*
X166360985Y-104477880D01*
X166369928Y-104427164D01*
X166372307Y-104416433D01*
X166384211Y-104372005D01*
X166385635Y-104366692D01*
X166386115Y-104361210D01*
X166386116Y-104361202D01*
X166390124Y-104315396D01*
X166391558Y-104304499D01*
X166399545Y-104259200D01*
X166400501Y-104253779D01*
X166400501Y-104026221D01*
X166400500Y-104026215D01*
X166400500Y-103606286D01*
X166421796Y-103536193D01*
X166476860Y-103453939D01*
X166480289Y-103448817D01*
X166498789Y-103404375D01*
X166557093Y-103264307D01*
X166559459Y-103258623D01*
X166600179Y-103056673D01*
X166600500Y-103050337D01*
X166600499Y-102149664D01*
X166600179Y-102143327D01*
X166559459Y-101941377D01*
X166480289Y-101751183D01*
X166426004Y-101670093D01*
X166404730Y-101602360D01*
X166426004Y-101529906D01*
X166430969Y-101522490D01*
X166480289Y-101448817D01*
X166559459Y-101258623D01*
X166600179Y-101056673D01*
X166600500Y-101050337D01*
X166600500Y-100899370D01*
X166612493Y-100845720D01*
X166612517Y-100845669D01*
X166617404Y-100836320D01*
X166640405Y-100796481D01*
X166640407Y-100796476D01*
X166643156Y-100791715D01*
X166652914Y-100764905D01*
X166660768Y-100743327D01*
X166664974Y-100733171D01*
X166676012Y-100709500D01*
X166686739Y-100686496D01*
X166688162Y-100681186D01*
X166688164Y-100681180D01*
X166700068Y-100636752D01*
X166703374Y-100626267D01*
X166719103Y-100583053D01*
X166719105Y-100583045D01*
X166720985Y-100577880D01*
X166729928Y-100527164D01*
X166732307Y-100516433D01*
X166741752Y-100481183D01*
X166745635Y-100466692D01*
X166746115Y-100461210D01*
X166746116Y-100461202D01*
X166750124Y-100415396D01*
X166751558Y-100404499D01*
X166759545Y-100359200D01*
X166760501Y-100353779D01*
X166760501Y-100126221D01*
X166760500Y-100126215D01*
X166760500Y-93098785D01*
X166760501Y-93098779D01*
X166760501Y-92871221D01*
X166760500Y-92871215D01*
X166760500Y-79373678D01*
X166780502Y-79305557D01*
X166791763Y-79290607D01*
X166821888Y-79256256D01*
X166892653Y-79146240D01*
X166956094Y-79047610D01*
X166956096Y-79047607D01*
X166958619Y-79043684D01*
X167062428Y-78813236D01*
X167131034Y-78569976D01*
X167147263Y-78442409D01*
X167162533Y-78322378D01*
X167162533Y-78322372D01*
X167162931Y-78319247D01*
X167165268Y-78230000D01*
X167152346Y-78056111D01*
X167146883Y-77982597D01*
X167146882Y-77982593D01*
X167146537Y-77977945D01*
X167090756Y-77731428D01*
X167072544Y-77684596D01*
X167000843Y-77500216D01*
X167000842Y-77500214D01*
X166999150Y-77495863D01*
X166873731Y-77276426D01*
X166717255Y-77077938D01*
X166533160Y-76904758D01*
X166325489Y-76760691D01*
X166321296Y-76758623D01*
X166102993Y-76650968D01*
X166102990Y-76650967D01*
X166098805Y-76648903D01*
X166054379Y-76634682D01*
X166002403Y-76618045D01*
X165858087Y-76571849D01*
X165853480Y-76571099D01*
X165853477Y-76571098D01*
X165613235Y-76531972D01*
X165613236Y-76531972D01*
X165608624Y-76531221D01*
X165486026Y-76529616D01*
X165360573Y-76527974D01*
X165360570Y-76527974D01*
X165355896Y-76527913D01*
X165105455Y-76561996D01*
X165100965Y-76563305D01*
X165100959Y-76563306D01*
X164997851Y-76593360D01*
X164862803Y-76632723D01*
X164858556Y-76634681D01*
X164858553Y-76634682D01*
X164823226Y-76650968D01*
X164633270Y-76738539D01*
X164629361Y-76741102D01*
X164425812Y-76874554D01*
X164425807Y-76874558D01*
X164421899Y-76877120D01*
X164233333Y-77045421D01*
X164071715Y-77239746D01*
X163940595Y-77455825D01*
X163938786Y-77460139D01*
X163938785Y-77460141D01*
X163906626Y-77536833D01*
X163842854Y-77688911D01*
X163780639Y-77933883D01*
X163755316Y-78185361D01*
X163755540Y-78190027D01*
X163755540Y-78190033D01*
X163760614Y-78295663D01*
X163767443Y-78437820D01*
X163768356Y-78442409D01*
X163811099Y-78657292D01*
X163816752Y-78685713D01*
X163818331Y-78690111D01*
X163818333Y-78690118D01*
X163880124Y-78862220D01*
X163902160Y-78923595D01*
X164021792Y-79146240D01*
X164024587Y-79149983D01*
X164024589Y-79149986D01*
X164134458Y-79297118D01*
X164159190Y-79363668D01*
X164159500Y-79372507D01*
X164159500Y-92394126D01*
X164139498Y-92462247D01*
X164122595Y-92483221D01*
X155933220Y-100672595D01*
X155870908Y-100706621D01*
X155844125Y-100709500D01*
X153134361Y-100709500D01*
X153066240Y-100689498D01*
X153044569Y-100671893D01*
X153038466Y-100665693D01*
X152991884Y-100618374D01*
X152866281Y-100522517D01*
X152787107Y-100462093D01*
X152787103Y-100462090D01*
X152783562Y-100459388D01*
X152554917Y-100331340D01*
X152550768Y-100329735D01*
X152550764Y-100329733D01*
X152354170Y-100253677D01*
X152310512Y-100236787D01*
X152306191Y-100235785D01*
X152306183Y-100235783D01*
X152138069Y-100196817D01*
X152055221Y-100177614D01*
X151794141Y-100155002D01*
X151789706Y-100155246D01*
X151789702Y-100155246D01*
X151536921Y-100169157D01*
X151536914Y-100169158D01*
X151532478Y-100169402D01*
X151275456Y-100220527D01*
X151271246Y-100222005D01*
X151271244Y-100222006D01*
X151221087Y-100239620D01*
X151028201Y-100307357D01*
X151024250Y-100309410D01*
X151024244Y-100309412D01*
X150928399Y-100359200D01*
X150795647Y-100428159D01*
X150792032Y-100430742D01*
X150792026Y-100430746D01*
X150586055Y-100577935D01*
X150586051Y-100577938D01*
X150582434Y-100580523D01*
X150542756Y-100618374D01*
X150413655Y-100741530D01*
X150392816Y-100761409D01*
X150390060Y-100764905D01*
X150260159Y-100929685D01*
X150230578Y-100967208D01*
X150228346Y-100971050D01*
X150228343Y-100971055D01*
X150127436Y-101144780D01*
X150098955Y-101193813D01*
X150097290Y-101197925D01*
X150097287Y-101197930D01*
X150053892Y-101305067D01*
X150000574Y-101436703D01*
X149937399Y-101691032D01*
X149910688Y-101951726D01*
X149513232Y-101951726D01*
X149498965Y-101770455D01*
X149497422Y-101760708D01*
X149442483Y-101531875D01*
X149439434Y-101522490D01*
X149349375Y-101305067D01*
X149344893Y-101296272D01*
X149233928Y-101115195D01*
X149223470Y-101105733D01*
X149214694Y-101109516D01*
X148327022Y-101997188D01*
X148319408Y-102011132D01*
X147589356Y-102011132D01*
X147590592Y-102008868D01*
X147590461Y-102007035D01*
X147586210Y-102000420D01*
X146698350Y-101112560D01*
X146685970Y-101105800D01*
X146678320Y-101111527D01*
X146565107Y-101296272D01*
X146560625Y-101305067D01*
X146470566Y-101522490D01*
X146467517Y-101531875D01*
X146412578Y-101760708D01*
X146411035Y-101770455D01*
X146392570Y-102005070D01*
X146392570Y-102014930D01*
X137190500Y-102014930D01*
X137190500Y-100741530D01*
X147050733Y-100741530D01*
X147054516Y-100750306D01*
X147942188Y-101637978D01*
X147956132Y-101645592D01*
X147957965Y-101645461D01*
X147964580Y-101641210D01*
X148852440Y-100753350D01*
X148859200Y-100740970D01*
X148853473Y-100733320D01*
X148668728Y-100620107D01*
X148659933Y-100615625D01*
X148442510Y-100525566D01*
X148433125Y-100522517D01*
X148204292Y-100467578D01*
X148194545Y-100466035D01*
X147959930Y-100447570D01*
X147950070Y-100447570D01*
X147715455Y-100466035D01*
X147705708Y-100467578D01*
X147476875Y-100522517D01*
X147467490Y-100525566D01*
X147250067Y-100615625D01*
X147241272Y-100620107D01*
X147060195Y-100731072D01*
X147050733Y-100741530D01*
X137190500Y-100741530D01*
X137190500Y-97903791D01*
X137190501Y-97903767D01*
X137190501Y-97676221D01*
X137190500Y-97676215D01*
X137190500Y-92823785D01*
X137190501Y-92823779D01*
X137190501Y-92596221D01*
X137189546Y-92590805D01*
X137189545Y-92590794D01*
X137181558Y-92545503D01*
X137180122Y-92534601D01*
X137176114Y-92488785D01*
X137175635Y-92483308D01*
X137174212Y-92477996D01*
X137174210Y-92477987D01*
X137162306Y-92433561D01*
X137159926Y-92422828D01*
X137151941Y-92377540D01*
X137151940Y-92377535D01*
X137150985Y-92372121D01*
X137149102Y-92366947D01*
X137133372Y-92323726D01*
X137130068Y-92313247D01*
X137118161Y-92268812D01*
X137116739Y-92263504D01*
X137094973Y-92216826D01*
X137090768Y-92206673D01*
X137075040Y-92163461D01*
X137075040Y-92163460D01*
X137073156Y-92158285D01*
X137047401Y-92113675D01*
X137042336Y-92103946D01*
X137020568Y-92057266D01*
X136991027Y-92015076D01*
X136985136Y-92005830D01*
X136959377Y-91961214D01*
X136926275Y-91921765D01*
X136919586Y-91913048D01*
X136893200Y-91875364D01*
X136890047Y-91870861D01*
X136729139Y-91709953D01*
X136729136Y-91709951D01*
X133080049Y-88060864D01*
X133080047Y-88060861D01*
X132919139Y-87899953D01*
X132876947Y-87870411D01*
X132868230Y-87863721D01*
X132828786Y-87830623D01*
X132784170Y-87804864D01*
X132774924Y-87798973D01*
X132732734Y-87769432D01*
X132686054Y-87747664D01*
X132676323Y-87742598D01*
X132636484Y-87719597D01*
X132636481Y-87719596D01*
X132631715Y-87716844D01*
X132626539Y-87714960D01*
X132583327Y-87699232D01*
X132573171Y-87695026D01*
X132526496Y-87673261D01*
X132521186Y-87671838D01*
X132521180Y-87671836D01*
X132476752Y-87659932D01*
X132466267Y-87656626D01*
X132423053Y-87640897D01*
X132423045Y-87640895D01*
X132417880Y-87639015D01*
X132367165Y-87630072D01*
X132356433Y-87627693D01*
X132306692Y-87614365D01*
X132301210Y-87613885D01*
X132301202Y-87613884D01*
X132255396Y-87609876D01*
X132244499Y-87608442D01*
X132205280Y-87601527D01*
X132193779Y-87599499D01*
X131966221Y-87599499D01*
X131966217Y-87599500D01*
X120960875Y-87599500D01*
X120892754Y-87579498D01*
X120871780Y-87562595D01*
X111494546Y-78185361D01*
X118095316Y-78185361D01*
X118095540Y-78190027D01*
X118095540Y-78190033D01*
X118100614Y-78295663D01*
X118107443Y-78437820D01*
X118108356Y-78442409D01*
X118151099Y-78657292D01*
X118156752Y-78685713D01*
X118158331Y-78690111D01*
X118158333Y-78690118D01*
X118220124Y-78862220D01*
X118242160Y-78923595D01*
X118361792Y-79146240D01*
X118364587Y-79149984D01*
X118364589Y-79149986D01*
X118510226Y-79345018D01*
X118510231Y-79345024D01*
X118513018Y-79348756D01*
X118516327Y-79352036D01*
X118516332Y-79352042D01*
X118667127Y-79501527D01*
X118692517Y-79526696D01*
X118696279Y-79529454D01*
X118696282Y-79529457D01*
X118848657Y-79641182D01*
X118896346Y-79676149D01*
X118900481Y-79678325D01*
X118900485Y-79678327D01*
X119017952Y-79740129D01*
X119120026Y-79793833D01*
X119358644Y-79877162D01*
X119363237Y-79878034D01*
X119602369Y-79923435D01*
X119602372Y-79923435D01*
X119606958Y-79924306D01*
X119727081Y-79929026D01*
X119854845Y-79934046D01*
X119854850Y-79934046D01*
X119859513Y-79934229D01*
X119943609Y-79925019D01*
X120106107Y-79907223D01*
X120106112Y-79907222D01*
X120110760Y-79906713D01*
X120228861Y-79875620D01*
X120350658Y-79843554D01*
X120350661Y-79843553D01*
X120355181Y-79842363D01*
X120587405Y-79742591D01*
X120694774Y-79676149D01*
X120798358Y-79612050D01*
X120798362Y-79612047D01*
X120802331Y-79609591D01*
X120896989Y-79529457D01*
X120991672Y-79449302D01*
X120991673Y-79449301D01*
X120995238Y-79446283D01*
X121043364Y-79391406D01*
X129103423Y-79391406D01*
X129108704Y-79398461D01*
X129285080Y-79501527D01*
X129294363Y-79505974D01*
X129501003Y-79584883D01*
X129510901Y-79587759D01*
X129727653Y-79631857D01*
X129737883Y-79633076D01*
X129958914Y-79641182D01*
X129969223Y-79640714D01*
X130188623Y-79612608D01*
X130198688Y-79610468D01*
X130410557Y-79546905D01*
X130420152Y-79543144D01*
X130618778Y-79445838D01*
X130627636Y-79440559D01*
X130685097Y-79399572D01*
X130691509Y-79391406D01*
X144463423Y-79391406D01*
X144468704Y-79398461D01*
X144645080Y-79501527D01*
X144654363Y-79505974D01*
X144861003Y-79584883D01*
X144870901Y-79587759D01*
X145087653Y-79631857D01*
X145097883Y-79633076D01*
X145318914Y-79641182D01*
X145329223Y-79640714D01*
X145548623Y-79612608D01*
X145558688Y-79610468D01*
X145770557Y-79546905D01*
X145780152Y-79543144D01*
X145978778Y-79445838D01*
X145987636Y-79440559D01*
X146045097Y-79399572D01*
X146053497Y-79388874D01*
X146046510Y-79375721D01*
X145272811Y-78602021D01*
X145258868Y-78594408D01*
X145257034Y-78594539D01*
X145250420Y-78598790D01*
X144470180Y-79379031D01*
X144463423Y-79391406D01*
X130691509Y-79391406D01*
X130693497Y-79388874D01*
X130686510Y-79375721D01*
X129912811Y-78602021D01*
X129898868Y-78594408D01*
X129897034Y-78594539D01*
X129890420Y-78598790D01*
X129110180Y-79379031D01*
X129103423Y-79391406D01*
X121043364Y-79391406D01*
X121077886Y-79352042D01*
X121158806Y-79259771D01*
X121158810Y-79259766D01*
X121161888Y-79256256D01*
X121232653Y-79146240D01*
X121296094Y-79047610D01*
X121296096Y-79047607D01*
X121298619Y-79043684D01*
X121402428Y-78813236D01*
X121471034Y-78569976D01*
X121487263Y-78442409D01*
X121502533Y-78322378D01*
X121502533Y-78322372D01*
X121502931Y-78319247D01*
X121505268Y-78230000D01*
X121503086Y-78200638D01*
X128487893Y-78200638D01*
X128500627Y-78421468D01*
X128502061Y-78431670D01*
X128550685Y-78647439D01*
X128553773Y-78657292D01*
X128636986Y-78862220D01*
X128641634Y-78871421D01*
X128730097Y-79015781D01*
X128740553Y-79025242D01*
X128749331Y-79021458D01*
X129527979Y-78242811D01*
X129534356Y-78231132D01*
X130264408Y-78231132D01*
X130264539Y-78232966D01*
X130268790Y-78239580D01*
X131046307Y-79017096D01*
X131058313Y-79023652D01*
X131070052Y-79014684D01*
X131108010Y-78961859D01*
X131113321Y-78953020D01*
X131211318Y-78754737D01*
X131215117Y-78745142D01*
X131279415Y-78533517D01*
X131281594Y-78523436D01*
X131310702Y-78302338D01*
X131311221Y-78295663D01*
X131312744Y-78233364D01*
X131312550Y-78226646D01*
X131310412Y-78200638D01*
X143847893Y-78200638D01*
X143860627Y-78421468D01*
X143862061Y-78431670D01*
X143910685Y-78647439D01*
X143913773Y-78657292D01*
X143996986Y-78862220D01*
X144001634Y-78871421D01*
X144090097Y-79015781D01*
X144100553Y-79025242D01*
X144109331Y-79021458D01*
X144887979Y-78242811D01*
X144894356Y-78231132D01*
X145624408Y-78231132D01*
X145624539Y-78232966D01*
X145628790Y-78239580D01*
X146406307Y-79017096D01*
X146418313Y-79023652D01*
X146430052Y-79014684D01*
X146468010Y-78961859D01*
X146473321Y-78953020D01*
X146571318Y-78754737D01*
X146575117Y-78745142D01*
X146639415Y-78533517D01*
X146641594Y-78523436D01*
X146670702Y-78302338D01*
X146671221Y-78295663D01*
X146672744Y-78233364D01*
X146672550Y-78226646D01*
X146669156Y-78185361D01*
X153655316Y-78185361D01*
X153655540Y-78190027D01*
X153655540Y-78190033D01*
X153660614Y-78295663D01*
X153667443Y-78437820D01*
X153668356Y-78442409D01*
X153711099Y-78657292D01*
X153716752Y-78685713D01*
X153718331Y-78690111D01*
X153718333Y-78690118D01*
X153780124Y-78862220D01*
X153802160Y-78923595D01*
X153921792Y-79146240D01*
X153924587Y-79149984D01*
X153924589Y-79149986D01*
X154070226Y-79345018D01*
X154070231Y-79345024D01*
X154073018Y-79348756D01*
X154076327Y-79352036D01*
X154076332Y-79352042D01*
X154227127Y-79501527D01*
X154252517Y-79526696D01*
X154256279Y-79529454D01*
X154256282Y-79529457D01*
X154408657Y-79641182D01*
X154456346Y-79676149D01*
X154460481Y-79678325D01*
X154460485Y-79678327D01*
X154577952Y-79740129D01*
X154680026Y-79793833D01*
X154918644Y-79877162D01*
X154923237Y-79878034D01*
X155162369Y-79923435D01*
X155162372Y-79923435D01*
X155166958Y-79924306D01*
X155287081Y-79929026D01*
X155414845Y-79934046D01*
X155414850Y-79934046D01*
X155419513Y-79934229D01*
X155503609Y-79925019D01*
X155666107Y-79907223D01*
X155666112Y-79907222D01*
X155670760Y-79906713D01*
X155788861Y-79875620D01*
X155910658Y-79843554D01*
X155910661Y-79843553D01*
X155915181Y-79842363D01*
X156147405Y-79742591D01*
X156254774Y-79676149D01*
X156358358Y-79612050D01*
X156358362Y-79612047D01*
X156362331Y-79609591D01*
X156456989Y-79529457D01*
X156551672Y-79449302D01*
X156551673Y-79449301D01*
X156555238Y-79446283D01*
X156637886Y-79352042D01*
X156718806Y-79259771D01*
X156718810Y-79259766D01*
X156721888Y-79256256D01*
X156792653Y-79146240D01*
X156856094Y-79047610D01*
X156856096Y-79047607D01*
X156858619Y-79043684D01*
X156962428Y-78813236D01*
X157031034Y-78569976D01*
X157047263Y-78442409D01*
X157062533Y-78322378D01*
X157062533Y-78322372D01*
X157062931Y-78319247D01*
X157065268Y-78230000D01*
X157052346Y-78056111D01*
X157046883Y-77982597D01*
X157046882Y-77982593D01*
X157046537Y-77977945D01*
X156990756Y-77731428D01*
X156972544Y-77684596D01*
X156900843Y-77500216D01*
X156900842Y-77500214D01*
X156899150Y-77495863D01*
X156773731Y-77276426D01*
X156617255Y-77077938D01*
X156433160Y-76904758D01*
X156225489Y-76760691D01*
X156221296Y-76758623D01*
X156002993Y-76650968D01*
X156002990Y-76650967D01*
X155998805Y-76648903D01*
X155954379Y-76634682D01*
X155902403Y-76618045D01*
X155758087Y-76571849D01*
X155753480Y-76571099D01*
X155753477Y-76571098D01*
X155513235Y-76531972D01*
X155513236Y-76531972D01*
X155508624Y-76531221D01*
X155386026Y-76529616D01*
X155260573Y-76527974D01*
X155260570Y-76527974D01*
X155255896Y-76527913D01*
X155005455Y-76561996D01*
X155000965Y-76563305D01*
X155000959Y-76563306D01*
X154897851Y-76593360D01*
X154762803Y-76632723D01*
X154758556Y-76634681D01*
X154758553Y-76634682D01*
X154723226Y-76650968D01*
X154533270Y-76738539D01*
X154529361Y-76741102D01*
X154325812Y-76874554D01*
X154325807Y-76874558D01*
X154321899Y-76877120D01*
X154133333Y-77045421D01*
X153971715Y-77239746D01*
X153840595Y-77455825D01*
X153838786Y-77460139D01*
X153838785Y-77460141D01*
X153806626Y-77536833D01*
X153742854Y-77688911D01*
X153680639Y-77933883D01*
X153655316Y-78185361D01*
X146669156Y-78185361D01*
X146654279Y-78004400D01*
X146652596Y-77994238D01*
X146598710Y-77779708D01*
X146595389Y-77769953D01*
X146507193Y-77567118D01*
X146502315Y-77558020D01*
X146429224Y-77445038D01*
X146418538Y-77435835D01*
X146408973Y-77440238D01*
X145632021Y-78217189D01*
X145624408Y-78231132D01*
X144894356Y-78231132D01*
X144895592Y-78228868D01*
X144895461Y-78227034D01*
X144891210Y-78220420D01*
X144113862Y-77443073D01*
X144102330Y-77436776D01*
X144090048Y-77446399D01*
X144034467Y-77527877D01*
X144029379Y-77536833D01*
X143936252Y-77737459D01*
X143932689Y-77747146D01*
X143873581Y-77960280D01*
X143871650Y-77970400D01*
X143848145Y-78190349D01*
X143847893Y-78200638D01*
X131310412Y-78200638D01*
X131294279Y-78004400D01*
X131292596Y-77994238D01*
X131238710Y-77779708D01*
X131235389Y-77769953D01*
X131147193Y-77567118D01*
X131142315Y-77558020D01*
X131069224Y-77445038D01*
X131058538Y-77435835D01*
X131048973Y-77440238D01*
X130272021Y-78217189D01*
X130264408Y-78231132D01*
X129534356Y-78231132D01*
X129535592Y-78228868D01*
X129535461Y-78227034D01*
X129531210Y-78220420D01*
X128753862Y-77443073D01*
X128742330Y-77436776D01*
X128730048Y-77446399D01*
X128674467Y-77527877D01*
X128669379Y-77536833D01*
X128576252Y-77737459D01*
X128572689Y-77747146D01*
X128513581Y-77960280D01*
X128511650Y-77970400D01*
X128488145Y-78190349D01*
X128487893Y-78200638D01*
X121503086Y-78200638D01*
X121492346Y-78056111D01*
X121486883Y-77982597D01*
X121486882Y-77982593D01*
X121486537Y-77977945D01*
X121430756Y-77731428D01*
X121412544Y-77684596D01*
X121340843Y-77500216D01*
X121340842Y-77500214D01*
X121339150Y-77495863D01*
X121213731Y-77276426D01*
X121057255Y-77077938D01*
X121049573Y-77070711D01*
X129105508Y-77070711D01*
X129112251Y-77083040D01*
X129887189Y-77857979D01*
X129901132Y-77865592D01*
X129902966Y-77865461D01*
X129909580Y-77861210D01*
X130688994Y-77081795D01*
X130695046Y-77070711D01*
X144465508Y-77070711D01*
X144472251Y-77083040D01*
X145247189Y-77857979D01*
X145261132Y-77865592D01*
X145262966Y-77865461D01*
X145269580Y-77861210D01*
X146048994Y-77081795D01*
X146056011Y-77068944D01*
X146048237Y-77058274D01*
X146045902Y-77056430D01*
X146037320Y-77050729D01*
X145843678Y-76943833D01*
X145834272Y-76939606D01*
X145625772Y-76865772D01*
X145615809Y-76863140D01*
X145398047Y-76824350D01*
X145387796Y-76823381D01*
X145166616Y-76820679D01*
X145156332Y-76821399D01*
X144937693Y-76854855D01*
X144927666Y-76857244D01*
X144717426Y-76925961D01*
X144707916Y-76929958D01*
X144511725Y-77032089D01*
X144503007Y-77037578D01*
X144473961Y-77059386D01*
X144465508Y-77070711D01*
X130695046Y-77070711D01*
X130696011Y-77068944D01*
X130688237Y-77058274D01*
X130685902Y-77056430D01*
X130677320Y-77050729D01*
X130483678Y-76943833D01*
X130474272Y-76939606D01*
X130265772Y-76865772D01*
X130255809Y-76863140D01*
X130038047Y-76824350D01*
X130027796Y-76823381D01*
X129806616Y-76820679D01*
X129796332Y-76821399D01*
X129577693Y-76854855D01*
X129567666Y-76857244D01*
X129357426Y-76925961D01*
X129347916Y-76929958D01*
X129151725Y-77032089D01*
X129143007Y-77037578D01*
X129113961Y-77059386D01*
X129105508Y-77070711D01*
X121049573Y-77070711D01*
X120873160Y-76904758D01*
X120665489Y-76760691D01*
X120661296Y-76758623D01*
X120442993Y-76650968D01*
X120442990Y-76650967D01*
X120438805Y-76648903D01*
X120394379Y-76634682D01*
X120342403Y-76618045D01*
X120198087Y-76571849D01*
X120193480Y-76571099D01*
X120193477Y-76571098D01*
X119953235Y-76531972D01*
X119953236Y-76531972D01*
X119948624Y-76531221D01*
X119826026Y-76529616D01*
X119700573Y-76527974D01*
X119700570Y-76527974D01*
X119695896Y-76527913D01*
X119445455Y-76561996D01*
X119440965Y-76563305D01*
X119440959Y-76563306D01*
X119337851Y-76593360D01*
X119202803Y-76632723D01*
X119198556Y-76634681D01*
X119198553Y-76634682D01*
X119163226Y-76650968D01*
X118973270Y-76738539D01*
X118969361Y-76741102D01*
X118765812Y-76874554D01*
X118765807Y-76874558D01*
X118761899Y-76877120D01*
X118573333Y-77045421D01*
X118411715Y-77239746D01*
X118280595Y-77455825D01*
X118278786Y-77460139D01*
X118278785Y-77460141D01*
X118246626Y-77536833D01*
X118182854Y-77688911D01*
X118120639Y-77933883D01*
X118095316Y-78185361D01*
X111494546Y-78185361D01*
X111427608Y-78118423D01*
X111393582Y-78056111D01*
X111391049Y-78038665D01*
X111386884Y-77982610D01*
X111386883Y-77982605D01*
X111386537Y-77977945D01*
X111330756Y-77731428D01*
X111312544Y-77684596D01*
X111240843Y-77500216D01*
X111240842Y-77500214D01*
X111239150Y-77495863D01*
X111113731Y-77276426D01*
X110957255Y-77077938D01*
X110773160Y-76904758D01*
X110565489Y-76760691D01*
X110561296Y-76758623D01*
X110342993Y-76650968D01*
X110342990Y-76650967D01*
X110338805Y-76648903D01*
X110294379Y-76634682D01*
X110242403Y-76618045D01*
X110098087Y-76571849D01*
X110093480Y-76571099D01*
X110093477Y-76571098D01*
X109853235Y-76531972D01*
X109853236Y-76531972D01*
X109848624Y-76531221D01*
X109726026Y-76529616D01*
X109600573Y-76527974D01*
X109600570Y-76527974D01*
X109595896Y-76527913D01*
X109345455Y-76561996D01*
X109340965Y-76563305D01*
X109340959Y-76563306D01*
X109237851Y-76593360D01*
X109102803Y-76632723D01*
X109098556Y-76634681D01*
X109098553Y-76634682D01*
X109063226Y-76650968D01*
X108873270Y-76738539D01*
X108869361Y-76741102D01*
X108665812Y-76874554D01*
X108665807Y-76874558D01*
X108661899Y-76877120D01*
X108473333Y-77045421D01*
X108311715Y-77239746D01*
X108180595Y-77455825D01*
X108178786Y-77460139D01*
X108178785Y-77460141D01*
X108146626Y-77536833D01*
X108082854Y-77688911D01*
X108020639Y-77933883D01*
X107995316Y-78185361D01*
X104940000Y-78185361D01*
X104940000Y-36807953D01*
X112274707Y-36807953D01*
X112291194Y-37093878D01*
X112292019Y-37098083D01*
X112292020Y-37098091D01*
X112323853Y-37260342D01*
X112346332Y-37374920D01*
X112347719Y-37378970D01*
X112347720Y-37378975D01*
X112417985Y-37584200D01*
X112439102Y-37645878D01*
X112441029Y-37649709D01*
X112557747Y-37881777D01*
X112567787Y-37901740D01*
X112570213Y-37905269D01*
X112570216Y-37905275D01*
X112677465Y-38061323D01*
X112730006Y-38137770D01*
X112922756Y-38349600D01*
X112926030Y-38352337D01*
X112926043Y-38352350D01*
X113034322Y-38442884D01*
X113073752Y-38501925D01*
X113079500Y-38539547D01*
X113079500Y-55036215D01*
X113079499Y-55036221D01*
X113079499Y-55263779D01*
X113080455Y-55269200D01*
X113088442Y-55314499D01*
X113089876Y-55325396D01*
X113093884Y-55371202D01*
X113093885Y-55371210D01*
X113094365Y-55376692D01*
X113095789Y-55382005D01*
X113107693Y-55426433D01*
X113110072Y-55437164D01*
X113119015Y-55487880D01*
X113120895Y-55493045D01*
X113120897Y-55493053D01*
X113136626Y-55536267D01*
X113139932Y-55546752D01*
X113151836Y-55591180D01*
X113151838Y-55591186D01*
X113153261Y-55596496D01*
X113155586Y-55601481D01*
X113175026Y-55643171D01*
X113179232Y-55653327D01*
X113196844Y-55701715D01*
X113199596Y-55706481D01*
X113199597Y-55706484D01*
X113222598Y-55746323D01*
X113227664Y-55756054D01*
X113249432Y-55802734D01*
X113278973Y-55844924D01*
X113284864Y-55854170D01*
X113310623Y-55898786D01*
X113314162Y-55903003D01*
X113343721Y-55938230D01*
X113350411Y-55946947D01*
X113379953Y-55989139D01*
X113540861Y-56150047D01*
X113540863Y-56150048D01*
X115429931Y-58039116D01*
X115463957Y-58101428D01*
X115466691Y-58122164D01*
X115467443Y-58137820D01*
X115468356Y-58142409D01*
X115511099Y-58357292D01*
X115516752Y-58385713D01*
X115518331Y-58390111D01*
X115518333Y-58390118D01*
X115580124Y-58562220D01*
X115602160Y-58623595D01*
X115721792Y-58846240D01*
X115724587Y-58849984D01*
X115724589Y-58849986D01*
X115870226Y-59045018D01*
X115870231Y-59045024D01*
X115873018Y-59048756D01*
X115876327Y-59052036D01*
X115876332Y-59052042D01*
X116027127Y-59201527D01*
X116052517Y-59226696D01*
X116056279Y-59229454D01*
X116056282Y-59229457D01*
X116208657Y-59341182D01*
X116256346Y-59376149D01*
X116260481Y-59378325D01*
X116260485Y-59378327D01*
X116377952Y-59440129D01*
X116480026Y-59493833D01*
X116718644Y-59577162D01*
X116723237Y-59578034D01*
X116962369Y-59623435D01*
X116962372Y-59623435D01*
X116966958Y-59624306D01*
X117087081Y-59629026D01*
X117214845Y-59634046D01*
X117214850Y-59634046D01*
X117219513Y-59634229D01*
X117297657Y-59625671D01*
X117466107Y-59607223D01*
X117466112Y-59607222D01*
X117470760Y-59606713D01*
X117588861Y-59575620D01*
X117710658Y-59543554D01*
X117710661Y-59543553D01*
X117715181Y-59542363D01*
X117947405Y-59442591D01*
X118054774Y-59376149D01*
X118158358Y-59312050D01*
X118158362Y-59312047D01*
X118162331Y-59309591D01*
X118256989Y-59229457D01*
X118351672Y-59149302D01*
X118351673Y-59149301D01*
X118355238Y-59146283D01*
X118403364Y-59091406D01*
X121443423Y-59091406D01*
X121448704Y-59098461D01*
X121625080Y-59201527D01*
X121634363Y-59205974D01*
X121841003Y-59284883D01*
X121850901Y-59287759D01*
X122067653Y-59331857D01*
X122077883Y-59333076D01*
X122298914Y-59341182D01*
X122309223Y-59340714D01*
X122528623Y-59312608D01*
X122538688Y-59310468D01*
X122750557Y-59246905D01*
X122760152Y-59243144D01*
X122958778Y-59145838D01*
X122967636Y-59140559D01*
X123025097Y-59099572D01*
X123033497Y-59088874D01*
X123026510Y-59075721D01*
X122252811Y-58302021D01*
X122238868Y-58294408D01*
X122237034Y-58294539D01*
X122230420Y-58298790D01*
X121450180Y-59079031D01*
X121443423Y-59091406D01*
X118403364Y-59091406D01*
X118437886Y-59052042D01*
X118518806Y-58959771D01*
X118518810Y-58959766D01*
X118521888Y-58956256D01*
X118592653Y-58846240D01*
X118656094Y-58747610D01*
X118656096Y-58747607D01*
X118658619Y-58743684D01*
X118762428Y-58513236D01*
X118831034Y-58269976D01*
X118847263Y-58142409D01*
X118862533Y-58022378D01*
X118862533Y-58022372D01*
X118862931Y-58019247D01*
X118865268Y-57930000D01*
X118863086Y-57900638D01*
X120827893Y-57900638D01*
X120840627Y-58121468D01*
X120842061Y-58131670D01*
X120890685Y-58347439D01*
X120893773Y-58357292D01*
X120976986Y-58562220D01*
X120981634Y-58571421D01*
X121070097Y-58715781D01*
X121080553Y-58725242D01*
X121089331Y-58721458D01*
X121867979Y-57942811D01*
X121874356Y-57931132D01*
X122604408Y-57931132D01*
X122604539Y-57932966D01*
X122608790Y-57939580D01*
X123386307Y-58717096D01*
X123398313Y-58723652D01*
X123410052Y-58714684D01*
X123448010Y-58661859D01*
X123453321Y-58653020D01*
X123551318Y-58454737D01*
X123555117Y-58445142D01*
X123619415Y-58233517D01*
X123621594Y-58223436D01*
X123650702Y-58002338D01*
X123651221Y-57995663D01*
X123652744Y-57933364D01*
X123652550Y-57926646D01*
X123649156Y-57885361D01*
X128195316Y-57885361D01*
X128195540Y-57890027D01*
X128195540Y-57890033D01*
X128200614Y-57995663D01*
X128207443Y-58137820D01*
X128208356Y-58142409D01*
X128251099Y-58357292D01*
X128256752Y-58385713D01*
X128258331Y-58390111D01*
X128258333Y-58390118D01*
X128320124Y-58562220D01*
X128342160Y-58623595D01*
X128461792Y-58846240D01*
X128464587Y-58849984D01*
X128464589Y-58849986D01*
X128610226Y-59045018D01*
X128610231Y-59045024D01*
X128613018Y-59048756D01*
X128616327Y-59052036D01*
X128616332Y-59052042D01*
X128767127Y-59201527D01*
X128792517Y-59226696D01*
X128796279Y-59229454D01*
X128796282Y-59229457D01*
X128948657Y-59341182D01*
X128996346Y-59376149D01*
X129000481Y-59378325D01*
X129000485Y-59378327D01*
X129117952Y-59440129D01*
X129220026Y-59493833D01*
X129458644Y-59577162D01*
X129463237Y-59578034D01*
X129702369Y-59623435D01*
X129702372Y-59623435D01*
X129706958Y-59624306D01*
X129827081Y-59629026D01*
X129954845Y-59634046D01*
X129954850Y-59634046D01*
X129959513Y-59634229D01*
X130037657Y-59625671D01*
X130206107Y-59607223D01*
X130206112Y-59607222D01*
X130210760Y-59606713D01*
X130328861Y-59575620D01*
X130450658Y-59543554D01*
X130450661Y-59543553D01*
X130455181Y-59542363D01*
X130687405Y-59442591D01*
X130794774Y-59376149D01*
X130898358Y-59312050D01*
X130898362Y-59312047D01*
X130902331Y-59309591D01*
X130996989Y-59229457D01*
X131091672Y-59149302D01*
X131091673Y-59149301D01*
X131095238Y-59146283D01*
X131177886Y-59052042D01*
X131258806Y-58959771D01*
X131258810Y-58959766D01*
X131261888Y-58956256D01*
X131332653Y-58846240D01*
X131396094Y-58747610D01*
X131396096Y-58747607D01*
X131398619Y-58743684D01*
X131502428Y-58513236D01*
X131571034Y-58269976D01*
X131587263Y-58142409D01*
X131602533Y-58022378D01*
X131602533Y-58022372D01*
X131602931Y-58019247D01*
X131605268Y-57930000D01*
X131601951Y-57885361D01*
X151015316Y-57885361D01*
X151015540Y-57890027D01*
X151015540Y-57890033D01*
X151020614Y-57995663D01*
X151027443Y-58137820D01*
X151028356Y-58142409D01*
X151071099Y-58357292D01*
X151076752Y-58385713D01*
X151078331Y-58390111D01*
X151078333Y-58390118D01*
X151140124Y-58562220D01*
X151162160Y-58623595D01*
X151281792Y-58846240D01*
X151284587Y-58849984D01*
X151284589Y-58849986D01*
X151430226Y-59045018D01*
X151430231Y-59045024D01*
X151433018Y-59048756D01*
X151436327Y-59052036D01*
X151436332Y-59052042D01*
X151587127Y-59201527D01*
X151612517Y-59226696D01*
X151616279Y-59229454D01*
X151616282Y-59229457D01*
X151768657Y-59341182D01*
X151816346Y-59376149D01*
X151820481Y-59378325D01*
X151820485Y-59378327D01*
X151937952Y-59440129D01*
X152040026Y-59493833D01*
X152278644Y-59577162D01*
X152283237Y-59578034D01*
X152522369Y-59623435D01*
X152522372Y-59623435D01*
X152526958Y-59624306D01*
X152647081Y-59629026D01*
X152774845Y-59634046D01*
X152774850Y-59634046D01*
X152779513Y-59634229D01*
X152857657Y-59625671D01*
X153026107Y-59607223D01*
X153026112Y-59607222D01*
X153030760Y-59606713D01*
X153148861Y-59575620D01*
X153270658Y-59543554D01*
X153270661Y-59543553D01*
X153275181Y-59542363D01*
X153507405Y-59442591D01*
X153614774Y-59376149D01*
X153718358Y-59312050D01*
X153718362Y-59312047D01*
X153722331Y-59309591D01*
X153816989Y-59229457D01*
X153911672Y-59149302D01*
X153911673Y-59149301D01*
X153915238Y-59146283D01*
X153963364Y-59091406D01*
X157003423Y-59091406D01*
X157008704Y-59098461D01*
X157185080Y-59201527D01*
X157194363Y-59205974D01*
X157401003Y-59284883D01*
X157410901Y-59287759D01*
X157627653Y-59331857D01*
X157637883Y-59333076D01*
X157858914Y-59341182D01*
X157869223Y-59340714D01*
X158088623Y-59312608D01*
X158098688Y-59310468D01*
X158310557Y-59246905D01*
X158320152Y-59243144D01*
X158518778Y-59145838D01*
X158527636Y-59140559D01*
X158585097Y-59099572D01*
X158593497Y-59088874D01*
X158586510Y-59075721D01*
X157812811Y-58302021D01*
X157798868Y-58294408D01*
X157797034Y-58294539D01*
X157790420Y-58298790D01*
X157010180Y-59079031D01*
X157003423Y-59091406D01*
X153963364Y-59091406D01*
X153997886Y-59052042D01*
X154078806Y-58959771D01*
X154078810Y-58959766D01*
X154081888Y-58956256D01*
X154152653Y-58846240D01*
X154216094Y-58747610D01*
X154216096Y-58747607D01*
X154218619Y-58743684D01*
X154322428Y-58513236D01*
X154391034Y-58269976D01*
X154410643Y-58115838D01*
X154439082Y-58050786D01*
X154446541Y-58042644D01*
X154588547Y-57900638D01*
X156387893Y-57900638D01*
X156400627Y-58121468D01*
X156402061Y-58131670D01*
X156450685Y-58347439D01*
X156453773Y-58357292D01*
X156536986Y-58562220D01*
X156541634Y-58571421D01*
X156630097Y-58715781D01*
X156640553Y-58725242D01*
X156649331Y-58721458D01*
X157427979Y-57942811D01*
X157434356Y-57931132D01*
X158164408Y-57931132D01*
X158164539Y-57932966D01*
X158168790Y-57939580D01*
X158946307Y-58717096D01*
X158958313Y-58723652D01*
X158970052Y-58714684D01*
X159008010Y-58661859D01*
X159013321Y-58653020D01*
X159111318Y-58454737D01*
X159115117Y-58445142D01*
X159179415Y-58233517D01*
X159181594Y-58223436D01*
X159210702Y-58002338D01*
X159211221Y-57995663D01*
X159212744Y-57933364D01*
X159212550Y-57926646D01*
X159209156Y-57885361D01*
X163755316Y-57885361D01*
X163755540Y-57890027D01*
X163755540Y-57890033D01*
X163760614Y-57995663D01*
X163767443Y-58137820D01*
X163768356Y-58142409D01*
X163811099Y-58357292D01*
X163816752Y-58385713D01*
X163818331Y-58390111D01*
X163818333Y-58390118D01*
X163880124Y-58562220D01*
X163902160Y-58623595D01*
X164021792Y-58846240D01*
X164024587Y-58849984D01*
X164024589Y-58849986D01*
X164170226Y-59045018D01*
X164170231Y-59045024D01*
X164173018Y-59048756D01*
X164176327Y-59052036D01*
X164176332Y-59052042D01*
X164327127Y-59201527D01*
X164352517Y-59226696D01*
X164356279Y-59229454D01*
X164356282Y-59229457D01*
X164508657Y-59341182D01*
X164556346Y-59376149D01*
X164560481Y-59378325D01*
X164560485Y-59378327D01*
X164677952Y-59440129D01*
X164780026Y-59493833D01*
X165018644Y-59577162D01*
X165023237Y-59578034D01*
X165262369Y-59623435D01*
X165262372Y-59623435D01*
X165266958Y-59624306D01*
X165387081Y-59629026D01*
X165514845Y-59634046D01*
X165514850Y-59634046D01*
X165519513Y-59634229D01*
X165597657Y-59625671D01*
X165766107Y-59607223D01*
X165766112Y-59607222D01*
X165770760Y-59606713D01*
X165888861Y-59575620D01*
X166010658Y-59543554D01*
X166010661Y-59543553D01*
X166015181Y-59542363D01*
X166247405Y-59442591D01*
X166354774Y-59376149D01*
X166458358Y-59312050D01*
X166458362Y-59312047D01*
X166462331Y-59309591D01*
X166556989Y-59229457D01*
X166651672Y-59149302D01*
X166651673Y-59149301D01*
X166655238Y-59146283D01*
X166737886Y-59052042D01*
X166818806Y-58959771D01*
X166818810Y-58959766D01*
X166821888Y-58956256D01*
X166892653Y-58846240D01*
X166956094Y-58747610D01*
X166956096Y-58747607D01*
X166958619Y-58743684D01*
X167062428Y-58513236D01*
X167131034Y-58269976D01*
X167147263Y-58142409D01*
X167162533Y-58022378D01*
X167162533Y-58022372D01*
X167162931Y-58019247D01*
X167165268Y-57930000D01*
X167146537Y-57677945D01*
X167090756Y-57431428D01*
X167072544Y-57384596D01*
X167000843Y-57200216D01*
X167000842Y-57200214D01*
X166999150Y-57195863D01*
X166873731Y-56976426D01*
X166717255Y-56777938D01*
X166533160Y-56604758D01*
X166325489Y-56460691D01*
X166321296Y-56458623D01*
X166102993Y-56350968D01*
X166102990Y-56350967D01*
X166098805Y-56348903D01*
X166054379Y-56334682D01*
X166002403Y-56318045D01*
X165858087Y-56271849D01*
X165853480Y-56271099D01*
X165853477Y-56271098D01*
X165613235Y-56231972D01*
X165613236Y-56231972D01*
X165608624Y-56231221D01*
X165486026Y-56229616D01*
X165360573Y-56227974D01*
X165360570Y-56227974D01*
X165355896Y-56227913D01*
X165105455Y-56261996D01*
X165100965Y-56263305D01*
X165100959Y-56263306D01*
X164997851Y-56293360D01*
X164862803Y-56332723D01*
X164858556Y-56334681D01*
X164858553Y-56334682D01*
X164823226Y-56350968D01*
X164633270Y-56438539D01*
X164629361Y-56441102D01*
X164425812Y-56574554D01*
X164425807Y-56574558D01*
X164421899Y-56577120D01*
X164233333Y-56745421D01*
X164071715Y-56939746D01*
X163940595Y-57155825D01*
X163938786Y-57160139D01*
X163938785Y-57160141D01*
X163906626Y-57236833D01*
X163842854Y-57388911D01*
X163780639Y-57633883D01*
X163755316Y-57885361D01*
X159209156Y-57885361D01*
X159194279Y-57704400D01*
X159192596Y-57694238D01*
X159138710Y-57479708D01*
X159135389Y-57469953D01*
X159047193Y-57267118D01*
X159042315Y-57258020D01*
X158969224Y-57145038D01*
X158958538Y-57135835D01*
X158948973Y-57140238D01*
X158172021Y-57917189D01*
X158164408Y-57931132D01*
X157434356Y-57931132D01*
X157435592Y-57928868D01*
X157435461Y-57927034D01*
X157431210Y-57920420D01*
X156653862Y-57143073D01*
X156642330Y-57136776D01*
X156630048Y-57146399D01*
X156574467Y-57227877D01*
X156569379Y-57236833D01*
X156476252Y-57437459D01*
X156472689Y-57447146D01*
X156413581Y-57660280D01*
X156411650Y-57670400D01*
X156388145Y-57890349D01*
X156387893Y-57900638D01*
X154588547Y-57900638D01*
X155718474Y-56770711D01*
X157005508Y-56770711D01*
X157012251Y-56783040D01*
X157787189Y-57557979D01*
X157801132Y-57565592D01*
X157802966Y-57565461D01*
X157809580Y-57561210D01*
X158588994Y-56781795D01*
X158596011Y-56768944D01*
X158588237Y-56758274D01*
X158585902Y-56756430D01*
X158577320Y-56750729D01*
X158383678Y-56643833D01*
X158374272Y-56639606D01*
X158165772Y-56565772D01*
X158155809Y-56563140D01*
X157938047Y-56524350D01*
X157927796Y-56523381D01*
X157706616Y-56520679D01*
X157696332Y-56521399D01*
X157477693Y-56554855D01*
X157467666Y-56557244D01*
X157257426Y-56625961D01*
X157247916Y-56629958D01*
X157051725Y-56732089D01*
X157043007Y-56737578D01*
X157013961Y-56759386D01*
X157005508Y-56770711D01*
X155718474Y-56770711D01*
X164669137Y-47820048D01*
X164669139Y-47820047D01*
X164830047Y-47659139D01*
X164859589Y-47616947D01*
X164866279Y-47608230D01*
X164895838Y-47573003D01*
X164899377Y-47568786D01*
X164925136Y-47524170D01*
X164931027Y-47514924D01*
X164960568Y-47472734D01*
X164982336Y-47426054D01*
X164987402Y-47416323D01*
X165010403Y-47376484D01*
X165010404Y-47376481D01*
X165013156Y-47371715D01*
X165030768Y-47323327D01*
X165034974Y-47313171D01*
X165054417Y-47271475D01*
X165056739Y-47266496D01*
X165070068Y-47216753D01*
X165073372Y-47206274D01*
X165089102Y-47163053D01*
X165089102Y-47163052D01*
X165090985Y-47157879D01*
X165099926Y-47107172D01*
X165102306Y-47096439D01*
X165114210Y-47052013D01*
X165114212Y-47052004D01*
X165115635Y-47046692D01*
X165120123Y-46995392D01*
X165121558Y-46984497D01*
X165129545Y-46939206D01*
X165129546Y-46939195D01*
X165130501Y-46933779D01*
X165130501Y-46706221D01*
X165130500Y-46706215D01*
X165130500Y-38540855D01*
X165150502Y-38472734D01*
X165178753Y-38441702D01*
X165235412Y-38397275D01*
X165235421Y-38397267D01*
X165238793Y-38394623D01*
X165279759Y-38352350D01*
X165375812Y-38253230D01*
X165438102Y-38188952D01*
X165440635Y-38185504D01*
X165440639Y-38185499D01*
X165605117Y-37961589D01*
X165607655Y-37958134D01*
X165609701Y-37954366D01*
X165742263Y-37710217D01*
X165742264Y-37710215D01*
X165744313Y-37706441D01*
X165845548Y-37438530D01*
X165909487Y-37159358D01*
X165934946Y-36874092D01*
X165935186Y-36851237D01*
X165935382Y-36832484D01*
X165935382Y-36832483D01*
X165935408Y-36830000D01*
X165929334Y-36740905D01*
X165916220Y-36548540D01*
X165916219Y-36548534D01*
X165915928Y-36544263D01*
X165857850Y-36263814D01*
X165762248Y-35993842D01*
X165630891Y-35739342D01*
X165621232Y-35725598D01*
X165468673Y-35508529D01*
X165468668Y-35508523D01*
X165466209Y-35505024D01*
X165278519Y-35303045D01*
X165274172Y-35298367D01*
X165274169Y-35298364D01*
X165271251Y-35295224D01*
X165267935Y-35292510D01*
X165267932Y-35292507D01*
X165052941Y-35116539D01*
X165049623Y-35113823D01*
X164805427Y-34964180D01*
X164787419Y-34956275D01*
X164547110Y-34850786D01*
X164547106Y-34850785D01*
X164543182Y-34849062D01*
X164267739Y-34770600D01*
X164052535Y-34739972D01*
X163988448Y-34730851D01*
X163988446Y-34730851D01*
X163984196Y-34730246D01*
X163832333Y-34729451D01*
X163702086Y-34728769D01*
X163702080Y-34728769D01*
X163697800Y-34728747D01*
X163693556Y-34729306D01*
X163693552Y-34729306D01*
X163569031Y-34745699D01*
X163413851Y-34766129D01*
X163409711Y-34767262D01*
X163409709Y-34767262D01*
X163393209Y-34771776D01*
X163137602Y-34841702D01*
X163133654Y-34843386D01*
X162878117Y-34952382D01*
X162878113Y-34952384D01*
X162874165Y-34954068D01*
X162628415Y-35101146D01*
X162404900Y-35280215D01*
X162207755Y-35487962D01*
X162040629Y-35720543D01*
X161906614Y-35973653D01*
X161905139Y-35977684D01*
X161826527Y-36192503D01*
X161808190Y-36242610D01*
X161747178Y-36522436D01*
X161724707Y-36807953D01*
X161741194Y-37093878D01*
X161742019Y-37098083D01*
X161742020Y-37098091D01*
X161773853Y-37260342D01*
X161796332Y-37374920D01*
X161797719Y-37378970D01*
X161797720Y-37378975D01*
X161867985Y-37584200D01*
X161889102Y-37645878D01*
X161891029Y-37649709D01*
X162007747Y-37881777D01*
X162017787Y-37901740D01*
X162020213Y-37905269D01*
X162020216Y-37905275D01*
X162127465Y-38061323D01*
X162180006Y-38137770D01*
X162372756Y-38349600D01*
X162376030Y-38352337D01*
X162376043Y-38352350D01*
X162484322Y-38442884D01*
X162523752Y-38501925D01*
X162529500Y-38539547D01*
X162529500Y-46229125D01*
X162509498Y-46297246D01*
X162492595Y-46318220D01*
X152607732Y-56203083D01*
X152545420Y-56237109D01*
X152535628Y-56238837D01*
X152499161Y-56243800D01*
X152365455Y-56261996D01*
X152360965Y-56263305D01*
X152360959Y-56263306D01*
X152257851Y-56293360D01*
X152122803Y-56332723D01*
X152118556Y-56334681D01*
X152118553Y-56334682D01*
X152083226Y-56350968D01*
X151893270Y-56438539D01*
X151889361Y-56441102D01*
X151685812Y-56574554D01*
X151685807Y-56574558D01*
X151681899Y-56577120D01*
X151493333Y-56745421D01*
X151331715Y-56939746D01*
X151200595Y-57155825D01*
X151198786Y-57160139D01*
X151198785Y-57160141D01*
X151166626Y-57236833D01*
X151102854Y-57388911D01*
X151040639Y-57633883D01*
X151015316Y-57885361D01*
X131601951Y-57885361D01*
X131586537Y-57677945D01*
X131530756Y-57431428D01*
X131512544Y-57384596D01*
X131440843Y-57200216D01*
X131440842Y-57200214D01*
X131439150Y-57195863D01*
X131313731Y-56976426D01*
X131157255Y-56777938D01*
X130973160Y-56604758D01*
X130765489Y-56460691D01*
X130761296Y-56458623D01*
X130542993Y-56350968D01*
X130542990Y-56350967D01*
X130538805Y-56348903D01*
X130494379Y-56334682D01*
X130442403Y-56318045D01*
X130298087Y-56271849D01*
X130293480Y-56271099D01*
X130293477Y-56271098D01*
X130053235Y-56231972D01*
X130053236Y-56231972D01*
X130048624Y-56231221D01*
X129926026Y-56229616D01*
X129800573Y-56227974D01*
X129800570Y-56227974D01*
X129795896Y-56227913D01*
X129545455Y-56261996D01*
X129540965Y-56263305D01*
X129540959Y-56263306D01*
X129437851Y-56293360D01*
X129302803Y-56332723D01*
X129298556Y-56334681D01*
X129298553Y-56334682D01*
X129263226Y-56350968D01*
X129073270Y-56438539D01*
X129069361Y-56441102D01*
X128865812Y-56574554D01*
X128865807Y-56574558D01*
X128861899Y-56577120D01*
X128673333Y-56745421D01*
X128511715Y-56939746D01*
X128380595Y-57155825D01*
X128378786Y-57160139D01*
X128378785Y-57160141D01*
X128346626Y-57236833D01*
X128282854Y-57388911D01*
X128220639Y-57633883D01*
X128195316Y-57885361D01*
X123649156Y-57885361D01*
X123634279Y-57704400D01*
X123632596Y-57694238D01*
X123578710Y-57479708D01*
X123575389Y-57469953D01*
X123487193Y-57267118D01*
X123482315Y-57258020D01*
X123409224Y-57145038D01*
X123398538Y-57135835D01*
X123388973Y-57140238D01*
X122612021Y-57917189D01*
X122604408Y-57931132D01*
X121874356Y-57931132D01*
X121875592Y-57928868D01*
X121875461Y-57927034D01*
X121871210Y-57920420D01*
X121093862Y-57143073D01*
X121082330Y-57136776D01*
X121070048Y-57146399D01*
X121014467Y-57227877D01*
X121009379Y-57236833D01*
X120916252Y-57437459D01*
X120912689Y-57447146D01*
X120853581Y-57660280D01*
X120851650Y-57670400D01*
X120828145Y-57890349D01*
X120827893Y-57900638D01*
X118863086Y-57900638D01*
X118846537Y-57677945D01*
X118790756Y-57431428D01*
X118772544Y-57384596D01*
X118700843Y-57200216D01*
X118700842Y-57200214D01*
X118699150Y-57195863D01*
X118573731Y-56976426D01*
X118417255Y-56777938D01*
X118409573Y-56770711D01*
X121445508Y-56770711D01*
X121452251Y-56783040D01*
X122227189Y-57557979D01*
X122241132Y-57565592D01*
X122242966Y-57565461D01*
X122249580Y-57561210D01*
X123028994Y-56781795D01*
X123036011Y-56768944D01*
X123028237Y-56758274D01*
X123025902Y-56756430D01*
X123017320Y-56750729D01*
X122823678Y-56643833D01*
X122814272Y-56639606D01*
X122605772Y-56565772D01*
X122595809Y-56563140D01*
X122378047Y-56524350D01*
X122367796Y-56523381D01*
X122146616Y-56520679D01*
X122136332Y-56521399D01*
X121917693Y-56554855D01*
X121907666Y-56557244D01*
X121697426Y-56625961D01*
X121687916Y-56629958D01*
X121491725Y-56732089D01*
X121483007Y-56737578D01*
X121453961Y-56759386D01*
X121445508Y-56770711D01*
X118409573Y-56770711D01*
X118233160Y-56604758D01*
X118025489Y-56460691D01*
X118021296Y-56458623D01*
X117802993Y-56350968D01*
X117802990Y-56350967D01*
X117798805Y-56348903D01*
X117754379Y-56334682D01*
X117702403Y-56318045D01*
X117558087Y-56271849D01*
X117553480Y-56271099D01*
X117553477Y-56271098D01*
X117397704Y-56245729D01*
X117338913Y-56236154D01*
X117270072Y-56200887D01*
X115717405Y-54648220D01*
X115683379Y-54585908D01*
X115680500Y-54559125D01*
X115680500Y-38540855D01*
X115700502Y-38472734D01*
X115728753Y-38441702D01*
X115785412Y-38397275D01*
X115785421Y-38397267D01*
X115788793Y-38394623D01*
X115829759Y-38352350D01*
X115925812Y-38253230D01*
X115988102Y-38188952D01*
X115990635Y-38185504D01*
X115990639Y-38185499D01*
X116155117Y-37961589D01*
X116157655Y-37958134D01*
X116159701Y-37954366D01*
X116292263Y-37710217D01*
X116292264Y-37710215D01*
X116294313Y-37706441D01*
X116395548Y-37438530D01*
X116459487Y-37159358D01*
X116484946Y-36874092D01*
X116485186Y-36851237D01*
X116485382Y-36832484D01*
X116485382Y-36832483D01*
X116485408Y-36830000D01*
X116483905Y-36807953D01*
X117274707Y-36807953D01*
X117291194Y-37093878D01*
X117292019Y-37098083D01*
X117292020Y-37098091D01*
X117323853Y-37260342D01*
X117346332Y-37374920D01*
X117347719Y-37378970D01*
X117347720Y-37378975D01*
X117417985Y-37584200D01*
X117439102Y-37645878D01*
X117441029Y-37649709D01*
X117557747Y-37881777D01*
X117567787Y-37901740D01*
X117570213Y-37905269D01*
X117570216Y-37905275D01*
X117677465Y-38061323D01*
X117730006Y-38137770D01*
X117922756Y-38349600D01*
X118142472Y-38533311D01*
X118385088Y-38685503D01*
X118388990Y-38687265D01*
X118388994Y-38687267D01*
X118642202Y-38801595D01*
X118642206Y-38801597D01*
X118646114Y-38803361D01*
X118650233Y-38804581D01*
X118916606Y-38883485D01*
X118916611Y-38883486D01*
X118920719Y-38884703D01*
X118924953Y-38885351D01*
X118924958Y-38885352D01*
X119125181Y-38915990D01*
X119203824Y-38928024D01*
X119349589Y-38930314D01*
X119485898Y-38932456D01*
X119485904Y-38932456D01*
X119490189Y-38932523D01*
X119494441Y-38932008D01*
X119494449Y-38932008D01*
X119565931Y-38923357D01*
X119635962Y-38935030D01*
X119670164Y-38959349D01*
X122189951Y-41479136D01*
X122189953Y-41479139D01*
X122350861Y-41640047D01*
X122355364Y-41643200D01*
X122393048Y-41669586D01*
X122401765Y-41676275D01*
X122441214Y-41709377D01*
X122485830Y-41735136D01*
X122495076Y-41741027D01*
X122537266Y-41770568D01*
X122583946Y-41792336D01*
X122593677Y-41797402D01*
X122633516Y-41820403D01*
X122633519Y-41820404D01*
X122638285Y-41823156D01*
X122643460Y-41825040D01*
X122643461Y-41825040D01*
X122686673Y-41840768D01*
X122696826Y-41844973D01*
X122743504Y-41866739D01*
X122793247Y-41880068D01*
X122803726Y-41883372D01*
X122846947Y-41899102D01*
X122852121Y-41900985D01*
X122857535Y-41901940D01*
X122857540Y-41901941D01*
X122902828Y-41909926D01*
X122913561Y-41912306D01*
X122957987Y-41924210D01*
X122957996Y-41924212D01*
X122963308Y-41925635D01*
X123014608Y-41930123D01*
X123025503Y-41931558D01*
X123070794Y-41939545D01*
X123070805Y-41939546D01*
X123076221Y-41940501D01*
X123303779Y-41940501D01*
X123303783Y-41940500D01*
X131966217Y-41940500D01*
X131966221Y-41940501D01*
X132193779Y-41940501D01*
X132193783Y-41940500D01*
X138316217Y-41940500D01*
X138316221Y-41940501D01*
X138543779Y-41940501D01*
X138543783Y-41940500D01*
X147206217Y-41940500D01*
X147206221Y-41940501D01*
X147433779Y-41940501D01*
X147433783Y-41940500D01*
X154906217Y-41940500D01*
X154906221Y-41940501D01*
X155133779Y-41940501D01*
X155145280Y-41938473D01*
X155184499Y-41931558D01*
X155195396Y-41930124D01*
X155241202Y-41926116D01*
X155241210Y-41926115D01*
X155246692Y-41925635D01*
X155296436Y-41912306D01*
X155307164Y-41909928D01*
X155312454Y-41908995D01*
X155357880Y-41900985D01*
X155363045Y-41899105D01*
X155363053Y-41899103D01*
X155406267Y-41883374D01*
X155416752Y-41880068D01*
X155461180Y-41868164D01*
X155461186Y-41868162D01*
X155466496Y-41866739D01*
X155513174Y-41844973D01*
X155523327Y-41840768D01*
X155566539Y-41825040D01*
X155566540Y-41825040D01*
X155571715Y-41823156D01*
X155576481Y-41820404D01*
X155576484Y-41820403D01*
X155616323Y-41797402D01*
X155626054Y-41792336D01*
X155672734Y-41770568D01*
X155714924Y-41741027D01*
X155724170Y-41735136D01*
X155768786Y-41709377D01*
X155808235Y-41676275D01*
X155816952Y-41669586D01*
X155854636Y-41643200D01*
X155859139Y-41640047D01*
X156020047Y-41479139D01*
X156020049Y-41479136D01*
X158537028Y-38962157D01*
X158599340Y-38928131D01*
X158645174Y-38926701D01*
X158648649Y-38927232D01*
X158653824Y-38928024D01*
X158802077Y-38930353D01*
X158935898Y-38932456D01*
X158935904Y-38932456D01*
X158940189Y-38932523D01*
X158944441Y-38932008D01*
X158944449Y-38932008D01*
X159164221Y-38905411D01*
X159224514Y-38898115D01*
X159228662Y-38897027D01*
X159228666Y-38897026D01*
X159497388Y-38826528D01*
X159501539Y-38825439D01*
X159505500Y-38823799D01*
X159505504Y-38823797D01*
X159648370Y-38764620D01*
X159766138Y-38715839D01*
X159815034Y-38687267D01*
X160009717Y-38573503D01*
X160009718Y-38573503D01*
X160013415Y-38571342D01*
X160052297Y-38540855D01*
X160235421Y-38397267D01*
X160238793Y-38394623D01*
X160279759Y-38352350D01*
X160375812Y-38253230D01*
X160438102Y-38188952D01*
X160440635Y-38185504D01*
X160440639Y-38185499D01*
X160605117Y-37961589D01*
X160607655Y-37958134D01*
X160609701Y-37954366D01*
X160742263Y-37710217D01*
X160742264Y-37710215D01*
X160744313Y-37706441D01*
X160845548Y-37438530D01*
X160909487Y-37159358D01*
X160934946Y-36874092D01*
X160935186Y-36851237D01*
X160935382Y-36832484D01*
X160935382Y-36832483D01*
X160935408Y-36830000D01*
X160929334Y-36740905D01*
X160916220Y-36548540D01*
X160916219Y-36548534D01*
X160915928Y-36544263D01*
X160857850Y-36263814D01*
X160762248Y-35993842D01*
X160630891Y-35739342D01*
X160621232Y-35725598D01*
X160468673Y-35508529D01*
X160468668Y-35508523D01*
X160466209Y-35505024D01*
X160278519Y-35303045D01*
X160274172Y-35298367D01*
X160274169Y-35298364D01*
X160271251Y-35295224D01*
X160267935Y-35292510D01*
X160267932Y-35292507D01*
X160052941Y-35116539D01*
X160049623Y-35113823D01*
X159805427Y-34964180D01*
X159787419Y-34956275D01*
X159547110Y-34850786D01*
X159547106Y-34850785D01*
X159543182Y-34849062D01*
X159267739Y-34770600D01*
X159052535Y-34739972D01*
X158988448Y-34730851D01*
X158988446Y-34730851D01*
X158984196Y-34730246D01*
X158832333Y-34729451D01*
X158702086Y-34728769D01*
X158702080Y-34728769D01*
X158697800Y-34728747D01*
X158693556Y-34729306D01*
X158693552Y-34729306D01*
X158569031Y-34745699D01*
X158413851Y-34766129D01*
X158409711Y-34767262D01*
X158409709Y-34767262D01*
X158393209Y-34771776D01*
X158137602Y-34841702D01*
X158133654Y-34843386D01*
X157878117Y-34952382D01*
X157878113Y-34952384D01*
X157874165Y-34954068D01*
X157628415Y-35101146D01*
X157404900Y-35280215D01*
X157207755Y-35487962D01*
X157040629Y-35720543D01*
X156906614Y-35973653D01*
X156905139Y-35977684D01*
X156826527Y-36192503D01*
X156808190Y-36242610D01*
X156747178Y-36522436D01*
X156724707Y-36807953D01*
X156737165Y-37023997D01*
X156721118Y-37093157D01*
X156700469Y-37120346D01*
X154518220Y-39302595D01*
X154455908Y-39336621D01*
X154429125Y-39339500D01*
X150763875Y-39339500D01*
X150695754Y-39319498D01*
X150649261Y-39265842D01*
X150639157Y-39195568D01*
X150668651Y-39130988D01*
X150674780Y-39124405D01*
X151331781Y-38467404D01*
X151394093Y-38433378D01*
X151420876Y-38430499D01*
X152017836Y-38430499D01*
X152022589Y-38430226D01*
X152197577Y-38389827D01*
X152359266Y-38311664D01*
X152499620Y-38199620D01*
X152611664Y-38059266D01*
X152629929Y-38021484D01*
X152657752Y-37963928D01*
X152672025Y-37934401D01*
X152719681Y-37881777D01*
X152788223Y-37863271D01*
X152857735Y-37886028D01*
X152968988Y-37963928D01*
X152978489Y-37969414D01*
X153175947Y-38061490D01*
X153186239Y-38065236D01*
X153396688Y-38121625D01*
X153407481Y-38123528D01*
X153624525Y-38142517D01*
X153635475Y-38142517D01*
X153852519Y-38123528D01*
X153863312Y-38121625D01*
X154073761Y-38065236D01*
X154084053Y-38061490D01*
X154281511Y-37969414D01*
X154291006Y-37963931D01*
X154343048Y-37927491D01*
X154351424Y-37917012D01*
X154344356Y-37903566D01*
X153359885Y-36919095D01*
X153325859Y-36856783D01*
X153327694Y-36831132D01*
X153994408Y-36831132D01*
X153994539Y-36832965D01*
X153998790Y-36839580D01*
X154704287Y-37545077D01*
X154716062Y-37551507D01*
X154728077Y-37542211D01*
X154763931Y-37491006D01*
X154769414Y-37481511D01*
X154861490Y-37284053D01*
X154865236Y-37273761D01*
X154921625Y-37063312D01*
X154923528Y-37052519D01*
X154942517Y-36835475D01*
X154942517Y-36824525D01*
X154923528Y-36607481D01*
X154921625Y-36596688D01*
X154865236Y-36386239D01*
X154861490Y-36375947D01*
X154769414Y-36178489D01*
X154763931Y-36168994D01*
X154727491Y-36116952D01*
X154717012Y-36108576D01*
X154703566Y-36115644D01*
X154002022Y-36817188D01*
X153994408Y-36831132D01*
X153327694Y-36831132D01*
X153330924Y-36785968D01*
X153359885Y-36740905D01*
X154345077Y-35755713D01*
X154351507Y-35743938D01*
X154342211Y-35731923D01*
X154291006Y-35696069D01*
X154281511Y-35690586D01*
X154084053Y-35598510D01*
X154073761Y-35594764D01*
X153863312Y-35538375D01*
X153852519Y-35536472D01*
X153635475Y-35517483D01*
X153624525Y-35517483D01*
X153407481Y-35536472D01*
X153396688Y-35538375D01*
X153186239Y-35594764D01*
X153175947Y-35598510D01*
X152978489Y-35690586D01*
X152968988Y-35696072D01*
X152857735Y-35773972D01*
X152790462Y-35796660D01*
X152721601Y-35779375D01*
X152672025Y-35725598D01*
X152669582Y-35720543D01*
X152611664Y-35600734D01*
X152499620Y-35460380D01*
X152359266Y-35348336D01*
X152197577Y-35270173D01*
X152190716Y-35268589D01*
X152027788Y-35230974D01*
X152027785Y-35230974D01*
X152022589Y-35229774D01*
X152017837Y-35229500D01*
X152016013Y-35229500D01*
X151122391Y-35229501D01*
X150242164Y-35229501D01*
X150237411Y-35229774D01*
X150062423Y-35270173D01*
X149900734Y-35348336D01*
X149760380Y-35460380D01*
X149648336Y-35600734D01*
X149570173Y-35762423D01*
X149568589Y-35769284D01*
X149531068Y-35931808D01*
X149529774Y-35937411D01*
X149529500Y-35942163D01*
X149529500Y-36539125D01*
X149509498Y-36607246D01*
X149492595Y-36628220D01*
X146818220Y-39302595D01*
X146755908Y-39336621D01*
X146729125Y-39339500D01*
X141873875Y-39339500D01*
X141805754Y-39319498D01*
X141759261Y-39265842D01*
X141749157Y-39195568D01*
X141778651Y-39130988D01*
X141784780Y-39124405D01*
X142444137Y-38465048D01*
X142444139Y-38465047D01*
X142605047Y-38304139D01*
X142634589Y-38261947D01*
X142641279Y-38253230D01*
X142670838Y-38218003D01*
X142674377Y-38213786D01*
X142700136Y-38169170D01*
X142706027Y-38159924D01*
X142735568Y-38117734D01*
X142757336Y-38071054D01*
X142762402Y-38061323D01*
X142785403Y-38021484D01*
X142785404Y-38021481D01*
X142788156Y-38016715D01*
X142805768Y-37968327D01*
X142809974Y-37958171D01*
X142811748Y-37954366D01*
X142831739Y-37911496D01*
X142833162Y-37906186D01*
X142833164Y-37906180D01*
X142845068Y-37861752D01*
X142848374Y-37851267D01*
X142864103Y-37808053D01*
X142864105Y-37808045D01*
X142865985Y-37802880D01*
X142874928Y-37752164D01*
X142877307Y-37741433D01*
X142882356Y-37722589D01*
X142890635Y-37691692D01*
X142891115Y-37686210D01*
X142891116Y-37686202D01*
X142895124Y-37640396D01*
X142896558Y-37629499D01*
X142904545Y-37584200D01*
X142905501Y-37578779D01*
X142905501Y-37351221D01*
X142905500Y-37351215D01*
X142905500Y-36934461D01*
X142925502Y-36866340D01*
X142937479Y-36851237D01*
X142937287Y-36851076D01*
X143103043Y-36653886D01*
X143103045Y-36653884D01*
X143105910Y-36650475D01*
X143244586Y-36428116D01*
X143312741Y-36273953D01*
X143348749Y-36192503D01*
X143350547Y-36188436D01*
X143421681Y-35936216D01*
X143440416Y-35796729D01*
X143456139Y-35679673D01*
X143456140Y-35679665D01*
X143456566Y-35676491D01*
X143456667Y-35673280D01*
X143460126Y-35563222D01*
X143460126Y-35563217D01*
X143460227Y-35560000D01*
X143441719Y-35298596D01*
X143386563Y-35042408D01*
X143367610Y-34991032D01*
X143297401Y-34800724D01*
X143295860Y-34796547D01*
X143171420Y-34565920D01*
X143138283Y-34521055D01*
X143018370Y-34358706D01*
X143015726Y-34355126D01*
X142831884Y-34168374D01*
X142706281Y-34072517D01*
X142627107Y-34012093D01*
X142627103Y-34012090D01*
X142623562Y-34009388D01*
X142394917Y-33881340D01*
X142390768Y-33879735D01*
X142390764Y-33879733D01*
X142243196Y-33822644D01*
X142150512Y-33786787D01*
X142146191Y-33785785D01*
X142146183Y-33785783D01*
X141978069Y-33746817D01*
X141895221Y-33727614D01*
X141634141Y-33705002D01*
X141629706Y-33705246D01*
X141629702Y-33705246D01*
X141376921Y-33719157D01*
X141376914Y-33719158D01*
X141372478Y-33719402D01*
X141115456Y-33770527D01*
X141111246Y-33772005D01*
X141111244Y-33772006D01*
X140966497Y-33822838D01*
X140868201Y-33857357D01*
X140864250Y-33859410D01*
X140864244Y-33859412D01*
X140736894Y-33925566D01*
X140635647Y-33978159D01*
X140632032Y-33980742D01*
X140632026Y-33980746D01*
X140426055Y-34127935D01*
X140426051Y-34127938D01*
X140422434Y-34130523D01*
X140382756Y-34168374D01*
X140253655Y-34291530D01*
X140232816Y-34311409D01*
X140070578Y-34517208D01*
X140068346Y-34521050D01*
X140068343Y-34521055D01*
X139984620Y-34665195D01*
X139938955Y-34743813D01*
X139937290Y-34747925D01*
X139937287Y-34747930D01*
X139895626Y-34850786D01*
X139840574Y-34986703D01*
X139777399Y-35241032D01*
X139750688Y-35501726D01*
X139750863Y-35506177D01*
X139760025Y-35739342D01*
X139760977Y-35763582D01*
X139761777Y-35767962D01*
X139800079Y-35977684D01*
X139808058Y-36021376D01*
X139890994Y-36269965D01*
X139892987Y-36273953D01*
X139988048Y-36464200D01*
X140008128Y-36504387D01*
X140157124Y-36719967D01*
X140160146Y-36723236D01*
X140244803Y-36814818D01*
X140276355Y-36878418D01*
X140268514Y-36948981D01*
X140241373Y-36989442D01*
X137928220Y-39302595D01*
X137865908Y-39336621D01*
X137839125Y-39339500D01*
X132670875Y-39339500D01*
X132602754Y-39319498D01*
X132581780Y-39302595D01*
X130108215Y-36829030D01*
X136890800Y-36829030D01*
X136896527Y-36836680D01*
X137081272Y-36949893D01*
X137090067Y-36954375D01*
X137307490Y-37044434D01*
X137316875Y-37047483D01*
X137545708Y-37102422D01*
X137555455Y-37103965D01*
X137790070Y-37122430D01*
X137799930Y-37122430D01*
X138034545Y-37103965D01*
X138044292Y-37102422D01*
X138273125Y-37047483D01*
X138282510Y-37044434D01*
X138499933Y-36954375D01*
X138508728Y-36949893D01*
X138689805Y-36838928D01*
X138699267Y-36828470D01*
X138695484Y-36819694D01*
X137807812Y-35932022D01*
X137793868Y-35924408D01*
X137792035Y-35924539D01*
X137785420Y-35928790D01*
X136897560Y-36816650D01*
X136890800Y-36829030D01*
X130108215Y-36829030D01*
X129907404Y-36628219D01*
X129873378Y-36565907D01*
X129870499Y-36539124D01*
X129870499Y-35942164D01*
X129870226Y-35937411D01*
X129829827Y-35762423D01*
X129751664Y-35600734D01*
X129723082Y-35564930D01*
X136232570Y-35564930D01*
X136251035Y-35799545D01*
X136252578Y-35809292D01*
X136307517Y-36038125D01*
X136310566Y-36047510D01*
X136400625Y-36264933D01*
X136405107Y-36273728D01*
X136516072Y-36454805D01*
X136526530Y-36464267D01*
X136535306Y-36460484D01*
X137422978Y-35572812D01*
X137429356Y-35561132D01*
X138159408Y-35561132D01*
X138159539Y-35562965D01*
X138163790Y-35569580D01*
X139051650Y-36457440D01*
X139064030Y-36464200D01*
X139071680Y-36458473D01*
X139184893Y-36273728D01*
X139189375Y-36264933D01*
X139279434Y-36047510D01*
X139282483Y-36038125D01*
X139337422Y-35809292D01*
X139338965Y-35799545D01*
X139357430Y-35564930D01*
X139357430Y-35555070D01*
X139338965Y-35320455D01*
X139337422Y-35310708D01*
X139282483Y-35081875D01*
X139279434Y-35072490D01*
X139189375Y-34855067D01*
X139184893Y-34846272D01*
X139073928Y-34665195D01*
X139063470Y-34655733D01*
X139054694Y-34659516D01*
X138167022Y-35547188D01*
X138159408Y-35561132D01*
X137429356Y-35561132D01*
X137430592Y-35558868D01*
X137430461Y-35557035D01*
X137426210Y-35550420D01*
X136538350Y-34662560D01*
X136525970Y-34655800D01*
X136518320Y-34661527D01*
X136405107Y-34846272D01*
X136400625Y-34855067D01*
X136310566Y-35072490D01*
X136307517Y-35081875D01*
X136252578Y-35310708D01*
X136251035Y-35320455D01*
X136232570Y-35555070D01*
X136232570Y-35564930D01*
X129723082Y-35564930D01*
X129639620Y-35460380D01*
X129499266Y-35348336D01*
X129337577Y-35270173D01*
X129330716Y-35268589D01*
X129167788Y-35230974D01*
X129167785Y-35230974D01*
X129162589Y-35229774D01*
X129157837Y-35229500D01*
X129156013Y-35229500D01*
X128262391Y-35229501D01*
X127382164Y-35229501D01*
X127377411Y-35229774D01*
X127202423Y-35270173D01*
X127040734Y-35348336D01*
X126900380Y-35460380D01*
X126788336Y-35600734D01*
X126730419Y-35720543D01*
X126727975Y-35725598D01*
X126680319Y-35778223D01*
X126611777Y-35796729D01*
X126542265Y-35773972D01*
X126431012Y-35696072D01*
X126421511Y-35690586D01*
X126224053Y-35598510D01*
X126213761Y-35594764D01*
X126003312Y-35538375D01*
X125992519Y-35536472D01*
X125775475Y-35517483D01*
X125764525Y-35517483D01*
X125547481Y-35536472D01*
X125536688Y-35538375D01*
X125326239Y-35594764D01*
X125315947Y-35598510D01*
X125118489Y-35690586D01*
X125108994Y-35696069D01*
X125056952Y-35732509D01*
X125048576Y-35742988D01*
X125055644Y-35756434D01*
X126040115Y-36740905D01*
X126074141Y-36803217D01*
X126069076Y-36874032D01*
X126040115Y-36919095D01*
X125054923Y-37904287D01*
X125048493Y-37916062D01*
X125057789Y-37928077D01*
X125108994Y-37963931D01*
X125118489Y-37969414D01*
X125315947Y-38061490D01*
X125326239Y-38065236D01*
X125536688Y-38121625D01*
X125547481Y-38123528D01*
X125764525Y-38142517D01*
X125775475Y-38142517D01*
X125992519Y-38123528D01*
X126003312Y-38121625D01*
X126213761Y-38065236D01*
X126224053Y-38061490D01*
X126421511Y-37969414D01*
X126431012Y-37963928D01*
X126542265Y-37886028D01*
X126609538Y-37863340D01*
X126678399Y-37880625D01*
X126727975Y-37934402D01*
X126742248Y-37963928D01*
X126770072Y-38021484D01*
X126788336Y-38059266D01*
X126900380Y-38199620D01*
X127040734Y-38311664D01*
X127202423Y-38389827D01*
X127209284Y-38391411D01*
X127372212Y-38429026D01*
X127372215Y-38429026D01*
X127377411Y-38430226D01*
X127382163Y-38430500D01*
X127979125Y-38430500D01*
X128047246Y-38450502D01*
X128068220Y-38467405D01*
X128725220Y-39124405D01*
X128759246Y-39186717D01*
X128754181Y-39257532D01*
X128711634Y-39314368D01*
X128645114Y-39339179D01*
X128636125Y-39339500D01*
X123780875Y-39339500D01*
X123712754Y-39319498D01*
X123691780Y-39302595D01*
X121508425Y-37119240D01*
X121474399Y-37056928D01*
X121472019Y-37018945D01*
X121484726Y-36876560D01*
X121484726Y-36876553D01*
X121484946Y-36874092D01*
X121485186Y-36851237D01*
X121485351Y-36835475D01*
X124457483Y-36835475D01*
X124476472Y-37052519D01*
X124478375Y-37063312D01*
X124534764Y-37273761D01*
X124538510Y-37284053D01*
X124630586Y-37481511D01*
X124636069Y-37491006D01*
X124672509Y-37543048D01*
X124682988Y-37551424D01*
X124696434Y-37544356D01*
X125397978Y-36842812D01*
X125405592Y-36828868D01*
X125405461Y-36827035D01*
X125401210Y-36820420D01*
X124695713Y-36114923D01*
X124683938Y-36108493D01*
X124671923Y-36117789D01*
X124636069Y-36168994D01*
X124630586Y-36178489D01*
X124538510Y-36375947D01*
X124534764Y-36386239D01*
X124478375Y-36596688D01*
X124476472Y-36607481D01*
X124457483Y-36824525D01*
X124457483Y-36835475D01*
X121485351Y-36835475D01*
X121485382Y-36832484D01*
X121485382Y-36832483D01*
X121485408Y-36830000D01*
X121479334Y-36740905D01*
X121466220Y-36548540D01*
X121466219Y-36548534D01*
X121465928Y-36544263D01*
X121407850Y-36263814D01*
X121312248Y-35993842D01*
X121180891Y-35739342D01*
X121171232Y-35725598D01*
X121018673Y-35508529D01*
X121018668Y-35508523D01*
X121016209Y-35505024D01*
X120828519Y-35303045D01*
X120824172Y-35298367D01*
X120824169Y-35298364D01*
X120821251Y-35295224D01*
X120817935Y-35292510D01*
X120817932Y-35292507D01*
X120602941Y-35116539D01*
X120599623Y-35113823D01*
X120355427Y-34964180D01*
X120337419Y-34956275D01*
X120097110Y-34850786D01*
X120097106Y-34850785D01*
X120093182Y-34849062D01*
X119817739Y-34770600D01*
X119602535Y-34739972D01*
X119538448Y-34730851D01*
X119538446Y-34730851D01*
X119534196Y-34730246D01*
X119382333Y-34729451D01*
X119252086Y-34728769D01*
X119252080Y-34728769D01*
X119247800Y-34728747D01*
X119243556Y-34729306D01*
X119243552Y-34729306D01*
X119119031Y-34745699D01*
X118963851Y-34766129D01*
X118959711Y-34767262D01*
X118959709Y-34767262D01*
X118943209Y-34771776D01*
X118687602Y-34841702D01*
X118683654Y-34843386D01*
X118428117Y-34952382D01*
X118428113Y-34952384D01*
X118424165Y-34954068D01*
X118178415Y-35101146D01*
X117954900Y-35280215D01*
X117757755Y-35487962D01*
X117590629Y-35720543D01*
X117456614Y-35973653D01*
X117455139Y-35977684D01*
X117376527Y-36192503D01*
X117358190Y-36242610D01*
X117297178Y-36522436D01*
X117274707Y-36807953D01*
X116483905Y-36807953D01*
X116479334Y-36740905D01*
X116466220Y-36548540D01*
X116466219Y-36548534D01*
X116465928Y-36544263D01*
X116407850Y-36263814D01*
X116312248Y-35993842D01*
X116180891Y-35739342D01*
X116171232Y-35725598D01*
X116018673Y-35508529D01*
X116018668Y-35508523D01*
X116016209Y-35505024D01*
X115828519Y-35303045D01*
X115824172Y-35298367D01*
X115824169Y-35298364D01*
X115821251Y-35295224D01*
X115817935Y-35292510D01*
X115817932Y-35292507D01*
X115602941Y-35116539D01*
X115599623Y-35113823D01*
X115355427Y-34964180D01*
X115337419Y-34956275D01*
X115097110Y-34850786D01*
X115097106Y-34850785D01*
X115093182Y-34849062D01*
X114817739Y-34770600D01*
X114602535Y-34739972D01*
X114538448Y-34730851D01*
X114538446Y-34730851D01*
X114534196Y-34730246D01*
X114382333Y-34729451D01*
X114252086Y-34728769D01*
X114252080Y-34728769D01*
X114247800Y-34728747D01*
X114243556Y-34729306D01*
X114243552Y-34729306D01*
X114119031Y-34745699D01*
X113963851Y-34766129D01*
X113959711Y-34767262D01*
X113959709Y-34767262D01*
X113943209Y-34771776D01*
X113687602Y-34841702D01*
X113683654Y-34843386D01*
X113428117Y-34952382D01*
X113428113Y-34952384D01*
X113424165Y-34954068D01*
X113178415Y-35101146D01*
X112954900Y-35280215D01*
X112757755Y-35487962D01*
X112590629Y-35720543D01*
X112456614Y-35973653D01*
X112455139Y-35977684D01*
X112376527Y-36192503D01*
X112358190Y-36242610D01*
X112297178Y-36522436D01*
X112274707Y-36807953D01*
X104940000Y-36807953D01*
X104940000Y-34291530D01*
X136890733Y-34291530D01*
X136894516Y-34300306D01*
X137782188Y-35187978D01*
X137796132Y-35195592D01*
X137797965Y-35195461D01*
X137804580Y-35191210D01*
X138692440Y-34303350D01*
X138699200Y-34290970D01*
X138693473Y-34283320D01*
X138508728Y-34170107D01*
X138499933Y-34165625D01*
X138282510Y-34075566D01*
X138273125Y-34072517D01*
X138044292Y-34017578D01*
X138034545Y-34016035D01*
X137799930Y-33997570D01*
X137790070Y-33997570D01*
X137555455Y-34016035D01*
X137545708Y-34017578D01*
X137316875Y-34072517D01*
X137307490Y-34075566D01*
X137090067Y-34165625D01*
X137081272Y-34170107D01*
X136900195Y-34281072D01*
X136890733Y-34291530D01*
X104940000Y-34291530D01*
X104940000Y-26326000D01*
X104960002Y-26257879D01*
X105013658Y-26211386D01*
X105066000Y-26200000D01*
X169254000Y-26200000D01*
X169322121Y-26220002D01*
G37*
%TD.AperFunction*%
%TD*%
M02*
