%TF.GenerationSoftware,KiCad,Pcbnew,6.0.2+dfsg-1*%
%TF.CreationDate,2022-06-29T22:04:32+02:00*%
%TF.ProjectId,ID_BAC_Carte_Alimentation,49445f42-4143-45f4-9361-7274655f416c,rev?*%
%TF.SameCoordinates,Original*%
%TF.FileFunction,Legend,Top*%
%TF.FilePolarity,Positive*%
%FSLAX46Y46*%
G04 Gerber Fmt 4.6, Leading zero omitted, Abs format (unit mm)*
G04 Created by KiCad (PCBNEW 6.0.2+dfsg-1) date 2022-06-29 22:04:32*
%MOMM*%
%LPD*%
G01*
G04 APERTURE LIST*
%ADD10C,0.150000*%
%ADD11C,0.254000*%
%ADD12C,0.120000*%
%ADD13C,0.200000*%
%ADD14C,0.100000*%
%ADD15C,0.400000*%
G04 APERTURE END LIST*
D10*
X146558095Y-97290000D02*
X146462857Y-97242380D01*
X146320000Y-97242380D01*
X146177142Y-97290000D01*
X146081904Y-97385238D01*
X146034285Y-97480476D01*
X145986666Y-97670952D01*
X145986666Y-97813809D01*
X146034285Y-98004285D01*
X146081904Y-98099523D01*
X146177142Y-98194761D01*
X146320000Y-98242380D01*
X146415238Y-98242380D01*
X146558095Y-98194761D01*
X146605714Y-98147142D01*
X146605714Y-97813809D01*
X146415238Y-97813809D01*
X147034285Y-98242380D02*
X147034285Y-97242380D01*
X147605714Y-98242380D01*
X147605714Y-97242380D01*
X148081904Y-98242380D02*
X148081904Y-97242380D01*
X148320000Y-97242380D01*
X148462857Y-97290000D01*
X148558095Y-97385238D01*
X148605714Y-97480476D01*
X148653333Y-97670952D01*
X148653333Y-97813809D01*
X148605714Y-98004285D01*
X148558095Y-98099523D01*
X148462857Y-98194761D01*
X148320000Y-98242380D01*
X148081904Y-98242380D01*
X151780952Y-98242380D02*
X151209523Y-98242380D01*
X151495238Y-98242380D02*
X151495238Y-97242380D01*
X151400000Y-97385238D01*
X151304761Y-97480476D01*
X151209523Y-97528095D01*
X152161904Y-97337619D02*
X152209523Y-97290000D01*
X152304761Y-97242380D01*
X152542857Y-97242380D01*
X152638095Y-97290000D01*
X152685714Y-97337619D01*
X152733333Y-97432857D01*
X152733333Y-97528095D01*
X152685714Y-97670952D01*
X152114285Y-98242380D01*
X152733333Y-98242380D01*
X153019047Y-97242380D02*
X153352380Y-98242380D01*
X153685714Y-97242380D01*
X131318095Y-28710000D02*
X131222857Y-28662380D01*
X131080000Y-28662380D01*
X130937142Y-28710000D01*
X130841904Y-28805238D01*
X130794285Y-28900476D01*
X130746666Y-29090952D01*
X130746666Y-29233809D01*
X130794285Y-29424285D01*
X130841904Y-29519523D01*
X130937142Y-29614761D01*
X131080000Y-29662380D01*
X131175238Y-29662380D01*
X131318095Y-29614761D01*
X131365714Y-29567142D01*
X131365714Y-29233809D01*
X131175238Y-29233809D01*
X131794285Y-29662380D02*
X131794285Y-28662380D01*
X132365714Y-29662380D01*
X132365714Y-28662380D01*
X132841904Y-29662380D02*
X132841904Y-28662380D01*
X133080000Y-28662380D01*
X133222857Y-28710000D01*
X133318095Y-28805238D01*
X133365714Y-28900476D01*
X133413333Y-29090952D01*
X133413333Y-29233809D01*
X133365714Y-29424285D01*
X133318095Y-29519523D01*
X133222857Y-29614761D01*
X133080000Y-29662380D01*
X132841904Y-29662380D01*
X145796190Y-28662380D02*
X146129523Y-29662380D01*
X146462857Y-28662380D01*
X146796190Y-29662380D02*
X146796190Y-28662380D01*
X146796190Y-29043333D02*
X146891428Y-28995714D01*
X147081904Y-28995714D01*
X147177142Y-29043333D01*
X147224761Y-29090952D01*
X147272380Y-29186190D01*
X147272380Y-29471904D01*
X147224761Y-29567142D01*
X147177142Y-29614761D01*
X147081904Y-29662380D01*
X146891428Y-29662380D01*
X146796190Y-29614761D01*
X148129523Y-29662380D02*
X148129523Y-29138571D01*
X148081904Y-29043333D01*
X147986666Y-28995714D01*
X147796190Y-28995714D01*
X147700952Y-29043333D01*
X148129523Y-29614761D02*
X148034285Y-29662380D01*
X147796190Y-29662380D01*
X147700952Y-29614761D01*
X147653333Y-29519523D01*
X147653333Y-29424285D01*
X147700952Y-29329047D01*
X147796190Y-29281428D01*
X148034285Y-29281428D01*
X148129523Y-29233809D01*
X148462857Y-28995714D02*
X148843809Y-28995714D01*
X148605714Y-28662380D02*
X148605714Y-29519523D01*
X148653333Y-29614761D01*
X148748571Y-29662380D01*
X148843809Y-29662380D01*
%TO.C,D2*%
X159052380Y-108688095D02*
X158052380Y-108688095D01*
X158052380Y-108450000D01*
X158100000Y-108307142D01*
X158195238Y-108211904D01*
X158290476Y-108164285D01*
X158480952Y-108116666D01*
X158623809Y-108116666D01*
X158814285Y-108164285D01*
X158909523Y-108211904D01*
X159004761Y-108307142D01*
X159052380Y-108450000D01*
X159052380Y-108688095D01*
X158147619Y-107735714D02*
X158100000Y-107688095D01*
X158052380Y-107592857D01*
X158052380Y-107354761D01*
X158100000Y-107259523D01*
X158147619Y-107211904D01*
X158242857Y-107164285D01*
X158338095Y-107164285D01*
X158480952Y-107211904D01*
X159052380Y-107783333D01*
X159052380Y-107164285D01*
%TO.C,D1*%
X136421904Y-114902380D02*
X136421904Y-113902380D01*
X136660000Y-113902380D01*
X136802857Y-113950000D01*
X136898095Y-114045238D01*
X136945714Y-114140476D01*
X136993333Y-114330952D01*
X136993333Y-114473809D01*
X136945714Y-114664285D01*
X136898095Y-114759523D01*
X136802857Y-114854761D01*
X136660000Y-114902380D01*
X136421904Y-114902380D01*
X137945714Y-114902380D02*
X137374285Y-114902380D01*
X137660000Y-114902380D02*
X137660000Y-113902380D01*
X137564761Y-114045238D01*
X137469523Y-114140476D01*
X137374285Y-114188095D01*
%TO.C,L2*%
X116673333Y-32202380D02*
X116197142Y-32202380D01*
X116197142Y-31202380D01*
X116959047Y-31297619D02*
X117006666Y-31250000D01*
X117101904Y-31202380D01*
X117340000Y-31202380D01*
X117435238Y-31250000D01*
X117482857Y-31297619D01*
X117530476Y-31392857D01*
X117530476Y-31488095D01*
X117482857Y-31630952D01*
X116911428Y-32202380D01*
X117530476Y-32202380D01*
%TO.C,L1*%
X161163333Y-32132380D02*
X160687142Y-32132380D01*
X160687142Y-31132380D01*
X162020476Y-32132380D02*
X161449047Y-32132380D01*
X161734761Y-32132380D02*
X161734761Y-31132380D01*
X161639523Y-31275238D01*
X161544285Y-31370476D01*
X161449047Y-31418095D01*
%TO.C,C2*%
X152213333Y-32187142D02*
X152165714Y-32234761D01*
X152022857Y-32282380D01*
X151927619Y-32282380D01*
X151784761Y-32234761D01*
X151689523Y-32139523D01*
X151641904Y-32044285D01*
X151594285Y-31853809D01*
X151594285Y-31710952D01*
X151641904Y-31520476D01*
X151689523Y-31425238D01*
X151784761Y-31330000D01*
X151927619Y-31282380D01*
X152022857Y-31282380D01*
X152165714Y-31330000D01*
X152213333Y-31377619D01*
X152594285Y-31377619D02*
X152641904Y-31330000D01*
X152737142Y-31282380D01*
X152975238Y-31282380D01*
X153070476Y-31330000D01*
X153118095Y-31377619D01*
X153165714Y-31472857D01*
X153165714Y-31568095D01*
X153118095Y-31710952D01*
X152546666Y-32282380D01*
X153165714Y-32282380D01*
%TO.C,C1*%
X126853333Y-32107142D02*
X126805714Y-32154761D01*
X126662857Y-32202380D01*
X126567619Y-32202380D01*
X126424761Y-32154761D01*
X126329523Y-32059523D01*
X126281904Y-31964285D01*
X126234285Y-31773809D01*
X126234285Y-31630952D01*
X126281904Y-31440476D01*
X126329523Y-31345238D01*
X126424761Y-31250000D01*
X126567619Y-31202380D01*
X126662857Y-31202380D01*
X126805714Y-31250000D01*
X126853333Y-31297619D01*
X127805714Y-32202380D02*
X127234285Y-32202380D01*
X127520000Y-32202380D02*
X127520000Y-31202380D01*
X127424761Y-31345238D01*
X127329523Y-31440476D01*
X127234285Y-31488095D01*
D11*
%TO.C,PS2*%
X153397857Y-68654523D02*
X153397857Y-67384523D01*
X153881666Y-67384523D01*
X154002619Y-67445000D01*
X154063095Y-67505476D01*
X154123571Y-67626428D01*
X154123571Y-67807857D01*
X154063095Y-67928809D01*
X154002619Y-67989285D01*
X153881666Y-68049761D01*
X153397857Y-68049761D01*
X154607380Y-68594047D02*
X154788809Y-68654523D01*
X155091190Y-68654523D01*
X155212142Y-68594047D01*
X155272619Y-68533571D01*
X155333095Y-68412619D01*
X155333095Y-68291666D01*
X155272619Y-68170714D01*
X155212142Y-68110238D01*
X155091190Y-68049761D01*
X154849285Y-67989285D01*
X154728333Y-67928809D01*
X154667857Y-67868333D01*
X154607380Y-67747380D01*
X154607380Y-67626428D01*
X154667857Y-67505476D01*
X154728333Y-67445000D01*
X154849285Y-67384523D01*
X155151666Y-67384523D01*
X155333095Y-67445000D01*
X155816904Y-67505476D02*
X155877380Y-67445000D01*
X155998333Y-67384523D01*
X156300714Y-67384523D01*
X156421666Y-67445000D01*
X156482142Y-67505476D01*
X156542619Y-67626428D01*
X156542619Y-67747380D01*
X156482142Y-67928809D01*
X155756428Y-68654523D01*
X156542619Y-68654523D01*
%TO.C,PS1*%
X117837857Y-68654523D02*
X117837857Y-67384523D01*
X118321666Y-67384523D01*
X118442619Y-67445000D01*
X118503095Y-67505476D01*
X118563571Y-67626428D01*
X118563571Y-67807857D01*
X118503095Y-67928809D01*
X118442619Y-67989285D01*
X118321666Y-68049761D01*
X117837857Y-68049761D01*
X119047380Y-68594047D02*
X119228809Y-68654523D01*
X119531190Y-68654523D01*
X119652142Y-68594047D01*
X119712619Y-68533571D01*
X119773095Y-68412619D01*
X119773095Y-68291666D01*
X119712619Y-68170714D01*
X119652142Y-68110238D01*
X119531190Y-68049761D01*
X119289285Y-67989285D01*
X119168333Y-67928809D01*
X119107857Y-67868333D01*
X119047380Y-67747380D01*
X119047380Y-67626428D01*
X119107857Y-67505476D01*
X119168333Y-67445000D01*
X119289285Y-67384523D01*
X119591666Y-67384523D01*
X119773095Y-67445000D01*
X120982619Y-68654523D02*
X120256904Y-68654523D01*
X120619761Y-68654523D02*
X120619761Y-67384523D01*
X120498809Y-67565952D01*
X120377857Y-67686904D01*
X120256904Y-67747380D01*
D10*
%TO.C,J3*%
X119286666Y-96202380D02*
X119286666Y-96916666D01*
X119239047Y-97059523D01*
X119143809Y-97154761D01*
X119000952Y-97202380D01*
X118905714Y-97202380D01*
X119667619Y-96202380D02*
X120286666Y-96202380D01*
X119953333Y-96583333D01*
X120096190Y-96583333D01*
X120191428Y-96630952D01*
X120239047Y-96678571D01*
X120286666Y-96773809D01*
X120286666Y-97011904D01*
X120239047Y-97107142D01*
X120191428Y-97154761D01*
X120096190Y-97202380D01*
X119810476Y-97202380D01*
X119715238Y-97154761D01*
X119667619Y-97107142D01*
%TO.C,J2*%
X149526666Y-98827380D02*
X149526666Y-99541666D01*
X149479047Y-99684523D01*
X149383809Y-99779761D01*
X149240952Y-99827380D01*
X149145714Y-99827380D01*
X149955238Y-98922619D02*
X150002857Y-98875000D01*
X150098095Y-98827380D01*
X150336190Y-98827380D01*
X150431428Y-98875000D01*
X150479047Y-98922619D01*
X150526666Y-99017857D01*
X150526666Y-99113095D01*
X150479047Y-99255952D01*
X149907619Y-99827380D01*
X150526666Y-99827380D01*
%TO.C,J1*%
X139366666Y-37647380D02*
X139366666Y-38361666D01*
X139319047Y-38504523D01*
X139223809Y-38599761D01*
X139080952Y-38647380D01*
X138985714Y-38647380D01*
X140366666Y-38647380D02*
X139795238Y-38647380D01*
X140080952Y-38647380D02*
X140080952Y-37647380D01*
X139985714Y-37790238D01*
X139890476Y-37885476D01*
X139795238Y-37933095D01*
D12*
%TO.C,R1*%
X109755000Y-100557064D02*
X109755000Y-100102936D01*
X111225000Y-100557064D02*
X111225000Y-100102936D01*
%TO.C,R3*%
X165835000Y-101372936D02*
X165835000Y-101827064D01*
X164365000Y-101372936D02*
X164365000Y-101827064D01*
%TO.C,D2*%
X161015000Y-110510000D02*
X164105000Y-110510000D01*
X164104830Y-110510000D02*
G75*
G03*
X162559538Y-104960000I-1544830J2560000D01*
G01*
X162560462Y-104960000D02*
G75*
G03*
X161015170Y-110510000I-462J-2990000D01*
G01*
X165060000Y-107950000D02*
G75*
G03*
X165060000Y-107950000I-2500000J0D01*
G01*
%TO.C,D1*%
X139720000Y-112035000D02*
X139720000Y-108945000D01*
X139720000Y-108945170D02*
G75*
G03*
X134170000Y-110490462I-2560000J-1544830D01*
G01*
X134170000Y-110489538D02*
G75*
G03*
X139720000Y-112034830I2990000J-462D01*
G01*
X139660000Y-110490000D02*
G75*
G03*
X139660000Y-110490000I-2500000J0D01*
G01*
%TO.C,L2*%
X113175030Y-38390000D02*
G75*
G03*
X120584970Y-38390000I3704970J1560001D01*
G01*
X120584970Y-35270000D02*
G75*
G03*
X113175030Y-35270000I-3704970J-1560001D01*
G01*
%TO.C,L1*%
X165034970Y-35270000D02*
G75*
G03*
X157625030Y-35270000I-3704970J-1560001D01*
G01*
X157625030Y-38390000D02*
G75*
G03*
X165034970Y-38390000I3704970J1560001D01*
G01*
%TO.C,C2*%
X154061000Y-33383000D02*
X154061000Y-35790000D01*
X153501000Y-33165000D02*
X153501000Y-35790000D01*
X153581000Y-33190000D02*
X153581000Y-35790000D01*
X155941000Y-35352000D02*
X155941000Y-38308000D01*
X153781000Y-37870000D02*
X153781000Y-40398000D01*
X154261000Y-37870000D02*
X154261000Y-40173000D01*
X154781000Y-33834000D02*
X154781000Y-39826000D01*
X153741000Y-33246000D02*
X153741000Y-35790000D01*
X153901000Y-33310000D02*
X153901000Y-35790000D01*
X154261000Y-33487000D02*
X154261000Y-35790000D01*
X152820000Y-37870000D02*
X152820000Y-40635000D01*
X155301000Y-34330000D02*
X155301000Y-39330000D01*
X154021000Y-33364000D02*
X154021000Y-35790000D01*
X153861000Y-33294000D02*
X153861000Y-35790000D01*
X154141000Y-33423000D02*
X154141000Y-35790000D01*
X154501000Y-33632000D02*
X154501000Y-35790000D01*
X148612789Y-34280000D02*
X148612789Y-35030000D01*
X154901000Y-33932000D02*
X154901000Y-39728000D01*
X152820000Y-33025000D02*
X152820000Y-35790000D01*
X154181000Y-33444000D02*
X154181000Y-35790000D01*
X156061000Y-35672000D02*
X156061000Y-37988000D01*
X154301000Y-33509000D02*
X154301000Y-35790000D01*
X155221000Y-34241000D02*
X155221000Y-39419000D01*
X152780000Y-33020000D02*
X152780000Y-35790000D01*
X154301000Y-37870000D02*
X154301000Y-40151000D01*
X153421000Y-37870000D02*
X153421000Y-40518000D01*
X152860000Y-33029000D02*
X152860000Y-35790000D01*
X153020000Y-33053000D02*
X153020000Y-35790000D01*
X155421000Y-34475000D02*
X155421000Y-39185000D01*
X154581000Y-33686000D02*
X154581000Y-35790000D01*
X153621000Y-37870000D02*
X153621000Y-40456000D01*
X154221000Y-33465000D02*
X154221000Y-35790000D01*
X153581000Y-37870000D02*
X153581000Y-40470000D01*
X154101000Y-37870000D02*
X154101000Y-40257000D01*
X153661000Y-33217000D02*
X153661000Y-35790000D01*
X155661000Y-34816000D02*
X155661000Y-38844000D01*
X154541000Y-37870000D02*
X154541000Y-40002000D01*
X154421000Y-33581000D02*
X154421000Y-35790000D01*
X152380000Y-33000000D02*
X152380000Y-40660000D01*
X154941000Y-33967000D02*
X154941000Y-39693000D01*
X153781000Y-33262000D02*
X153781000Y-35790000D01*
X152940000Y-33040000D02*
X152940000Y-35790000D01*
X152740000Y-33016000D02*
X152740000Y-35790000D01*
X153181000Y-37870000D02*
X153181000Y-40577000D01*
X155621000Y-34753000D02*
X155621000Y-38907000D01*
X152620000Y-37870000D02*
X152620000Y-40653000D01*
X155141000Y-34157000D02*
X155141000Y-39503000D01*
X153701000Y-33232000D02*
X153701000Y-35790000D01*
X152500000Y-33001000D02*
X152500000Y-40659000D01*
X153461000Y-33153000D02*
X153461000Y-35790000D01*
X154221000Y-37870000D02*
X154221000Y-40195000D01*
X154661000Y-37870000D02*
X154661000Y-39918000D01*
X153981000Y-37870000D02*
X153981000Y-40314000D01*
X153741000Y-37870000D02*
X153741000Y-40414000D01*
X154021000Y-37870000D02*
X154021000Y-40296000D01*
X154621000Y-37870000D02*
X154621000Y-39946000D01*
X155341000Y-34376000D02*
X155341000Y-39284000D01*
X155381000Y-34425000D02*
X155381000Y-39235000D01*
X153981000Y-33346000D02*
X153981000Y-35790000D01*
X153141000Y-33075000D02*
X153141000Y-35790000D01*
X152660000Y-33010000D02*
X152660000Y-35790000D01*
X154341000Y-33533000D02*
X154341000Y-35790000D01*
X152540000Y-33003000D02*
X152540000Y-40657000D01*
X154341000Y-37870000D02*
X154341000Y-40127000D01*
X155821000Y-35097000D02*
X155821000Y-38563000D01*
X153341000Y-33120000D02*
X153341000Y-35790000D01*
X154181000Y-37870000D02*
X154181000Y-40216000D01*
X153101000Y-33067000D02*
X153101000Y-35790000D01*
X152660000Y-37870000D02*
X152660000Y-40650000D01*
X153141000Y-37870000D02*
X153141000Y-40585000D01*
X154581000Y-37870000D02*
X154581000Y-39974000D01*
X155781000Y-35021000D02*
X155781000Y-38639000D01*
X155901000Y-35261000D02*
X155901000Y-38399000D01*
X154061000Y-37870000D02*
X154061000Y-40277000D01*
X154501000Y-37870000D02*
X154501000Y-40028000D01*
X152860000Y-37870000D02*
X152860000Y-40631000D01*
X154741000Y-33802000D02*
X154741000Y-39858000D01*
X152780000Y-37870000D02*
X152780000Y-40640000D01*
X154821000Y-33866000D02*
X154821000Y-39794000D01*
X153421000Y-33142000D02*
X153421000Y-35790000D01*
X154381000Y-33556000D02*
X154381000Y-35790000D01*
X153861000Y-37870000D02*
X153861000Y-40366000D01*
X155261000Y-34284000D02*
X155261000Y-39376000D01*
X153301000Y-37870000D02*
X153301000Y-40550000D01*
X153261000Y-33101000D02*
X153261000Y-35790000D01*
X153541000Y-37870000D02*
X153541000Y-40483000D01*
X154461000Y-37870000D02*
X154461000Y-40054000D01*
X153381000Y-37870000D02*
X153381000Y-40529000D01*
X153821000Y-33277000D02*
X153821000Y-35790000D01*
X152620000Y-33007000D02*
X152620000Y-35790000D01*
X153541000Y-33177000D02*
X153541000Y-35790000D01*
X153901000Y-37870000D02*
X153901000Y-40350000D01*
X154861000Y-33899000D02*
X154861000Y-39761000D01*
X153060000Y-33060000D02*
X153060000Y-35790000D01*
X153060000Y-37870000D02*
X153060000Y-40600000D01*
X153301000Y-33110000D02*
X153301000Y-35790000D01*
X153621000Y-33204000D02*
X153621000Y-35790000D01*
X155101000Y-34117000D02*
X155101000Y-39543000D01*
X152900000Y-37870000D02*
X152900000Y-40625000D01*
X148237789Y-34655000D02*
X148987789Y-34655000D01*
X153941000Y-33328000D02*
X153941000Y-35790000D01*
X154541000Y-33658000D02*
X154541000Y-35790000D01*
X155461000Y-34526000D02*
X155461000Y-39134000D01*
X152940000Y-37870000D02*
X152940000Y-40620000D01*
X153821000Y-37870000D02*
X153821000Y-40383000D01*
X154461000Y-33606000D02*
X154461000Y-35790000D01*
X156141000Y-35953000D02*
X156141000Y-37707000D01*
X152460000Y-33000000D02*
X152460000Y-40660000D01*
X152980000Y-37870000D02*
X152980000Y-40614000D01*
X154701000Y-33772000D02*
X154701000Y-39888000D01*
X155981000Y-35449000D02*
X155981000Y-38211000D01*
X155861000Y-35176000D02*
X155861000Y-38484000D01*
X152900000Y-33035000D02*
X152900000Y-35790000D01*
X152420000Y-33000000D02*
X152420000Y-40660000D01*
X154621000Y-33714000D02*
X154621000Y-35790000D01*
X156221000Y-36389000D02*
X156221000Y-37271000D01*
X155581000Y-34693000D02*
X155581000Y-38967000D01*
X154421000Y-37870000D02*
X154421000Y-40079000D01*
X153501000Y-37870000D02*
X153501000Y-40495000D01*
X153661000Y-37870000D02*
X153661000Y-40443000D01*
X154381000Y-37870000D02*
X154381000Y-40104000D01*
X153261000Y-37870000D02*
X153261000Y-40559000D01*
X153181000Y-33083000D02*
X153181000Y-35790000D01*
X154101000Y-33403000D02*
X154101000Y-35790000D01*
X153461000Y-37870000D02*
X153461000Y-40507000D01*
X153020000Y-37870000D02*
X153020000Y-40607000D01*
X154981000Y-34003000D02*
X154981000Y-39657000D01*
X153221000Y-37870000D02*
X153221000Y-40568000D01*
X155701000Y-34881000D02*
X155701000Y-38779000D01*
X152980000Y-33046000D02*
X152980000Y-35790000D01*
X152700000Y-33013000D02*
X152700000Y-35790000D01*
X152580000Y-33005000D02*
X152580000Y-40655000D01*
X153941000Y-37870000D02*
X153941000Y-40332000D01*
X156101000Y-35802000D02*
X156101000Y-37858000D01*
X155061000Y-34078000D02*
X155061000Y-39582000D01*
X152700000Y-37870000D02*
X152700000Y-40647000D01*
X153101000Y-37870000D02*
X153101000Y-40593000D01*
X153221000Y-33092000D02*
X153221000Y-35790000D01*
X154661000Y-33742000D02*
X154661000Y-35790000D01*
X155501000Y-34580000D02*
X155501000Y-39080000D01*
X153701000Y-37870000D02*
X153701000Y-40428000D01*
X153341000Y-37870000D02*
X153341000Y-40540000D01*
X155741000Y-34949000D02*
X155741000Y-38711000D01*
X156021000Y-35555000D02*
X156021000Y-38105000D01*
X153381000Y-33131000D02*
X153381000Y-35790000D01*
X152740000Y-37870000D02*
X152740000Y-40644000D01*
X155021000Y-34040000D02*
X155021000Y-39620000D01*
X155541000Y-34635000D02*
X155541000Y-39025000D01*
X155181000Y-34198000D02*
X155181000Y-39462000D01*
X156181000Y-36137000D02*
X156181000Y-37523000D01*
X154141000Y-37870000D02*
X154141000Y-40237000D01*
X156250000Y-36830000D02*
G75*
G03*
X156250000Y-36830000I-3870000J0D01*
G01*
%TO.C,C1*%
X125339000Y-40277000D02*
X125339000Y-37870000D01*
X125899000Y-40495000D02*
X125899000Y-37870000D01*
X125819000Y-40470000D02*
X125819000Y-37870000D01*
X123459000Y-38308000D02*
X123459000Y-35352000D01*
X125619000Y-35790000D02*
X125619000Y-33262000D01*
X125139000Y-35790000D02*
X125139000Y-33487000D01*
X124619000Y-39826000D02*
X124619000Y-33834000D01*
X125659000Y-40414000D02*
X125659000Y-37870000D01*
X125499000Y-40350000D02*
X125499000Y-37870000D01*
X125139000Y-40173000D02*
X125139000Y-37870000D01*
X126580000Y-35790000D02*
X126580000Y-33025000D01*
X124099000Y-39330000D02*
X124099000Y-34330000D01*
X125379000Y-40296000D02*
X125379000Y-37870000D01*
X125539000Y-40366000D02*
X125539000Y-37870000D01*
X125259000Y-40237000D02*
X125259000Y-37870000D01*
X124899000Y-40028000D02*
X124899000Y-37870000D01*
X130787211Y-39380000D02*
X130787211Y-38630000D01*
X124499000Y-39728000D02*
X124499000Y-33932000D01*
X126580000Y-40635000D02*
X126580000Y-37870000D01*
X125219000Y-40216000D02*
X125219000Y-37870000D01*
X123339000Y-37988000D02*
X123339000Y-35672000D01*
X125099000Y-40151000D02*
X125099000Y-37870000D01*
X124179000Y-39419000D02*
X124179000Y-34241000D01*
X126620000Y-40640000D02*
X126620000Y-37870000D01*
X125099000Y-35790000D02*
X125099000Y-33509000D01*
X125979000Y-35790000D02*
X125979000Y-33142000D01*
X126540000Y-40631000D02*
X126540000Y-37870000D01*
X126380000Y-40607000D02*
X126380000Y-37870000D01*
X123979000Y-39185000D02*
X123979000Y-34475000D01*
X124819000Y-39974000D02*
X124819000Y-37870000D01*
X125779000Y-35790000D02*
X125779000Y-33204000D01*
X125179000Y-40195000D02*
X125179000Y-37870000D01*
X125819000Y-35790000D02*
X125819000Y-33190000D01*
X125299000Y-35790000D02*
X125299000Y-33403000D01*
X125739000Y-40443000D02*
X125739000Y-37870000D01*
X123739000Y-38844000D02*
X123739000Y-34816000D01*
X124859000Y-35790000D02*
X124859000Y-33658000D01*
X124979000Y-40079000D02*
X124979000Y-37870000D01*
X127020000Y-40660000D02*
X127020000Y-33000000D01*
X124459000Y-39693000D02*
X124459000Y-33967000D01*
X125619000Y-40398000D02*
X125619000Y-37870000D01*
X126460000Y-40620000D02*
X126460000Y-37870000D01*
X126660000Y-40644000D02*
X126660000Y-37870000D01*
X126219000Y-35790000D02*
X126219000Y-33083000D01*
X123779000Y-38907000D02*
X123779000Y-34753000D01*
X126780000Y-35790000D02*
X126780000Y-33007000D01*
X124259000Y-39503000D02*
X124259000Y-34157000D01*
X125699000Y-40428000D02*
X125699000Y-37870000D01*
X126900000Y-40659000D02*
X126900000Y-33001000D01*
X125939000Y-40507000D02*
X125939000Y-37870000D01*
X125179000Y-35790000D02*
X125179000Y-33465000D01*
X124739000Y-35790000D02*
X124739000Y-33742000D01*
X125419000Y-35790000D02*
X125419000Y-33346000D01*
X125659000Y-35790000D02*
X125659000Y-33246000D01*
X125379000Y-35790000D02*
X125379000Y-33364000D01*
X124779000Y-35790000D02*
X124779000Y-33714000D01*
X124059000Y-39284000D02*
X124059000Y-34376000D01*
X124019000Y-39235000D02*
X124019000Y-34425000D01*
X125419000Y-40314000D02*
X125419000Y-37870000D01*
X126259000Y-40585000D02*
X126259000Y-37870000D01*
X126740000Y-40650000D02*
X126740000Y-37870000D01*
X125059000Y-40127000D02*
X125059000Y-37870000D01*
X126860000Y-40657000D02*
X126860000Y-33003000D01*
X125059000Y-35790000D02*
X125059000Y-33533000D01*
X123579000Y-38563000D02*
X123579000Y-35097000D01*
X126059000Y-40540000D02*
X126059000Y-37870000D01*
X125219000Y-35790000D02*
X125219000Y-33444000D01*
X126299000Y-40593000D02*
X126299000Y-37870000D01*
X126740000Y-35790000D02*
X126740000Y-33010000D01*
X126259000Y-35790000D02*
X126259000Y-33075000D01*
X124819000Y-35790000D02*
X124819000Y-33686000D01*
X123619000Y-38639000D02*
X123619000Y-35021000D01*
X123499000Y-38399000D02*
X123499000Y-35261000D01*
X125339000Y-35790000D02*
X125339000Y-33383000D01*
X124899000Y-35790000D02*
X124899000Y-33632000D01*
X126540000Y-35790000D02*
X126540000Y-33029000D01*
X124659000Y-39858000D02*
X124659000Y-33802000D01*
X126620000Y-35790000D02*
X126620000Y-33020000D01*
X124579000Y-39794000D02*
X124579000Y-33866000D01*
X125979000Y-40518000D02*
X125979000Y-37870000D01*
X125019000Y-40104000D02*
X125019000Y-37870000D01*
X125539000Y-35790000D02*
X125539000Y-33294000D01*
X124139000Y-39376000D02*
X124139000Y-34284000D01*
X126099000Y-35790000D02*
X126099000Y-33110000D01*
X126139000Y-40559000D02*
X126139000Y-37870000D01*
X125859000Y-35790000D02*
X125859000Y-33177000D01*
X124939000Y-35790000D02*
X124939000Y-33606000D01*
X126019000Y-35790000D02*
X126019000Y-33131000D01*
X125579000Y-40383000D02*
X125579000Y-37870000D01*
X126780000Y-40653000D02*
X126780000Y-37870000D01*
X125859000Y-40483000D02*
X125859000Y-37870000D01*
X125499000Y-35790000D02*
X125499000Y-33310000D01*
X124539000Y-39761000D02*
X124539000Y-33899000D01*
X126340000Y-40600000D02*
X126340000Y-37870000D01*
X126340000Y-35790000D02*
X126340000Y-33060000D01*
X126099000Y-40550000D02*
X126099000Y-37870000D01*
X125779000Y-40456000D02*
X125779000Y-37870000D01*
X124299000Y-39543000D02*
X124299000Y-34117000D01*
X126500000Y-35790000D02*
X126500000Y-33035000D01*
X131162211Y-39005000D02*
X130412211Y-39005000D01*
X125459000Y-40332000D02*
X125459000Y-37870000D01*
X124859000Y-40002000D02*
X124859000Y-37870000D01*
X123939000Y-39134000D02*
X123939000Y-34526000D01*
X126460000Y-35790000D02*
X126460000Y-33040000D01*
X125579000Y-35790000D02*
X125579000Y-33277000D01*
X124939000Y-40054000D02*
X124939000Y-37870000D01*
X123259000Y-37707000D02*
X123259000Y-35953000D01*
X126940000Y-40660000D02*
X126940000Y-33000000D01*
X126420000Y-35790000D02*
X126420000Y-33046000D01*
X124699000Y-39888000D02*
X124699000Y-33772000D01*
X123419000Y-38211000D02*
X123419000Y-35449000D01*
X123539000Y-38484000D02*
X123539000Y-35176000D01*
X126500000Y-40625000D02*
X126500000Y-37870000D01*
X126980000Y-40660000D02*
X126980000Y-33000000D01*
X124779000Y-39946000D02*
X124779000Y-37870000D01*
X123179000Y-37271000D02*
X123179000Y-36389000D01*
X123819000Y-38967000D02*
X123819000Y-34693000D01*
X124979000Y-35790000D02*
X124979000Y-33581000D01*
X125899000Y-35790000D02*
X125899000Y-33165000D01*
X125739000Y-35790000D02*
X125739000Y-33217000D01*
X125019000Y-35790000D02*
X125019000Y-33556000D01*
X126139000Y-35790000D02*
X126139000Y-33101000D01*
X126219000Y-40577000D02*
X126219000Y-37870000D01*
X125299000Y-40257000D02*
X125299000Y-37870000D01*
X125939000Y-35790000D02*
X125939000Y-33153000D01*
X126380000Y-35790000D02*
X126380000Y-33053000D01*
X124419000Y-39657000D02*
X124419000Y-34003000D01*
X126179000Y-35790000D02*
X126179000Y-33092000D01*
X123699000Y-38779000D02*
X123699000Y-34881000D01*
X126420000Y-40614000D02*
X126420000Y-37870000D01*
X126700000Y-40647000D02*
X126700000Y-37870000D01*
X126820000Y-40655000D02*
X126820000Y-33005000D01*
X125459000Y-35790000D02*
X125459000Y-33328000D01*
X123299000Y-37858000D02*
X123299000Y-35802000D01*
X124339000Y-39582000D02*
X124339000Y-34078000D01*
X126700000Y-35790000D02*
X126700000Y-33013000D01*
X126299000Y-35790000D02*
X126299000Y-33067000D01*
X126179000Y-40568000D02*
X126179000Y-37870000D01*
X124739000Y-39918000D02*
X124739000Y-37870000D01*
X123899000Y-39080000D02*
X123899000Y-34580000D01*
X125699000Y-35790000D02*
X125699000Y-33232000D01*
X126059000Y-35790000D02*
X126059000Y-33120000D01*
X123659000Y-38711000D02*
X123659000Y-34949000D01*
X123379000Y-38105000D02*
X123379000Y-35555000D01*
X126019000Y-40529000D02*
X126019000Y-37870000D01*
X126660000Y-35790000D02*
X126660000Y-33016000D01*
X124379000Y-39620000D02*
X124379000Y-34040000D01*
X123859000Y-39025000D02*
X123859000Y-34635000D01*
X124219000Y-39462000D02*
X124219000Y-34198000D01*
X123219000Y-37523000D02*
X123219000Y-36137000D01*
X125259000Y-35790000D02*
X125259000Y-33423000D01*
X130890000Y-36830000D02*
G75*
G03*
X130890000Y-36830000I-3870000J0D01*
G01*
D13*
%TO.C,PS2*%
X168060000Y-93480000D02*
X142660000Y-93480000D01*
X142660000Y-42680000D02*
X168060000Y-42680000D01*
X141820000Y-57930000D02*
X141820000Y-57930000D01*
X142020000Y-57930000D02*
X142020000Y-57930000D01*
X142020000Y-57930000D02*
X142020000Y-57930000D01*
X168060000Y-42680000D02*
X168060000Y-93480000D01*
X142660000Y-93480000D02*
X142660000Y-42680000D01*
X142020000Y-57930000D02*
G75*
G03*
X141820000Y-57930000I-100000J0D01*
G01*
X141820000Y-57930000D02*
G75*
G03*
X142020000Y-57930000I100000J0D01*
G01*
X142020000Y-57930000D02*
G75*
G03*
X141820000Y-57930000I-100000J0D01*
G01*
%TO.C,PS1*%
X132500000Y-93480000D02*
X107100000Y-93480000D01*
X107100000Y-42680000D02*
X132500000Y-42680000D01*
X106260000Y-57930000D02*
X106260000Y-57930000D01*
X106460000Y-57930000D02*
X106460000Y-57930000D01*
X106460000Y-57930000D02*
X106460000Y-57930000D01*
X132500000Y-42680000D02*
X132500000Y-93480000D01*
X107100000Y-93480000D02*
X107100000Y-42680000D01*
X106460000Y-57930000D02*
G75*
G03*
X106260000Y-57930000I-100000J0D01*
G01*
X106260000Y-57930000D02*
G75*
G03*
X106460000Y-57930000I100000J0D01*
G01*
X106460000Y-57930000D02*
G75*
G03*
X106260000Y-57930000I-100000J0D01*
G01*
D12*
%TO.C,J3*%
X117860000Y-115680000D02*
X117860000Y-108900000D01*
D14*
X131060000Y-115670000D02*
X131060000Y-115680000D01*
D12*
X131060000Y-97680000D02*
X131060000Y-106700000D01*
D14*
X131060000Y-115560000D02*
X131060000Y-115680000D01*
D12*
X131060000Y-115680000D02*
X131060000Y-108900000D01*
X131060000Y-115680000D02*
X117860000Y-115680000D01*
X117390000Y-99680000D02*
X117390000Y-98150000D01*
D14*
X117860000Y-106630000D02*
X117860000Y-106700000D01*
D12*
X117860000Y-106700000D02*
X117860000Y-97680000D01*
X117860000Y-97680000D02*
X131060000Y-97680000D01*
D13*
%TO.C,J2*%
X154365000Y-100710000D02*
X154365000Y-110110000D01*
X152360000Y-100710000D02*
X154365000Y-100710000D01*
X145355000Y-100710000D02*
X147360000Y-100710000D01*
X154365000Y-110110000D02*
X145355000Y-110110000D01*
X145355000Y-110110000D02*
X145355000Y-100710000D01*
X148460000Y-100710000D02*
X151260000Y-100710000D01*
D15*
X146660000Y-103210000D02*
G75*
G03*
X146660000Y-103210000I-100000J0D01*
G01*
D13*
%TO.C,J1*%
X135195000Y-36860000D02*
X135195000Y-27460000D01*
X137200000Y-36860000D02*
X135195000Y-36860000D01*
X144205000Y-36860000D02*
X142200000Y-36860000D01*
X135195000Y-27460000D02*
X144205000Y-27460000D01*
X144205000Y-27460000D02*
X144205000Y-36860000D01*
X141100000Y-36860000D02*
X138300000Y-36860000D01*
D15*
X143100000Y-34360000D02*
G75*
G03*
X143100000Y-34360000I-100000J0D01*
G01*
%TD*%
M02*
